<svg width="48" height="35" viewBox="0 0 48 35" fill="none" xmlns="http://www.w3.org/2000/svg">
<path fill-rule="evenodd" clip-rule="evenodd" d="M19.7893 26.8432C20.3279 26.8432 20.7768 26.638 21.1231 26.2276C21.4694 25.8172 21.6361 25.2914 21.6361 24.6501C21.6361 24.0088 21.4566 23.4702 21.1231 23.0598C20.7768 22.6494 20.3279 22.4442 19.7893 22.4442C19.2506 22.4442 18.8017 22.6494 18.4555 23.0598C18.1092 23.4702 17.9296 23.996 17.9296 24.6245C17.9296 25.2785 18.1092 25.8172 18.4426 26.2276C18.7889 26.638 19.2378 26.8432 19.7893 26.8432ZM24.3038 24.4962H25.8043C26.561 24.4962 26.9329 24.1628 26.9329 23.5087C26.9329 22.8674 26.5482 22.534 25.8043 22.534H24.3038V24.4962ZM33.9611 26.7534H34.5511C35.0513 26.7534 35.3463 26.7534 35.4617 26.7406C35.808 26.7021 36.0901 26.5995 36.2953 26.4456C36.7442 26.0994 36.9751 25.4966 36.9751 24.6501C36.9751 23.9575 36.834 23.4317 36.539 23.0726C36.244 22.7135 35.8208 22.5468 35.2308 22.5468H33.9355L33.9611 26.7534ZM33.3584 18.1093C33.897 18.1093 34.3459 17.904 34.6922 17.4936C35.0385 17.0832 35.2052 16.5574 35.2052 15.9161C35.2052 15.2749 35.0256 14.7362 34.6922 14.3258C34.3459 13.9154 33.897 13.7102 33.3584 13.7102C32.8197 13.7102 32.3708 13.9154 32.0245 14.3258C31.6783 14.7362 31.4987 15.2621 31.4987 15.8905C31.4987 16.5446 31.6783 17.0832 32.0117 17.4936C32.358 17.904 32.8069 18.1093 33.3584 18.1093Z" fill="#86D1DA"/>
<path fill-rule="evenodd" clip-rule="evenodd" d="M0 33.5764C0 34.3587 0.641261 35 1.4236 35H45.8501C46.6325 35 47.2737 34.3587 47.2737 33.5764V6.39978H0V33.5764ZM32.4606 27.2536C32.435 27.292 32.3708 27.3818 32.1015 27.3818H29.3056C29.203 27.3818 29.0619 27.369 28.9722 27.2664C28.8824 27.1766 28.8567 27.0355 28.8567 26.9329V22.2774C28.8567 21.9952 28.9593 21.9183 28.9978 21.8926C29.0748 21.8413 29.1902 21.8285 29.2158 21.8285C29.2415 21.8285 29.3569 21.8285 29.4339 21.8926C29.4723 21.9183 29.5749 21.9952 29.5749 22.2774V26.7149H32.1015C32.3708 26.7149 32.435 26.8175 32.4606 26.8432C32.5119 26.9201 32.5119 27.0227 32.5119 27.0355C32.5119 27.1125 32.4991 27.1894 32.4606 27.2536ZM37.4368 23.1495C37.6292 23.5727 37.7318 24.0729 37.7318 24.6372C37.7318 25.1631 37.642 25.6376 37.4624 26.048C37.2829 26.4584 37.0264 26.779 36.7058 26.9971C36.3595 27.2279 35.9362 27.3562 35.4361 27.369C35.1283 27.3818 34.8461 27.3818 34.5639 27.3818H33.679C33.5764 27.3818 33.4353 27.369 33.3455 27.2664C33.2558 27.1766 33.2301 27.0355 33.2301 26.9329V22.3287C33.2301 22.2261 33.2429 22.085 33.3455 21.9952C33.4353 21.9055 33.5764 21.8798 33.679 21.8798H34.6665C35.3335 21.8798 35.7823 21.9055 36.0132 21.9568C36.6673 22.1363 37.1418 22.5211 37.4368 23.1495ZM31.4859 13.8641C31.9604 13.351 32.5889 13.0817 33.3455 13.0817C34.1151 13.0817 34.7435 13.3382 35.218 13.8641C35.6926 14.3771 35.9362 15.0696 35.9362 15.9033C35.9362 16.7369 35.6926 17.4295 35.218 17.9425C34.7435 18.4683 34.1151 18.7248 33.3584 18.7248C32.653 18.7248 32.063 18.5068 31.5885 18.0579C31.037 17.5449 30.7549 16.801 30.7549 15.852C30.7677 15.0568 31.0114 14.3771 31.4859 13.8641ZM26.779 13.5562C26.779 13.2741 26.8816 13.1971 26.9201 13.1715C26.9971 13.1202 27.1125 13.1074 27.1381 13.1074C27.1638 13.1074 27.2792 13.1074 27.3562 13.1715C27.3946 13.1971 27.4973 13.2741 27.4973 13.5562V17.9938H30.0238C30.2931 17.9938 30.3573 18.0964 30.3829 18.122C30.4342 18.199 30.4342 18.3016 30.4342 18.3144C30.4342 18.3785 30.4214 18.4555 30.3829 18.5196C30.3573 18.5581 30.2931 18.6479 30.0238 18.6479H27.2279C27.1253 18.6479 26.9842 18.635 26.8945 18.5324C26.8047 18.4427 26.779 18.3016 26.779 18.199V13.5562ZM27.1381 22.2517C27.4844 22.5211 27.664 22.9187 27.664 23.4445C27.664 23.9575 27.4973 24.3294 27.151 24.5731L26.856 24.7783L27.1381 24.9963C27.2023 25.0476 27.2407 25.0861 27.2792 25.1502C27.3818 25.317 27.4716 25.6119 27.5357 26.048C27.5742 26.266 27.5999 26.4584 27.6383 26.6251C27.6896 26.8688 27.7153 27.0227 27.7153 27.0612C27.7153 27.4588 27.4588 27.4588 27.369 27.4588C27.2023 27.4588 27.074 27.3562 26.9842 27.1381C26.9329 27.0099 26.8688 26.7021 26.7919 26.1891C26.7406 25.7915 26.6636 25.5222 26.561 25.3939C26.4199 25.2144 26.2019 25.1118 25.8813 25.1118H24.3038V27.0099C24.3038 27.292 24.2012 27.369 24.1627 27.3946C24.0857 27.446 23.9703 27.4588 23.9447 27.4588C23.919 27.4588 23.8036 27.4588 23.7266 27.3946C23.6882 27.369 23.5856 27.292 23.5856 27.0099V22.3543C23.5856 22.2517 23.5984 22.1107 23.701 22.0209C23.7908 21.9311 23.9318 21.9055 24.0344 21.9055H25.0989C25.6248 21.9055 25.9839 21.9183 26.1506 21.9311C26.5867 21.9696 26.9201 22.085 27.1381 22.2517ZM22.4056 13.5562C22.4056 13.2741 22.5082 13.1971 22.5467 13.1715C22.6237 13.1202 22.7391 13.1074 22.7647 13.1074C22.7904 13.1074 22.9058 13.1074 22.9828 13.1715C23.0213 13.1971 23.1239 13.2741 23.1239 13.5562V17.9938H25.6504C25.9198 17.9938 25.9839 18.0964 26.0095 18.122C26.0608 18.199 26.0608 18.3016 26.0608 18.3144C26.0608 18.3785 26.048 18.4555 26.0095 18.5196C25.9839 18.5581 25.9198 18.6479 25.6504 18.6479H22.8417C22.7391 18.6479 22.598 18.635 22.5082 18.5324C22.4185 18.4427 22.3928 18.3016 22.3928 18.199L22.4056 13.5562ZM17.5962 13.6075C17.5962 13.5049 17.609 13.3639 17.7116 13.2741C17.8014 13.1843 17.9425 13.1587 18.0451 13.1587H20.9179C21.1616 13.1587 21.2257 13.2484 21.2514 13.2869C21.2899 13.351 21.3027 13.428 21.3027 13.4793C21.3027 13.5306 21.2899 13.6204 21.2514 13.6717C21.2257 13.6973 21.1616 13.7999 20.9179 13.7999H18.3144V15.5313H20.7897C21.0333 15.5313 21.0975 15.6211 21.1103 15.6468C21.1616 15.7237 21.1616 15.8135 21.1616 15.8263C21.1616 15.8776 21.1488 15.9546 21.1103 16.0187C21.0846 16.0443 21.0333 16.1341 20.7897 16.1341H18.3144V17.9938H21.0205C21.277 17.9938 21.3412 18.0835 21.354 18.122C21.3925 18.1861 21.4053 18.2631 21.4053 18.3144C21.4053 18.3657 21.3925 18.4555 21.354 18.5068C21.3283 18.5324 21.2642 18.635 21.0205 18.635H18.0322C17.9296 18.635 17.7886 18.6222 17.6988 18.5196C17.609 18.4298 17.5834 18.2888 17.5834 18.1861L17.5962 13.6075ZM17.9168 22.598C18.3914 22.085 19.0198 21.8157 19.7765 21.8157C20.546 21.8157 21.1744 22.0722 21.649 22.598C22.1235 23.111 22.3672 23.8036 22.3672 24.6372C22.3672 25.4709 22.1235 26.1634 21.649 26.6764C21.1744 27.2023 20.546 27.4588 19.7893 27.4588C19.0839 27.4588 18.494 27.2407 18.0194 26.7919C17.4679 26.2789 17.1858 25.535 17.1858 24.5859C17.1986 23.7908 17.4423 23.111 17.9168 22.598ZM12.0172 13.5562C12.0172 13.2741 12.1198 13.1971 12.1583 13.1715C12.2353 13.1202 12.3507 13.1074 12.3763 13.1074C12.402 13.1074 12.5174 13.1074 12.5944 13.1715C12.6328 13.1971 12.7354 13.2741 12.7354 13.5562V15.5442H15.5955V13.5562C15.5955 13.2741 15.6981 13.1971 15.7365 13.1715C15.8135 13.1202 15.9289 13.1074 15.9546 13.1074C15.9802 13.1074 16.0956 13.1074 16.1726 13.1715C16.2111 13.1971 16.3137 13.2741 16.3137 13.5562V18.2759C16.3137 18.5581 16.2111 18.635 16.1726 18.6607C16.0956 18.712 15.9802 18.7248 15.9546 18.7248C15.9289 18.7248 15.8135 18.7248 15.7365 18.6607C15.6981 18.635 15.5955 18.5581 15.5955 18.2759V16.1854H12.7354V18.2759C12.7354 18.5581 12.6328 18.635 12.5944 18.6607C12.5174 18.712 12.402 18.7248 12.3763 18.7248C12.3507 18.7248 12.2353 18.7248 12.1583 18.6607C12.1198 18.635 12.0172 18.5581 12.0172 18.2759V13.5562ZM9.63173 21.9568C9.69586 21.8926 9.78564 21.867 9.88824 21.867C10.0678 21.867 10.196 21.9696 10.2602 22.1748L11.5299 26.3173L11.7607 25.4452L12.62 22.2774C12.6713 22.085 12.7739 21.8542 12.9919 21.8542H13.1587C13.3767 21.8542 13.4793 22.085 13.5306 22.2646L14.7105 26.3045L15.9161 22.1748C15.993 21.9055 16.1598 21.8542 16.2752 21.8542C16.3778 21.8542 16.4547 21.8798 16.5189 21.9439C16.583 22.0081 16.6215 22.085 16.6215 22.1748C16.6215 22.2389 16.6086 22.303 16.583 22.3672L15.1722 27.0227C15.1081 27.2151 14.9927 27.4459 14.7618 27.4459H14.6849C14.5053 27.4459 14.3899 27.3818 14.3514 27.2407L13.0945 22.9571L12.8509 23.8549L11.9403 27.2279C11.889 27.446 11.6838 27.4459 11.6196 27.4459H11.4914C11.3247 27.4459 11.2092 27.3818 11.1708 27.2407L9.58043 22.38C9.55478 22.303 9.54196 22.2261 9.54196 22.1748C9.54196 22.0978 9.56761 22.0081 9.63173 21.9568Z" fill="#86D1DA"/>
<path fill-rule="evenodd" clip-rule="evenodd" d="M47.2865 1.4236C47.2865 0.64126 46.6453 0 45.8629 0H1.43642C0.654078 0 0.0128174 0.64126 0.0128174 1.4236V5.36094H47.2865V1.4236ZM4.8351 3.64236C4.30926 3.64236 3.87321 3.21913 3.87321 2.68047C3.87321 2.15463 4.29644 1.71858 4.8351 1.71858C5.36093 1.71858 5.79699 2.14181 5.79699 2.68047C5.78416 3.2063 5.36093 3.64236 4.8351 3.64236ZM8.83656 3.64236C8.31073 3.64236 7.87467 3.21913 7.87467 2.68047C7.87467 2.15463 8.2979 1.71858 8.83656 1.71858C9.37522 1.71858 9.79845 2.14181 9.79845 2.68047C9.79845 3.2063 9.37522 3.64236 8.83656 3.64236ZM12.8509 3.64236C12.325 3.64236 11.889 3.21913 11.889 2.68047C11.889 2.15463 12.3122 1.71858 12.8509 1.71858C13.3767 1.71858 13.8127 2.14181 13.8127 2.68047C13.8127 3.2063 13.3767 3.64236 12.8509 3.64236ZM43.4133 3.19348H24.0344C23.7523 3.19348 23.5086 2.96262 23.5086 2.66764C23.5086 2.38549 23.7395 2.14181 24.0344 2.14181H43.4262C43.7083 2.14181 43.952 2.37266 43.952 2.66764C43.9392 2.96262 43.7083 3.19348 43.4133 3.19348Z" fill="#2FB5BA"/>
</svg>
