<svg width="750" height="180" viewBox="0 0 750 180" fill="none" xmlns="http://www.w3.org/2000/svg">
<g id="Frame 1" clip-path="url(#clip0_1407_1069)">
<rect width="750" height="180" fill="#263238"/>
<g id="freepik--background-complete--inject-16">
<path id="Vector" d="M344.188 27.032L336.316 27.2L332.32 27.266C330.982 27.296 329.638 27.266 328.3 27.302H328.036V27.032L328 20.3V20H328.3L336.244 20.036C338.896 20.036 341.542 20.102 344.188 20.132H344.356V20.3C344.356 21.44 344.308 22.574 344.278 23.696L344.188 27.032ZM344.188 27.032L344.104 23.642C344.074 22.526 344.038 21.422 344.026 20.318L344.188 20.486C341.542 20.516 338.896 20.582 336.244 20.582L328.3 20.618L328.6 20.318V27.032L328.33 26.768C329.638 26.768 330.946 26.768 332.26 26.798L336.166 26.9L344.188 27.032Z" fill="#EBEBEB"/>
<path id="Vector_2" d="M336.152 31.014L328.28 31.182L324.278 31.248C322.946 31.248 321.602 31.248 320.264 31.284H320V31.014V24.3V24H320.3L328.244 24.042C330.89 24.042 333.542 24.108 336.188 24.138H336.356V24.3C336.356 25.44 336.308 26.574 336.278 27.696L336.152 31.014ZM336.152 31.014L336.068 27.624C336.038 26.508 336.002 25.404 335.99 24.3L336.152 24.468C333.506 24.498 330.854 24.564 328.208 24.564L320.264 24.6L320.564 24.3V31.014L320.294 30.75C321.602 30.75 322.91 30.75 324.224 30.78L328.166 30.852L336.152 31.014Z" fill="#EBEBEB"/>
<path id="Vector_3" d="M241.188 12.014L233.316 12.182L229.32 12.248C227.982 12.248 226.638 12.248 225.3 12.284H225.036V12.014L225 5.3V5H225.3L233.244 5.04199C235.896 5.04199 238.542 5.10799 241.188 5.13799H241.356V5.3C241.356 6.44 241.302 7.57398 241.278 8.69598L241.188 12.014ZM241.188 12.014L241.104 8.62399C241.104 7.50799 241.038 6.404 241.026 5.3L241.188 5.468C238.542 5.498 235.896 5.56398 233.244 5.56398L225.3 5.6L225.6 5.3V12.014L225.33 11.75C226.644 11.75 227.946 11.75 229.26 11.78L233.208 11.852L241.188 12.014Z" fill="#EBEBEB"/>
<path id="Vector_4" d="M710.188 98.05L702.316 98.218L698.32 98.284C696.982 98.284 695.638 98.284 694.3 98.284H694.036V98.014L694 91.3V91H694.3L702.244 91.036C704.896 91.036 707.542 91.102 710.188 91.132H710.356V91.294C710.356 92.434 710.302 93.562 710.272 94.684L710.188 98.05ZM710.188 98.05L710.104 94.654C710.104 93.538 710.038 92.434 710.026 91.336L710.188 91.498C707.542 91.498 704.896 91.594 702.244 91.594L694.3 91.636L694.6 91.336L694.57 98.05L694.3 97.78C695.608 97.78 696.916 97.78 698.23 97.816L702.178 97.882L710.188 98.05Z" fill="#EBEBEB"/>
<path id="Vector_5" d="M630.2 84.008L622.328 84.176L618.326 84.242C616.994 84.242 615.65 84.242 614.312 84.272H614.048V84.002L614 77.3V77H614.3L622.244 77.036C624.89 77.036 627.542 77.102 630.188 77.132H630.356V77.3C630.356 78.44 630.308 79.568 630.278 80.69L630.2 84.008ZM630.2 84.008L630.116 80.612C630.086 79.496 630.05 78.392 630.038 77.294L630.2 77.456C627.554 77.486 624.902 77.552 622.256 77.552L614.312 77.594L614.612 77.294L614.6 84.008L614.33 83.738C615.638 83.738 616.946 83.738 618.26 83.774L622.202 83.84L630.2 84.008Z" fill="#EBEBEB"/>
<path id="Vector_6" d="M683.188 141.008L675.316 141.176L671.32 141.242C669.982 141.242 668.644 141.242 667.3 141.272H667.036V141.002L667 134.3V134H667.3L675.244 134.036C677.896 134.036 680.542 134.102 683.188 134.132H683.356V134.3C683.356 135.44 683.302 136.568 683.278 137.69L683.188 141.008ZM683.188 141.008L683.104 137.612C683.104 136.496 683.038 135.392 683.026 134.294L683.188 134.456C680.542 134.486 677.896 134.552 675.244 134.552L667.3 134.594L667.6 134.294L667.57 141.008L667.3 140.738C668.614 140.738 669.916 140.738 671.23 140.774L675.178 140.84L683.188 141.008Z" fill="#EBEBEB"/>
<path id="Vector_7" d="M75.128 111.02L67.256 111.188L63.254 111.254C61.922 111.254 60.578 111.254 59.24 111.284H59V111.014V104.3V104H59.3L67.244 104.036C69.89 104.036 72.542 104.102 75.188 104.132H75.356V104.294C75.356 105.434 75.308 106.562 75.278 107.684L75.128 111.02ZM75.128 111.02L75.044 107.624C75.044 106.508 74.978 105.404 74.966 104.306L75.128 104.468C72.482 104.498 69.83 104.564 67.184 104.564L59.24 104.606L59.54 104.306L59.51 111.02L59.24 110.75C60.548 110.75 61.856 110.75 63.17 110.786L67.112 110.852L75.128 111.02Z" fill="#EBEBEB"/>
<path id="Vector_8" d="M553.188 19.02L545.316 19.188L541.32 19.254C539.982 19.284 538.638 19.254 537.3 19.284H537.036V19.014L537 12.3V12H537.3L545.244 12.036C547.896 12.036 550.542 12.108 553.188 12.138H553.356V12.3C553.356 13.44 553.308 14.574 553.278 15.69L553.188 19.02ZM553.188 19.02L553.104 15.63C553.074 14.508 553.038 13.404 553.026 12.306L553.188 12.468C550.542 12.498 547.896 12.564 545.244 12.57L537.3 12.606L537.6 12.306L537.57 19.02L537.3 18.75C538.608 18.75 539.916 18.75 541.23 18.786L545.178 18.852L553.188 19.02Z" fill="#EBEBEB"/>
<path id="Vector_9" d="M708.152 26.014L700.28 26.182L696.278 26.248C694.946 26.248 693.602 26.248 692.264 26.284H692V26.014V19.3V19H692.3L700.244 19.036C702.89 19.036 705.542 19.108 708.188 19.138H708.356V19.3C708.356 20.44 708.308 21.574 708.278 22.69L708.152 26.014ZM708.152 26.014L708.068 22.624C708.038 21.502 708.002 20.398 707.99 19.3L708.152 19.462C705.506 19.462 702.854 19.558 700.208 19.564L692.264 19.6L692.564 19.3L692.534 26.014L692.264 25.744C693.572 25.744 694.88 25.744 696.194 25.78L700.136 25.846L708.152 26.014Z" fill="#EBEBEB"/>
<path id="Vector_10" d="M717.014 35.4799L709.142 35.6479L705.146 35.7139C703.808 35.7439 702.464 35.7139 701.126 35.7499H700.862V35.4799L700.826 28.7659V28.4659H701.126L709.07 28.5019C711.722 28.5019 714.368 28.5739 717.014 28.6039H717.182V28.7659C717.182 29.9059 717.128 31.0399 717.098 32.1559L717.014 35.4799ZM717.014 35.4799L716.93 32.0899C716.93 30.9679 716.864 29.8639 716.852 28.7659L717.014 28.9279C714.368 28.9579 711.722 29.0239 709.07 29.0299L701.126 29.0659L701.426 28.7659V35.4799L701.156 35.2099C702.464 35.2099 703.772 35.2099 705.086 35.2459L709.034 35.3119L717.014 35.4799Z" fill="#EBEBEB"/>
<path id="Vector_11" d="M39.158 19.02L31.28 19.188L27.284 19.254C25.952 19.254 24.608 19.254 23.27 19.29H23V19.02V12.306V12.006H23.306L31.25 12.048C33.896 12.048 36.542 12.114 39.194 12.144H39.356V12.306C39.356 13.446 39.302 14.58 39.278 15.702L39.158 19.02ZM39.158 19.02L39.068 15.63C39.068 14.514 39.002 13.404 38.99 12.306L39.158 12.468C36.506 12.504 33.86 12.564 31.214 12.57L23.27 12.606L23.57 12.306L23.534 19.02L23.27 18.786C24.578 18.786 25.88 18.786 27.194 18.786L31.142 18.852L39.158 19.02Z" fill="#EBEBEB"/>
<path id="Vector_12" d="M412.526 89.4779L416.06 83.7839L414.314 82.7039C414.064 82.5466 413.863 82.3231 413.733 82.0583C413.603 81.7935 413.548 81.4978 413.576 81.2039C413.594 80.8702 413.594 80.5357 413.576 80.2019C413.567 79.9073 413.641 79.616 413.788 79.3607C413.935 79.1053 414.151 78.896 414.41 78.7559L416.21 77.7839L413.042 71.8799L411.242 72.8459C410.982 72.9852 410.687 73.0489 410.393 73.0299C410.098 73.0108 409.814 72.9097 409.574 72.7379C409.304 72.5519 409.016 72.3719 408.722 72.2099C408.462 72.0712 408.246 71.8631 408.098 71.6089C407.95 71.3546 407.875 71.0642 407.882 70.7699L407.948 68.7179L401.252 68.5079L401.192 70.5659C401.179 70.8609 401.085 71.1467 400.92 71.3914C400.755 71.6361 400.525 71.8301 400.256 71.9519L399.818 72.1739C399.668 72.2519 399.524 72.3359 399.386 72.4199C399.136 72.5746 398.849 72.6565 398.555 72.6565C398.261 72.6565 397.974 72.5746 397.724 72.4199L395.966 71.3339L392.432 77.0279L394.184 78.1079C394.433 78.2663 394.633 78.49 394.763 78.7545C394.893 79.019 394.948 79.3143 394.922 79.6079C394.892 79.941 394.88 80.2755 394.886 80.6099C394.895 80.9031 394.822 81.1929 394.676 81.4472C394.53 81.7014 394.316 81.9101 394.058 82.0499L392.258 83.0219L395.426 88.9319L397.226 87.9599C397.486 87.8232 397.779 87.7609 398.072 87.78C398.365 87.799 398.648 87.8987 398.888 88.0679C399.161 88.2567 399.443 88.4309 399.734 88.5899C399.996 88.7275 400.214 88.9362 400.362 89.192C400.511 89.4478 400.584 89.7403 400.574 90.0359L400.514 92.0879L407.21 92.2979L407.276 90.2399C407.288 89.9463 407.381 89.6617 407.545 89.418C407.709 89.1743 407.938 88.981 408.206 88.8599L408.65 88.6379L409.082 88.3919C409.333 88.2375 409.622 88.1557 409.916 88.1557C410.211 88.1557 410.499 88.2375 410.75 88.3919L412.526 89.4779ZM406.856 85.2779C405.899 85.7909 404.812 86.0086 403.731 85.9035C402.65 85.7985 401.625 85.3753 400.785 84.6876C399.945 83.9999 399.327 83.0785 399.011 82.0399C398.694 81.0014 398.693 79.8922 399.006 78.8528C399.32 77.8134 399.935 76.8903 400.773 76.2004C401.612 75.5104 402.636 75.0845 403.716 74.9765C404.797 74.8685 405.885 75.0833 406.843 75.5937C407.801 76.1041 408.587 76.8872 409.1 77.8439C409.781 79.124 409.927 80.6216 409.506 82.0091C409.086 83.3966 408.133 84.5611 406.856 85.2479V85.2779Z" fill="#EBEBEB"/>
<g id="Group 2">
<path id="Vector_13" d="M53.876 52.386C53.876 51.636 53.978 49.638 53.978 48.786C53.978 45.138 52.676 43.488 49.28 43.386C47.678 43.29 46.73 42.342 46.73 40.986C46.73 39.63 47.678 38.688 49.28 38.586C52.676 38.454 53.954 36.858 53.954 33.186C53.954 32.34 53.852 30.342 53.852 29.586C53.852 24.738 55.898 21.642 63.644 19.944C65.192 19.59 66.392 20.544 66.392 21.99C66.407 22.4354 66.2796 22.874 66.0281 23.242C65.7767 23.61 65.4144 23.8881 64.994 24.036C60.146 25.536 59.444 27.084 59.444 30.486C59.444 31.482 59.546 33.132 59.546 34.182C59.546 38.076 57.65 39.978 54.35 41.028C57.698 42.126 59.546 43.974 59.546 47.874C59.546 48.918 59.444 50.568 59.444 51.57C59.444 54.966 60.146 56.514 64.994 58.014C65.4144 58.1619 65.7767 58.44 66.0281 58.808C66.2796 59.176 66.407 59.6146 66.392 60.06C66.392 61.512 65.192 62.46 63.644 62.112C55.922 60.39 53.876 57.288 53.876 52.386Z" fill="#EBEBEB"/>
<path id="Vector_14" d="M83.156 29.586C83.156 30.336 83.054 32.334 83.054 33.186C83.054 36.888 84.404 38.484 87.8 38.634C89.348 38.736 90.296 39.684 90.296 41.034C90.296 42.384 89.348 43.332 87.8 43.434C84.404 43.536 83.054 45.186 83.054 48.834C83.054 49.68 83.156 51.678 83.156 52.434C83.156 57.33 81.104 60.432 73.358 62.13C71.81 62.478 70.616 61.53 70.616 60.078C70.6003 59.6258 70.7332 59.1809 70.9943 58.8114C71.2555 58.4418 71.6305 58.1681 72.062 58.032C76.862 56.532 77.558 54.984 77.558 51.588C77.558 50.586 77.456 48.936 77.456 47.892C77.456 43.992 79.358 42.096 82.652 41.046C79.304 39.948 77.456 38.094 77.456 34.2C77.456 33.15 77.558 31.5 77.558 30.504C77.558 27.102 76.856 25.554 72.062 24.054C71.6305 23.9178 71.2555 23.6441 70.9943 23.2746C70.7332 22.9051 70.6003 22.4602 70.616 22.008C70.616 20.562 71.816 19.608 73.358 19.962C81.104 21.618 83.156 24.714 83.156 29.586Z" fill="#EBEBEB"/>
</g>
</g>
<g id="Group 1">
<path id="Vector_15" d="M45.632 119.218C42.0147 119.217 38.4783 120.288 35.4701 122.297C32.4619 124.306 30.1169 127.162 28.7318 130.503C27.3467 133.845 26.9837 137.522 27.6887 141.07C28.3936 144.618 30.1349 147.877 32.6923 150.435C35.2497 152.994 38.5083 154.736 42.056 155.442C45.6037 156.148 49.2811 155.786 52.6231 154.402C55.9652 153.018 58.8217 150.674 60.8315 147.667C62.8413 144.659 63.914 141.123 63.914 137.506C63.9148 135.105 63.4425 132.727 62.5241 130.508C61.6057 128.289 60.2592 126.273 58.5615 124.575C56.8637 122.877 54.8481 121.529 52.6296 120.61C50.4111 119.691 48.0333 119.218 45.632 119.218ZM45.632 146.038C43.9431 146.038 42.2921 145.537 40.8879 144.599C39.4837 143.66 38.3894 142.326 37.7434 140.766C37.0973 139.206 36.9286 137.489 37.2585 135.832C37.5884 134.176 38.4022 132.654 39.5969 131.461C40.7915 130.267 42.3134 129.454 43.97 129.125C45.6266 128.797 47.3435 128.967 48.9035 129.614C50.4635 130.261 51.7966 131.356 52.734 132.761C53.6715 134.166 54.1712 135.817 54.17 137.506C54.1684 139.769 53.2682 141.94 51.6672 143.539C50.0661 145.139 47.8954 146.038 45.632 146.038Z" fill="#EBEBEB"/>
<path id="Vector_16" d="M49.148 119.98H42.116L42.506 115H48.758L49.148 119.98Z" fill="#EBEBEB"/>
<path id="Vector_17" d="M35.762 122.344L30.794 127.318L27.548 123.526L31.97 119.104L35.762 122.344Z" fill="#EBEBEB"/>
<path id="Vector_18" d="M27.974 133.486V140.518L23 140.128V133.876L27.974 133.486Z" fill="#EBEBEB"/>
<path id="Vector_19" d="M30.344 146.866L35.318 151.84L31.526 155.08L27.104 150.658L30.344 146.866Z" fill="#EBEBEB"/>
<path id="Vector_20" d="M41.48 154.654H48.512L48.128 159.634H41.87L41.48 154.654Z" fill="#EBEBEB"/>
<path id="Vector_21" d="M54.866 152.284L59.84 147.316L63.08 151.108L58.658 155.53L54.866 152.284Z" fill="#EBEBEB"/>
<path id="Vector_22" d="M62.654 141.148V134.116L67.628 134.506V140.758L62.654 141.148Z" fill="#EBEBEB"/>
<path id="Vector_23" d="M60.284 127.768L55.31 122.794L59.108 119.548L63.53 123.97L60.284 127.768Z" fill="#EBEBEB"/>
</g>
<g id="freepik--Device--inject-16">
<path id="Vector_24" d="M438.782 39H177.086V214.056H438.782V39Z" fill="#DBDBDB"/>
<path id="Vector_25" d="M436.886 41.136H178.988V211.92H436.886V41.136Z" fill="#263238"/>
<path id="Vector_26" d="M425.462 52.11H190.406V200.94H425.462V52.11Z" fill="#455A64"/>
<path id="Vector_27" d="M240.806 57.84H190.406V200.946H240.806V57.84Z" fill="#37474F"/>
<path id="Vector_28" d="M195.8 57.84H190.406V200.946H195.8V57.84Z" fill="#455A64"/>
<path id="Vector_29" d="M240.812 106.782H195.8V108.912H240.812V106.782Z" fill="#407BFF"/>
<path id="Vector_30" d="M218.318 64.944H200.816V65.898H218.318V64.944Z" fill="white"/>
<path id="Vector_31" d="M198.578 65.118H199.706L199.142 65.718L198.578 65.118Z" fill="white"/>
<path id="Vector_32" d="M204.542 68.478H202.22V69.432H204.542V68.478Z" fill="white"/>
<path id="Vector_33" d="M200.816 69.5161V68.3881L201.416 68.9521L200.816 69.5161Z" fill="white"/>
<path id="Vector_34" d="M204.542 72.012H202.22V72.966H204.542V72.012Z" fill="white"/>
<path id="Vector_35" d="M200.552 72.186H201.68L201.116 72.786L200.552 72.186Z" fill="white"/>
<path id="Vector_36" d="M204.542 75.546H202.22V76.5H204.542V75.546Z" fill="white"/>
<path id="Vector_37" d="M200.552 75.72H201.68L201.116 76.326L200.552 75.72Z" fill="white"/>
<path id="Vector_38" d="M205.952 79.08H203.63V80.034H205.952V79.08Z" fill="white"/>
<path id="Vector_39" d="M202.22 80.118V78.99L202.826 79.554L202.22 80.118Z" fill="white"/>
<path id="Vector_40" d="M207.362 82.62H205.04V83.574H207.362V82.62Z" fill="white"/>
<path id="Vector_41" d="M203.63 83.658V82.53L204.236 83.094L203.63 83.658Z" fill="white"/>
<path id="Vector_42" d="M207.362 117.96H205.04V118.914H207.362V117.96Z" fill="white"/>
<path id="Vector_43" d="M203.63 118.998V117.87L204.236 118.434L203.63 118.998Z" fill="white"/>
<path id="Vector_44" d="M208.772 86.1479H206.45V87.1019H208.772V86.1479Z" fill="white"/>
<path id="Vector_45" d="M205.04 87.186V86.058L205.646 86.622L205.04 87.186Z" fill="white"/>
<path id="Vector_46" d="M208.772 114.426H206.45V115.38H208.772V114.426Z" fill="white"/>
<path id="Vector_47" d="M205.04 115.464V114.336L205.646 114.9L205.04 115.464Z" fill="white"/>
<path id="Vector_48" d="M210.182 89.682H207.86V90.636H210.182V89.682Z" fill="white"/>
<path id="Vector_49" d="M206.45 90.72V89.592L207.056 90.156L206.45 90.72Z" fill="white"/>
<path id="Vector_50" d="M210.182 110.886H207.86V111.84H210.182V110.886Z" fill="white"/>
<path id="Vector_51" d="M206.45 111.93V110.802L207.056 111.366L206.45 111.93Z" fill="white"/>
<path id="Vector_52" d="M211.592 93.222H209.27V94.176H211.592V93.222Z" fill="white"/>
<path id="Vector_53" d="M207.86 94.26V93.132L208.466 93.696L207.86 94.26Z" fill="white"/>
<path id="Vector_54" d="M211.856 96.75H209.534V97.704H211.856V96.75Z" fill="white"/>
<path id="Vector_55" d="M207.86 96.924H208.988L208.424 97.53L207.86 96.924Z" fill="white"/>
<path id="Vector_56" d="M211.856 100.284H209.534V101.238H211.856V100.284Z" fill="white"/>
<path id="Vector_57" d="M207.86 100.458H208.988L208.424 101.064L207.86 100.458Z" fill="white"/>
<path id="Vector_58" d="M211.856 103.818H209.534V104.772H211.856V103.818Z" fill="white"/>
<path id="Vector_59" d="M207.86 103.992H208.988L208.424 104.598L207.86 103.992Z" fill="white"/>
<path id="Vector_60" d="M211.856 107.352H209.534V108.306H211.856V107.352Z" fill="white"/>
<path id="Vector_61" d="M207.86 107.526H208.988L208.424 108.132L207.86 107.526Z" fill="white"/>
<path id="Vector_62" d="M204.542 121.494H202.22V122.448H204.542V121.494Z" fill="white"/>
<path id="Vector_63" d="M200.816 122.532V121.404L201.416 121.968L200.816 122.532Z" fill="white"/>
<path id="Vector_64" d="M204.542 125.028H202.22V125.982H204.542V125.028Z" fill="white"/>
<path id="Vector_65" d="M200.552 125.202H201.68L201.116 125.808L200.552 125.202Z" fill="white"/>
<path id="Vector_66" d="M204.542 128.562H202.22V129.516H204.542V128.562Z" fill="white"/>
<path id="Vector_67" d="M200.552 128.736H201.68L201.116 129.342L200.552 128.736Z" fill="white"/>
<path id="Vector_68" d="M205.952 132.096H203.63V133.05H205.952V132.096Z" fill="white"/>
<path id="Vector_69" d="M202.22 133.14V132.012L202.826 132.576L202.22 133.14Z" fill="white"/>
<path id="Vector_70" d="M207.362 135.636H205.04V136.59H207.362V135.636Z" fill="white"/>
<path id="Vector_71" d="M203.63 136.674V135.546L204.236 136.11L203.63 136.674Z" fill="white"/>
<path id="Vector_72" d="M207.362 139.17H205.04V140.124H207.362V139.17Z" fill="white"/>
<path id="Vector_73" d="M203.63 140.214V139.086L204.236 139.65L203.63 140.214Z" fill="white"/>
<path id="Vector_74" d="M207.626 142.704H205.304V143.658H207.626V142.704Z" fill="white"/>
<path id="Vector_75" d="M203.63 142.878H204.758L204.194 143.484L203.63 142.878Z" fill="white"/>
<path id="Vector_76" d="M207.626 146.238H205.304V147.192H207.626V146.238Z" fill="white"/>
<path id="Vector_77" d="M203.63 146.412H204.758L204.194 147.018L203.63 146.412Z" fill="white"/>
<path id="Vector_78" d="M207.626 149.772H205.304V150.726H207.626V149.772Z" fill="white"/>
<path id="Vector_79" d="M203.63 149.946H204.758L204.194 150.552L203.63 149.946Z" fill="white"/>
<path id="Vector_80" d="M207.626 153.306H205.304V154.26H207.626V153.306Z" fill="white"/>
<path id="Vector_81" d="M203.63 153.48H204.758L204.194 154.086L203.63 153.48Z" fill="white"/>
<path id="Vector_82" d="M425.462 52.11H190.406V57.834H425.462V52.11Z" fill="#407BFF"/>
<path id="Vector_83" d="M195.8 54.978C195.8 55.1928 195.736 55.4027 195.617 55.5813C195.498 55.7599 195.328 55.8991 195.13 55.9813C194.931 56.0635 194.713 56.085 194.502 56.0431C194.291 56.0012 194.098 55.8978 193.946 55.7459C193.794 55.594 193.691 55.4005 193.649 55.1898C193.607 54.9792 193.628 54.7608 193.711 54.5624C193.793 54.3639 193.932 54.1943 194.111 54.075C194.289 53.9557 194.499 53.892 194.714 53.892C195.002 53.892 195.278 54.0064 195.482 54.21C195.686 54.4137 195.8 54.69 195.8 54.978Z" fill="#C7C7C7"/>
<path id="Vector_84" d="M200.222 54.978C200.222 55.1928 200.158 55.4027 200.039 55.5813C199.92 55.7599 199.75 55.8991 199.552 55.9813C199.353 56.0635 199.135 56.085 198.924 56.0431C198.713 56.0012 198.52 55.8978 198.368 55.7459C198.216 55.594 198.113 55.4005 198.071 55.1898C198.029 54.9792 198.05 54.7608 198.133 54.5624C198.215 54.3639 198.354 54.1943 198.533 54.075C198.711 53.9557 198.921 53.892 199.136 53.892C199.424 53.892 199.7 54.0064 199.904 54.21C200.108 54.4137 200.222 54.69 200.222 54.978Z" fill="white"/>
<path id="Vector_85" d="M204.65 54.978C204.65 55.1928 204.586 55.4027 204.467 55.5813C204.348 55.7599 204.178 55.8991 203.98 55.9813C203.781 56.0635 203.563 56.085 203.352 56.0431C203.141 56.0012 202.948 55.8978 202.796 55.7459C202.644 55.594 202.541 55.4005 202.499 55.1898C202.457 54.9792 202.478 54.7608 202.561 54.5624C202.643 54.3639 202.782 54.1943 202.961 54.075C203.139 53.9557 203.349 53.892 203.564 53.892C203.852 53.892 204.128 54.0064 204.332 54.21C204.536 54.4137 204.65 54.69 204.65 54.978Z" fill="#455A64"/>
<path id="Vector_86" d="M256.892 83.286H252.65V84.324H256.892V83.286Z" fill="#EBEBEB"/>
<path id="Vector_87" d="M355.892 83.286H261.89V84.324H355.892V83.286Z" fill="#EBEBEB"/>
<path id="Vector_88" d="M366.554 83.286H358.502V84.324H366.554V83.286Z" fill="#407BFF"/>
<path id="Vector_89" d="M398.576 107.874H371.39V108.912H398.576V107.874Z" fill="#EBEBEB"/>
<path id="Vector_90" d="M408.218 83.286H368.306V84.324H408.218V83.286Z" fill="#A6A6A6"/>
<path id="Vector_91" d="M256.892 88.2H252.65V89.2379H256.892V88.2Z" fill="#EBEBEB"/>
<path id="Vector_92" d="M297.95 88.2H266.024V89.2379H297.95V88.2Z" fill="#A6A6A6"/>
<path id="Vector_93" d="M369.482 107.874H357.404V108.912H369.482V107.874Z" fill="#A6A6A6"/>
<path id="Vector_94" d="M292.382 102.954H261.89V103.992H292.382V102.954Z" fill="#A6A6A6"/>
<path id="Vector_95" d="M287.414 93.12H266.024V94.158H287.414V93.12Z" fill="#407BFF"/>
<path id="Vector_96" d="M404.414 98.0341H363.89V99.0721H404.414V98.0341Z" fill="#A6A6A6"/>
<path id="Vector_97" d="M355.898 122.172H315.374V123.21H355.898V122.172Z" fill="#A6A6A6"/>
<path id="Vector_98" d="M369.308 93.12H289.79V94.158H369.308V93.12Z" fill="#A6A6A6"/>
<path id="Vector_99" d="M354.638 107.874H261.89V108.912H354.638V107.874Z" fill="#407BFF"/>
<path id="Vector_100" d="M365.66 88.2H299.954V89.2379H365.66V88.2Z" fill="#EBEBEB"/>
<path id="Vector_101" d="M386.462 93.12H372.71V94.158H386.462V93.12Z" fill="#EBEBEB"/>
<path id="Vector_102" d="M256.892 93.12H252.65V94.158H256.892V93.12Z" fill="#EBEBEB"/>
<path id="Vector_103" d="M256.892 98.0341H252.65V99.0721H256.892V98.0341Z" fill="#A6A6A6"/>
<path id="Vector_104" d="M286.952 98.0341H261.89V99.0721H286.952V98.0341Z" fill="#EBEBEB"/>
<path id="Vector_105" d="M291.086 112.788H266.024V113.826H291.086V112.788Z" fill="#EBEBEB"/>
<path id="Vector_106" d="M393.11 117.708H358.118V118.746H393.11V117.708Z" fill="#407BFF"/>
<path id="Vector_107" d="M355.928 117.708H288.692V118.746H355.928V117.708Z" fill="#EBEBEB"/>
<path id="Vector_108" d="M284.864 117.708H266.024V118.746H284.864V117.708Z" fill="#A6A6A6"/>
<path id="Vector_109" d="M366.554 102.954H294.11V103.992H366.554V102.954Z" fill="#EBEBEB"/>
<path id="Vector_110" d="M411.53 102.954H368.306V103.992H411.53V102.954Z" fill="#407BFF"/>
<path id="Vector_111" d="M361.916 98.0341H289.502V99.0721H361.916V98.0341Z" fill="#407BFF"/>
<path id="Vector_112" d="M256.892 102.954H252.65V103.992H256.892V102.954Z" fill="#EBEBEB"/>
<path id="Vector_113" d="M256.892 107.874H252.65V108.912H256.892V107.874Z" fill="#EBEBEB"/>
<path id="Vector_114" d="M256.892 112.788H252.65V113.826H256.892V112.788Z" fill="#A6A6A6"/>
<path id="Vector_115" d="M256.892 117.708H252.65V118.746H256.892V117.708Z" fill="#EBEBEB"/>
<path id="Vector_116" d="M256.892 122.172H252.65V123.21H256.892V122.172Z" fill="#EBEBEB"/>
<path id="Vector_117" d="M311.612 122.172H261.89V123.21H311.612V122.172Z" fill="#EBEBEB"/>
<path id="Vector_118" d="M256.892 127.092H252.65V128.13H256.892V127.092Z" fill="#EBEBEB"/>
<path id="Vector_119" d="M297.95 127.092H266.024V128.13H297.95V127.092Z" fill="#A6A6A6"/>
<path id="Vector_120" d="M292.382 141.84H261.89V142.878H292.382V141.84Z" fill="#A6A6A6"/>
<path id="Vector_121" d="M287.414 132.006H266.024V133.044H287.414V132.006Z" fill="#407BFF"/>
<path id="Vector_122" d="M336.404 151.68H315.014V152.718H336.404V151.68Z" fill="#407BFF"/>
<path id="Vector_123" d="M287.414 161.514H266.024V162.552H287.414V161.514Z" fill="#407BFF"/>
<path id="Vector_124" d="M369.308 132.006H289.79V133.044H369.308V132.006Z" fill="#A6A6A6"/>
<path id="Vector_125" d="M354.638 146.76H261.89V147.798H354.638V146.76Z" fill="#407BFF"/>
<path id="Vector_126" d="M365.66 127.092H299.954V128.13H365.66V127.092Z" fill="#EBEBEB"/>
<path id="Vector_127" d="M379.568 136.926H365.84V137.964H379.568V136.926Z" fill="#EBEBEB"/>
<path id="Vector_128" d="M256.892 132.006H252.65V133.044H256.892V132.006Z" fill="#EBEBEB"/>
<path id="Vector_129" d="M256.892 136.926H252.65V137.964H256.892V136.926Z" fill="#A6A6A6"/>
<path id="Vector_130" d="M286.952 136.926H261.89V137.964H286.952V136.926Z" fill="#EBEBEB"/>
<path id="Vector_131" d="M366.554 141.84H294.11V142.878H366.554V141.84Z" fill="#EBEBEB"/>
<path id="Vector_132" d="M361.916 136.926H289.502V137.964H361.916V136.926Z" fill="#407BFF"/>
<path id="Vector_133" d="M256.892 141.84H252.65V142.878H256.892V141.84Z" fill="#EBEBEB"/>
<path id="Vector_134" d="M256.892 151.68H252.65V152.718H256.892V151.68Z" fill="#EBEBEB"/>
<path id="Vector_135" d="M311.612 151.68H261.89V152.718H311.612V151.68Z" fill="#EBEBEB"/>
<path id="Vector_136" d="M256.892 156.594H252.65V157.632H256.892V156.594Z" fill="#EBEBEB"/>
<path id="Vector_137" d="M297.95 156.594H266.024V157.632H297.95V156.594Z" fill="#A6A6A6"/>
<path id="Vector_138" d="M292.382 171.348H261.89V172.386H292.382V171.348Z" fill="#A6A6A6"/>
<path id="Vector_139" d="M369.308 161.514H289.79V162.552H369.308V161.514Z" fill="#A6A6A6"/>
<path id="Vector_140" d="M379.568 166.428H365.84V167.466H379.568V166.428Z" fill="#EBEBEB"/>
<path id="Vector_141" d="M256.892 161.514H252.65V162.552H256.892V161.514Z" fill="#EBEBEB"/>
<path id="Vector_142" d="M256.892 166.428H252.65V167.466H256.892V166.428Z" fill="#A6A6A6"/>
<path id="Vector_143" d="M286.952 166.428H261.89V167.466H286.952V166.428Z" fill="#EBEBEB"/>
<path id="Vector_144" d="M366.554 171.348H294.11V172.386H366.554V171.348Z" fill="#EBEBEB"/>
<path id="Vector_145" d="M361.916 166.428H289.502V167.466H361.916V166.428Z" fill="#407BFF"/>
<path id="Vector_146" d="M256.892 171.348H252.65V172.386H256.892V171.348Z" fill="#EBEBEB"/>
<path id="Vector_147" d="M255.266 73.782C255.301 73.8157 255.33 73.8561 255.349 73.901C255.368 73.9459 255.378 73.9942 255.378 74.043C255.378 74.0919 255.368 74.1402 255.349 74.185C255.33 74.2299 255.301 74.2704 255.266 74.304C255.233 74.3379 255.194 74.3649 255.151 74.3834C255.108 74.402 255.061 74.4117 255.014 74.412C254.913 74.4128 254.816 74.374 254.744 74.304L253.106 72.648C253.106 72.648 253.106 72.648 253.106 72.612C253.104 72.5961 253.104 72.5799 253.106 72.564C253.106 72.564 253.106 72.534 253.106 72.528C253.106 72.522 253.106 72.528 253.106 72.498V72.456C253.106 72.456 253.106 72.456 253.106 72.42C253.106 72.384 253.106 72.42 253.106 72.39V72.318C253.106 72.318 253.106 72.288 253.106 72.27C253.115 72.2513 253.125 72.2333 253.136 72.216C253.136 72.216 253.136 72.216 253.166 72.18L254.804 70.518C254.874 70.4509 254.968 70.4135 255.065 70.4135C255.162 70.4135 255.256 70.4509 255.326 70.518C255.361 70.5517 255.39 70.5921 255.409 70.637C255.428 70.6819 255.438 70.7302 255.438 70.779C255.438 70.8279 255.428 70.8762 255.409 70.921C255.39 70.9659 255.361 71.0064 255.326 71.04L253.946 72.432L255.266 73.782Z" fill="#407BFF"/>
<path id="Vector_148" d="M256.748 73.968L258.176 70.578C258.192 70.5385 258.216 70.5026 258.247 70.4724C258.277 70.4423 258.313 70.4184 258.353 70.4022C258.392 70.3861 258.435 70.3779 258.478 70.3782C258.52 70.3785 258.563 70.3873 258.602 70.404C258.64 70.4203 258.674 70.444 258.703 70.4737C258.732 70.5034 258.755 70.5386 258.77 70.5771C258.785 70.6156 258.792 70.6567 258.791 70.6981C258.79 70.7395 258.781 70.7802 258.764 70.818L257.336 74.22C257.311 74.2773 257.27 74.3261 257.218 74.3602C257.166 74.3944 257.104 74.4124 257.042 74.412C257.002 74.4204 256.962 74.4204 256.922 74.412C256.88 74.3966 256.841 74.3723 256.809 74.3408C256.776 74.3093 256.751 74.2712 256.735 74.2292C256.718 74.1873 256.711 74.1422 256.713 74.0972C256.716 74.0522 256.727 74.0081 256.748 73.968Z" fill="#407BFF"/>
<path id="Vector_149" d="M261.578 72.6001C261.578 72.6001 261.578 72.63 261.542 72.642L259.904 74.2981C259.869 74.3325 259.828 74.3598 259.783 74.3784C259.737 74.3969 259.689 74.4063 259.64 74.406C259.568 74.4041 259.498 74.3813 259.438 74.3403C259.379 74.2993 259.333 74.2419 259.306 74.1752C259.278 74.1084 259.271 74.0351 259.285 73.9643C259.298 73.8934 259.332 73.828 259.382 73.776L260.762 72.3841L259.382 70.992C259.347 70.9584 259.318 70.9179 259.299 70.8731C259.28 70.8282 259.27 70.7799 259.27 70.731C259.27 70.6822 259.28 70.6339 259.299 70.589C259.318 70.5442 259.347 70.5037 259.382 70.4701C259.452 70.4029 259.546 70.3655 259.643 70.3655C259.74 70.3655 259.834 70.4029 259.904 70.4701L261.542 72.1321C261.542 72.1321 261.542 72.1321 261.578 72.1681C261.589 72.1855 261.599 72.2035 261.608 72.222C261.606 72.24 261.606 72.2581 261.608 72.276V72.3121C261.608 72.3121 261.608 72.312 261.608 72.342V72.4201C261.607 72.438 261.607 72.4561 261.608 72.474L261.578 72.6001Z" fill="#407BFF"/>
</g>
<g id="freepik--Icons--inject-16">
<path id="Vector_150" d="M152.544 122.742H121.95V82.782H145.014L152.544 90.312V122.742Z" fill="#407BFF"/>
<path id="Vector_151" opacity="0.6" d="M152.544 122.742H121.95V82.782H145.014L152.544 90.312V122.742Z" fill="white"/>
<path id="Vector_152" d="M152.544 90.312H145.014V82.782L152.544 90.312Z" fill="#407BFF"/>
<path id="Vector_153" d="M129.024 96.864C129.025 97.3149 129.16 97.7554 129.412 98.1297C129.663 98.504 130.02 98.7953 130.437 98.9667C130.854 99.1382 131.313 99.1822 131.755 99.093C132.197 99.0039 132.602 98.7857 132.92 98.466C133.238 98.1463 133.455 97.7394 133.541 97.2969C133.628 96.8544 133.582 96.3961 133.408 95.9799C133.234 95.5638 132.941 95.2085 132.566 94.9589C132.19 94.7094 131.749 94.5768 131.298 94.578C130.998 94.578 130.702 94.6372 130.425 94.7522C130.148 94.8673 129.897 95.0359 129.686 95.2483C129.474 95.4607 129.307 95.7128 129.194 95.9901C129.08 96.2674 129.022 96.5644 129.024 96.864Z" fill="#407BFF"/>
<path id="Vector_154" d="M132.54 106.998H148.014L140.28 97.554L132.54 106.998Z" fill="#407BFF"/>
<path id="Vector_155" d="M126.474 106.998H139.248L132.864 100.848L126.474 106.998Z" fill="#407BFF"/>
<path id="Vector_156" opacity="0.1" d="M126.474 106.998H139.248L132.864 100.848L126.474 106.998Z" fill="black"/>
<path id="Vector_157" d="M148.008 91.884H126.474V106.998H148.008V91.884Z" stroke="#407BFF" stroke-width="2" stroke-miterlimit="10"/>
<path id="Vector_158" d="M136.494 108.63H114.516V117.726H136.494V108.63Z" fill="#455A64"/>
<path id="Vector_159" d="M120.972 111.108V115.518H120.12V113.634H118.116V115.518H117.258V111.108H118.116V112.908H120.12V111.108H120.972Z" fill="white"/>
<path id="Vector_160" d="M125.184 111.858H123.774V115.518H122.928V111.858H121.518V111.108H125.184V111.858Z" fill="white"/>
<path id="Vector_161" d="M129.33 115.518V112.596L128.19 114.774H127.728L126.594 112.596V115.518H125.742V111.108H126.66L127.962 113.616L129.282 111.108H130.194V115.518H129.33Z" fill="white"/>
<path id="Vector_162" d="M131.106 115.518V111.108H131.994V114.768H134.244V115.518H131.106Z" fill="white"/>
<path id="Vector_163" d="M152.544 171.282H121.914V131.28H145.008L152.544 138.816V171.282Z" fill="#407BFF"/>
<path id="Vector_164" opacity="0.6" d="M152.544 171.282H121.914V131.28H145.008L152.544 138.816V171.282Z" fill="white"/>
<path id="Vector_165" d="M152.544 138.816H145.008V131.28L152.544 138.816Z" fill="#407BFF"/>
<path id="Vector_166" d="M128.994 145.374C128.995 145.826 129.13 146.268 129.383 146.643C129.635 147.018 129.993 147.31 130.411 147.482C130.829 147.654 131.289 147.698 131.732 147.609C132.175 147.52 132.582 147.301 132.901 146.98C133.22 146.66 133.436 146.252 133.523 145.808C133.61 145.364 133.564 144.905 133.39 144.488C133.216 144.07 132.922 143.714 132.545 143.464C132.168 143.214 131.726 143.081 131.274 143.082C130.668 143.085 130.088 143.328 129.661 143.758C129.234 144.187 128.994 144.768 128.994 145.374Z" fill="#407BFF"/>
<path id="Vector_167" d="M132.522 155.52H148.008L140.262 146.064L132.522 155.52Z" fill="#407BFF"/>
<path id="Vector_168" d="M126.45 155.52H139.236L132.84 149.364L126.45 155.52Z" fill="#407BFF"/>
<path id="Vector_169" opacity="0.1" d="M126.45 155.52H139.236L132.84 149.364L126.45 155.52Z" fill="black"/>
<path id="Vector_170" d="M148.008 140.394H126.45V155.52H148.008V140.394Z" stroke="#407BFF" stroke-width="2" stroke-miterlimit="10"/>
<path id="Vector_171" d="M136.476 157.152H114.48V166.254H136.476V157.152Z" fill="#455A64"/>
<path id="Vector_172" d="M119.676 161.808C119.677 161.536 119.725 161.265 119.82 161.01C119.916 160.749 120.06 160.509 120.246 160.302C120.44 160.092 120.672 159.921 120.93 159.798C121.218 159.667 121.532 159.602 121.848 159.606C122.218 159.596 122.584 159.689 122.904 159.876C123.186 160.04 123.415 160.282 123.564 160.572L122.904 161.028C122.811 160.806 122.643 160.624 122.43 160.512C122.336 160.46 122.235 160.422 122.13 160.398C122.029 160.379 121.927 160.369 121.824 160.368C121.629 160.363 121.435 160.407 121.26 160.494C121.107 160.581 120.973 160.697 120.864 160.836C120.755 160.977 120.673 161.138 120.624 161.31C120.512 161.663 120.512 162.043 120.624 162.396C120.683 162.569 120.772 162.729 120.888 162.87C121.002 163.007 121.143 163.119 121.302 163.2C121.463 163.285 121.642 163.328 121.824 163.326C121.929 163.326 122.034 163.313 122.136 163.29C122.243 163.265 122.346 163.225 122.442 163.17C122.544 163.118 122.636 163.046 122.712 162.96C122.798 162.871 122.867 162.768 122.916 162.654L123.618 163.056C123.547 163.221 123.443 163.37 123.312 163.494C123.183 163.624 123.036 163.733 122.874 163.818C122.706 163.903 122.529 163.97 122.346 164.016C122.168 164.061 121.984 164.083 121.8 164.082C121.5 164.085 121.204 164.017 120.936 163.884C120.682 163.755 120.454 163.58 120.264 163.368C120.073 163.153 119.923 162.905 119.82 162.636C119.719 162.372 119.67 162.091 119.676 161.808Z" fill="white"/>
<path id="Vector_173" d="M126.834 160.788C126.787 160.742 126.734 160.702 126.678 160.668C126.48 160.55 126.266 160.461 126.042 160.404C125.913 160.37 125.78 160.354 125.646 160.356C125.461 160.343 125.277 160.387 125.118 160.482C125.061 160.525 125.016 160.582 124.985 160.647C124.955 160.711 124.941 160.783 124.944 160.854C124.942 160.933 124.965 161.011 125.01 161.076C125.063 161.142 125.128 161.197 125.202 161.238C125.302 161.288 125.407 161.328 125.514 161.358C125.64 161.4 125.79 161.436 125.952 161.478C126.114 161.52 126.366 161.598 126.552 161.664C126.715 161.722 126.867 161.807 127.002 161.916C127.122 162.011 127.218 162.132 127.284 162.27C127.356 162.432 127.391 162.609 127.386 162.786C127.39 162.994 127.342 163.2 127.248 163.386C127.161 163.548 127.038 163.687 126.888 163.794C126.729 163.901 126.552 163.978 126.366 164.022C126.169 164.064 125.968 164.087 125.766 164.088C125.433 164.088 125.101 164.039 124.782 163.944C124.471 163.85 124.177 163.706 123.912 163.518L124.29 162.78C124.354 162.833 124.423 162.881 124.494 162.924C124.74 163.071 125.004 163.184 125.28 163.26C125.443 163.301 125.61 163.321 125.778 163.32C126.252 163.32 126.486 163.17 126.486 162.864C126.49 162.777 126.462 162.692 126.408 162.624C126.344 162.549 126.264 162.49 126.174 162.45C126.058 162.393 125.938 162.347 125.814 162.312L125.34 162.174C125.154 162.126 124.971 162.064 124.794 161.988C124.652 161.927 124.52 161.844 124.404 161.742C124.303 161.653 124.223 161.542 124.17 161.418C124.117 161.278 124.09 161.13 124.092 160.98C124.087 160.773 124.131 160.568 124.218 160.38C124.299 160.211 124.416 160.062 124.56 159.942C124.715 159.824 124.889 159.734 125.076 159.678C125.271 159.619 125.473 159.589 125.676 159.588C125.969 159.585 126.26 159.636 126.534 159.738C126.768 159.838 126.989 159.965 127.194 160.116L126.834 160.788Z" fill="white"/>
<path id="Vector_174" d="M130.65 160.788C130.599 160.744 130.545 160.704 130.488 160.668C130.291 160.547 130.077 160.458 129.852 160.404C129.725 160.37 129.594 160.354 129.462 160.356C129.277 160.342 129.093 160.386 128.934 160.482C128.876 160.525 128.83 160.581 128.8 160.646C128.77 160.711 128.756 160.782 128.76 160.854C128.756 160.932 128.777 161.01 128.82 161.076C128.873 161.142 128.938 161.197 129.012 161.238C129.112 161.288 129.217 161.328 129.324 161.358C129.45 161.4 129.6 161.436 129.762 161.478C129.924 161.52 130.176 161.598 130.362 161.664C130.526 161.721 130.678 161.806 130.812 161.916C130.932 162.011 131.028 162.132 131.094 162.27C131.166 162.432 131.201 162.609 131.196 162.786C131.2 162.994 131.152 163.2 131.058 163.386C130.975 163.551 130.851 163.691 130.698 163.794C130.539 163.901 130.362 163.978 130.176 164.022C129.979 164.065 129.778 164.087 129.576 164.088C129.243 164.088 128.911 164.039 128.592 163.944C128.281 163.849 127.988 163.705 127.722 163.518L128.106 162.78C128.167 162.835 128.233 162.883 128.304 162.924C128.417 162.99 128.533 163.05 128.652 163.104C128.793 163.169 128.94 163.221 129.09 163.26C129.253 163.301 129.42 163.321 129.588 163.32C130.062 163.32 130.296 163.17 130.296 162.864C130.3 162.777 130.272 162.692 130.218 162.624C130.155 162.551 130.077 162.492 129.99 162.45C129.872 162.394 129.749 162.348 129.624 162.312L129.156 162.174C128.967 162.127 128.783 162.064 128.604 161.988C128.462 161.927 128.33 161.844 128.214 161.742C128.113 161.653 128.033 161.542 127.98 161.418C127.927 161.278 127.9 161.13 127.902 160.98C127.897 160.773 127.941 160.568 128.028 160.38C128.109 160.209 128.228 160.06 128.376 159.942C128.528 159.824 128.701 159.734 128.886 159.678C129.081 159.62 129.283 159.59 129.486 159.588C129.779 159.584 130.07 159.635 130.344 159.738C130.584 159.825 130.814 159.94 131.028 160.08L130.65 160.788Z" fill="white"/>
<path id="Vector_175" d="M119.028 150.87H118.428" stroke="white" stroke-width="0.75" stroke-miterlimit="10"/>
<path id="Vector_176" d="M117.33 150.87H113.49" stroke="white" stroke-width="0.75" stroke-miterlimit="10" stroke-dasharray="1.83 1.83"/>
<path id="Vector_177" d="M112.944 150.87H112.344V150.27" stroke="white" stroke-width="0.75" stroke-miterlimit="10"/>
<path id="Vector_178" d="M112.344 149.082V97.392" stroke="white" stroke-width="0.75" stroke-miterlimit="10" stroke-dasharray="1.98 1.98"/>
<path id="Vector_179" d="M112.344 96.798V96.198H112.944" stroke="white" stroke-width="0.75" stroke-miterlimit="10"/>
<path id="Vector_180" d="M113.91 96.198H117.312" stroke="white" stroke-width="0.75" stroke-miterlimit="10" stroke-dasharray="1.62 1.62"/>
<path id="Vector_181" d="M117.792 96.198H118.392" stroke="white" stroke-width="0.75" stroke-miterlimit="10"/>
<path id="Vector_182" d="M118.998 150.192C119.132 150.192 119.263 150.232 119.375 150.306C119.486 150.381 119.573 150.487 119.624 150.611C119.676 150.734 119.689 150.871 119.663 151.002C119.637 151.134 119.572 151.255 119.477 151.349C119.383 151.444 119.262 151.509 119.13 151.535C118.999 151.561 118.862 151.548 118.739 151.496C118.615 151.445 118.509 151.358 118.434 151.247C118.36 151.135 118.32 151.004 118.32 150.87C118.322 150.691 118.393 150.519 118.52 150.392C118.647 150.266 118.819 150.194 118.998 150.192Z" fill="white"/>
<path id="Vector_183" d="M118.362 96.876C118.736 96.876 119.04 96.5725 119.04 96.198C119.04 95.8236 118.736 95.52 118.362 95.52C117.988 95.52 117.684 95.8236 117.684 96.198C117.684 96.5725 117.988 96.876 118.362 96.876Z" fill="white"/>
<path id="Vector_184" d="M112.344 123.498H105V60.9H183.492" stroke="white" stroke-width="0.75" stroke-miterlimit="10" stroke-dasharray="2 2"/>
<path id="Vector_185" d="M183.228 61.794L184.782 60.9L183.228 60V61.794Z" fill="white"/>
</g>
<g id="freepik--Window--inject-16">
<path id="Vector_186" d="M589.328 27.048H362.09V170.928H589.328V27.048Z" fill="white"/>
<path id="Vector_187" d="M589.4 171H362V27H589.4V171ZM362.162 170.85H589.25V27.12H362.162V170.85Z" fill="#263238"/>
<path id="Vector_188" d="M589.328 27.048H362.09V32.586H589.328V27.048Z" fill="#407BFF"/>
<path id="Vector_189" d="M367.298 29.814C367.299 30.0231 367.238 30.2279 367.122 30.4019C367.006 30.576 366.84 30.7114 366.647 30.7909C366.453 30.8703 366.24 30.8901 366.036 30.8478C365.831 30.8055 365.643 30.7029 365.497 30.5533C365.351 30.4037 365.253 30.2138 365.215 30.008C365.178 29.8022 365.202 29.5899 365.286 29.3983C365.37 29.2067 365.509 29.0445 365.686 28.9326C365.863 28.8206 366.069 28.764 366.278 28.77C366.551 28.7762 366.81 28.889 367.001 29.0841C367.191 29.2792 367.298 29.5412 367.298 29.814Z" fill="#C7C7C7"/>
<path id="Vector_190" d="M371.576 29.814C371.577 30.0222 371.516 30.226 371.402 30.3996C371.287 30.5732 371.123 30.7087 370.931 30.7889C370.738 30.8692 370.527 30.8905 370.323 30.8501C370.118 30.8098 369.931 30.7097 369.784 30.5625C369.636 30.4153 369.536 30.2276 369.496 30.0234C369.456 29.8192 369.477 29.6075 369.557 29.4154C369.637 29.2233 369.773 29.0594 369.946 28.9445C370.12 28.8296 370.324 28.7689 370.532 28.77C370.809 28.77 371.074 28.88 371.27 29.0758C371.466 29.2716 371.576 29.5371 371.576 29.814Z" fill="white"/>
<path id="Vector_191" d="M375.878 29.814C375.879 30.0222 375.818 30.226 375.704 30.3996C375.589 30.5732 375.425 30.7087 375.233 30.7889C375.04 30.8692 374.829 30.8905 374.625 30.8501C374.42 30.8098 374.233 30.7097 374.086 30.5625C373.938 30.4153 373.838 30.2276 373.798 30.0234C373.758 29.8192 373.779 29.6075 373.859 29.4154C373.939 29.2233 374.075 29.0594 374.248 28.9445C374.422 28.8296 374.626 28.7689 374.834 28.77C375.111 28.77 375.376 28.88 375.572 29.0758C375.768 29.2716 375.878 29.5371 375.878 29.814Z" fill="#455A64"/>
<path id="Vector_192" d="M385.352 32.58H368.552V107.214H385.352V32.58Z" fill="#EBEBEB"/>
<path id="Vector_193" d="M575.234 41.7841H376.184V59.8621H575.234V41.7841Z" fill="#407BFF"/>
<path id="Vector_194" d="M389.936 48.78H385.352V49.524H389.936V48.78Z" fill="white"/>
<path id="Vector_195" d="M389.936 52.1219H385.352V52.866H389.936V52.1219Z" fill="white"/>
<path id="Vector_196" d="M389.936 50.472H385.352V51.216H389.936V50.472Z" fill="white"/>
<path id="Vector_197" d="M444.314 48.108H400.19V53.544H444.314V48.108Z" fill="white"/>
<path id="Vector_198" d="M444.368 53.586H400.136V48.036H444.368V53.586Z" fill="white"/>
<path id="Vector_199" d="M444.368 48.048H438.818V53.598H444.368V48.048Z" fill="#455A64"/>
<path id="Vector_200" d="M443.318 52.35L442.814 52.728L441.884 51.528L441.548 51.078C441.616 51.0481 441.681 51.0099 441.74 50.964C441.854 50.8788 441.943 50.7649 441.998 50.634L442.358 51.108L443.318 52.35Z" fill="white"/>
<path id="Vector_201" d="M442.328 49.458C442.169 49.2518 441.954 49.0954 441.709 49.0071C441.464 48.9189 441.198 48.9025 440.944 48.9598C440.69 49.0172 440.457 49.146 440.274 49.331C440.091 49.516 439.964 49.7495 439.908 50.0042C439.853 50.2588 439.872 50.5239 439.962 50.7683C440.052 51.0127 440.211 51.2263 440.418 51.3838C440.626 51.5414 440.874 51.6364 441.134 51.6577C441.393 51.679 441.654 51.6257 441.884 51.504C441.952 51.4677 442.016 51.4255 442.076 51.378C442.185 51.2954 442.28 51.1962 442.358 51.084C442.529 50.8458 442.618 50.559 442.612 50.2661C442.607 49.9732 442.507 49.6898 442.328 49.458ZM441.728 50.94C441.669 50.9859 441.604 51.0242 441.536 51.054C441.352 51.1273 441.147 51.1314 440.96 51.0656C440.773 50.9998 440.616 50.8685 440.518 50.696C440.42 50.5235 440.387 50.3214 440.427 50.1269C440.466 49.9325 440.575 49.7588 440.732 49.638C440.874 49.5295 441.048 49.4704 441.227 49.4696C441.406 49.4688 441.58 49.5264 441.723 49.6336C441.866 49.7409 441.971 49.8919 442.02 50.0638C442.07 50.2356 442.062 50.419 441.998 50.586C441.946 50.7256 441.857 50.8482 441.74 50.94H441.728Z" fill="white"/>
<path id="Vector_202" d="M401.624 49.176H401.33V52.476H401.624V49.176Z" fill="#C7C7C7"/>
<path id="Vector_203" d="M566.036 49.998H546.968V51.654H566.036V49.998Z" fill="white"/>
<path id="Vector_204" d="M536.774 49.998H517.706V51.654H536.774V49.998Z" fill="white"/>
<path id="Vector_205" opacity="0.1" d="M507.512 49.998H488.444V51.654H507.512V49.998Z" fill="black"/>
<path id="Vector_206" d="M478.25 49.998H459.182V51.654H478.25V49.998Z" fill="white"/>
<path id="Vector_207" d="M589.328 116.19H362.09V134.268H589.328V116.19Z" fill="#407BFF"/>
<path id="Vector_208" d="M420.164 142.806H376.184V144.84H420.164V142.806Z" fill="#455A64"/>
<path id="Vector_209" d="M376.184 149.778L383.24 149.67L390.296 149.604L404.408 149.55L418.52 149.604L425.576 149.664L432.632 149.778L425.576 149.886L418.52 149.952L404.408 150L390.296 149.952L383.24 149.886L376.184 149.778Z" fill="#A6A6A6"/>
<path id="Vector_210" d="M376.184 152.55L383.24 152.442L390.296 152.382L404.408 152.328L418.52 152.376L425.576 152.442L432.632 152.55L425.576 152.664L418.52 152.724L404.408 152.778L390.296 152.724L383.24 152.664L376.184 152.55Z" fill="#A6A6A6"/>
<path id="Vector_211" d="M376.184 155.328L383.24 155.22L390.296 155.154L404.408 155.1L418.52 155.154L425.576 155.22L432.632 155.328L425.576 155.436L418.52 155.502L404.408 155.55L390.296 155.502L383.24 155.436L376.184 155.328Z" fill="#A6A6A6"/>
<path id="Vector_212" d="M376.184 158.1L383.24 157.992L390.296 157.932L404.408 157.878L418.52 157.932L425.576 157.992L432.632 158.1L425.576 158.214L418.52 158.274L404.408 158.328L390.296 158.274L383.24 158.214L376.184 158.1Z" fill="#A6A6A6"/>
<path id="Vector_213" d="M376.184 160.878C378.536 160.788 380.888 160.74 383.24 160.704L390.296 160.656L397.352 160.704C399.704 160.74 402.056 160.782 404.408 160.878C402.056 160.974 399.704 161.016 397.352 161.052L390.278 161.106L383.222 161.052C380.888 161.016 378.536 160.986 376.184 160.878Z" fill="#A6A6A6"/>
<path id="Vector_214" d="M491.462 142.806H447.482V144.84H491.462V142.806Z" fill="#455A64"/>
<path id="Vector_215" d="M447.482 149.778L454.538 149.67L461.594 149.604L475.706 149.55L489.818 149.604L496.874 149.664L503.93 149.778L496.874 149.886L489.818 149.952L475.706 150L461.594 149.952L454.538 149.886L447.482 149.778Z" fill="#A6A6A6"/>
<path id="Vector_216" d="M447.482 152.55L454.538 152.442L461.594 152.382L475.706 152.328L489.818 152.376L496.874 152.442L503.93 152.55L496.874 152.664L489.818 152.724L475.706 152.778L461.594 152.724L454.538 152.664L447.482 152.55Z" fill="#A6A6A6"/>
<path id="Vector_217" d="M447.482 155.328L454.538 155.22L461.594 155.154L475.706 155.1L489.818 155.154L496.874 155.22L503.93 155.328L496.874 155.436L489.818 155.502L475.706 155.55L461.594 155.502L454.538 155.436L447.482 155.328Z" fill="#A6A6A6"/>
<path id="Vector_218" d="M447.482 158.1L454.538 157.992L461.594 157.932L475.706 157.878L489.818 157.932L496.874 157.992L503.93 158.1L496.874 158.214L489.818 158.274L475.706 158.328L461.594 158.274L454.538 158.214L447.482 158.1Z" fill="#A6A6A6"/>
<path id="Vector_219" d="M447.482 160.878C449.834 160.788 452.186 160.74 454.538 160.704L461.594 160.656L468.65 160.704C471.002 160.74 473.354 160.782 475.706 160.878C473.354 160.974 471.002 161.016 468.65 161.052L461.594 161.106L454.538 161.052C452.186 161.016 449.834 160.986 447.482 160.878Z" fill="#A6A6A6"/>
<path id="Vector_220" d="M562.76 142.806H518.78V144.84H562.76V142.806Z" fill="#455A64"/>
<path id="Vector_221" d="M518.78 149.778L525.836 149.67L532.892 149.604L547.004 149.55L561.122 149.604L568.178 149.664L575.234 149.778L568.178 149.886L561.122 149.952L547.004 150L532.892 149.952L525.836 149.886L518.78 149.778Z" fill="#A6A6A6"/>
<path id="Vector_222" d="M518.78 152.55L525.836 152.442L532.892 152.382L547.004 152.328L561.122 152.376L568.178 152.442L575.234 152.55L568.178 152.664L561.122 152.724L547.004 152.778L532.892 152.724L525.836 152.664L518.78 152.55Z" fill="#A6A6A6"/>
<path id="Vector_223" d="M518.78 155.328L525.836 155.22L532.892 155.154L547.004 155.1L561.122 155.154L568.178 155.22L575.234 155.328L568.178 155.436L561.122 155.502L547.004 155.55L532.892 155.502L525.836 155.436L518.78 155.328Z" fill="#A6A6A6"/>
<path id="Vector_224" d="M518.78 158.1L525.836 157.992L532.892 157.932L547.004 157.878L561.122 157.932L568.178 157.992L575.234 158.1L568.178 158.214L561.122 158.274L547.004 158.328L532.892 158.274L525.836 158.214L518.78 158.1Z" fill="#A6A6A6"/>
<path id="Vector_225" d="M518.78 160.878C521.132 160.788 523.484 160.74 525.836 160.704L532.892 160.656L539.948 160.704C542.3 160.74 544.652 160.782 547.004 160.878C544.652 160.974 542.3 161.016 539.948 161.052L532.892 161.106L525.836 161.052C523.478 161.016 521.132 160.986 518.78 160.878Z" fill="#A6A6A6"/>
<path id="Vector_226" d="M401.21 109.476H439.67V71.016H401.21V109.476Z" fill="#EBEBEB"/>
<path id="Vector_227" d="M403.472 107.214H437.408V73.278H403.472V107.214Z" fill="#455A64"/>
<path id="Vector_228" d="M408.938 81.372C408.803 82.0463 408.889 82.7461 409.183 83.3678C409.476 83.9896 409.962 84.5005 410.568 84.8249C411.175 85.1493 411.869 85.2701 412.549 85.1693C413.229 85.0686 413.859 84.7517 414.345 84.2655C414.832 83.7793 415.149 83.1495 415.249 82.4693C415.35 81.7891 415.229 81.0946 414.905 80.4883C414.58 79.882 414.07 79.3962 413.448 79.1026C412.826 78.809 412.126 78.7233 411.452 78.858C410.832 78.982 410.262 79.2869 409.814 79.7343C409.367 80.1817 409.062 80.7516 408.938 81.372Z" fill="#37474F"/>
<path id="Vector_229" d="M412.88 98.4061H437.408L425.144 84.6541L412.88 98.4061Z" fill="#37474F"/>
<path id="Vector_230" d="M403.472 98.406H423.722L413.594 89.448L403.472 98.406Z" fill="#263238"/>
<path id="Vector_231" d="M437.408 98.406H403.472V107.214H437.408V98.406Z" fill="#263238"/>
<path id="Vector_232" d="M511.748 109.476H550.208V71.016H511.748V109.476Z" fill="#EBEBEB"/>
<path id="Vector_233" d="M514.01 107.214H547.946V73.278H514.01V107.214Z" fill="#455A64"/>
<path id="Vector_234" d="M519.476 81.372C519.342 82.0448 519.429 82.7428 519.722 83.3629C520.016 83.9829 520.501 84.4921 521.106 84.8154C521.711 85.1387 522.404 85.2588 523.082 85.1581C523.761 85.0574 524.389 84.7412 524.874 84.2561C525.359 83.771 525.675 83.1428 525.776 82.4643C525.877 81.7857 525.757 81.0928 525.433 80.4877C525.11 79.8827 524.601 79.3976 523.981 79.1042C523.361 78.8107 522.663 78.7244 521.99 78.858C521.369 78.9812 520.799 79.2859 520.351 79.7334C519.904 80.181 519.599 80.7512 519.476 81.372Z" fill="#37474F"/>
<path id="Vector_235" d="M523.418 98.4061H547.946L535.682 84.6541L523.418 98.4061Z" fill="#37474F"/>
<path id="Vector_236" d="M514.004 98.406H534.254L524.132 89.448L514.004 98.406Z" fill="#263238"/>
<path id="Vector_237" d="M547.94 98.406H514.004V107.214H547.94V98.406Z" fill="#263238"/>
<path id="Vector_238" d="M456.47 109.476H494.936V71.016H456.47V109.476Z" fill="#EBEBEB"/>
<path id="Vector_239" d="M458.738 107.214H492.674V73.278H458.738V107.214Z" fill="#407BFF"/>
<path id="Vector_240" opacity="0.1" d="M464.204 81.372C464.069 82.0463 464.155 82.7461 464.449 83.3678C464.742 83.9896 465.228 84.5005 465.834 84.8249C466.441 85.1493 467.135 85.2701 467.815 85.1693C468.495 85.0686 469.125 84.7517 469.611 84.2655C470.098 83.7793 470.415 83.1495 470.515 82.4693C470.616 81.7891 470.495 81.0946 470.171 80.4883C469.846 79.882 469.336 79.3962 468.714 79.1026C468.092 78.809 467.392 78.7233 466.718 78.858C466.098 78.982 465.528 79.2869 465.08 79.7343C464.633 80.1817 464.328 80.7516 464.204 81.372Z" fill="black"/>
<path id="Vector_241" opacity="0.1" d="M468.146 98.4061H492.674L480.41 84.6541L468.146 98.4061Z" fill="black"/>
<path id="Vector_242" d="M458.738 98.406H478.988L468.866 89.448L458.738 98.406Z" fill="#407BFF"/>
<g id="Group" opacity="0.2">
<path id="Vector_243" d="M458.738 98.406H478.988L468.866 89.448L458.738 98.406Z" fill="black"/>
</g>
<path id="Vector_244" d="M492.674 98.406H458.738V107.214H492.674V98.406Z" fill="#407BFF"/>
<path id="Vector_245" opacity="0.2" d="M492.674 98.406H458.738V107.214H492.674V98.406Z" fill="black"/>
<path id="Vector_246" d="M403.472 121.068L412.862 120.96L422.252 120.894L441.038 120.84L459.818 120.894L469.208 120.954L478.604 121.068L469.208 121.176L459.818 121.242L441.038 121.29L422.252 121.242L412.862 121.176L403.472 121.068Z" fill="white"/>
<path id="Vector_247" d="M403.472 123.84L412.862 123.732L422.252 123.672L441.038 123.618L459.818 123.672L469.208 123.732L478.604 123.84L469.208 123.954L459.818 124.014L441.038 124.068L422.252 124.014L412.862 123.954L403.472 123.84Z" fill="white"/>
<path id="Vector_248" d="M403.472 126.618L412.862 126.51L422.252 126.444L441.038 126.396L459.818 126.444L469.208 126.51L478.604 126.618L469.208 126.726L459.818 126.792L441.038 126.84L422.252 126.792L412.862 126.726L403.472 126.618Z" fill="white"/>
<path id="Vector_249" d="M403.478 129.396C406.604 129.3 409.736 129.258 412.868 129.222L422.258 129.168L431.648 129.222C434.78 129.258 437.912 129.3 441.044 129.396C437.912 129.486 434.78 129.528 431.648 129.564L422.258 129.618L412.868 129.564C409.73 129.528 406.598 129.486 403.478 129.396Z" fill="white"/>
<path id="Vector_250" d="M378.926 127.986V122.478L376.25 125.034L378.926 127.986Z" fill="white"/>
<path id="Vector_251" d="M572.63 122.478V127.986L575.306 125.43L572.63 122.478Z" fill="white"/>
</g>
<g id="freepik--Gears--inject-16">
<path id="Vector_252" d="M619.798 46.704C619.798 49.0124 620.483 51.2689 621.765 53.1882C623.048 55.1074 624.871 56.6032 627.003 57.4863C629.136 58.3694 631.483 58.6001 633.747 58.1494C636.011 57.6986 638.09 56.5865 639.722 54.9538C641.354 53.3212 642.465 51.2412 642.914 48.9771C643.364 46.7129 643.132 44.3663 642.248 42.234C641.364 40.1016 639.867 38.2795 637.947 36.9979C636.027 35.7163 633.77 35.0328 631.462 35.034C628.369 35.0388 625.404 36.27 623.217 38.4577C621.031 40.6454 619.801 43.611 619.798 46.704ZM622.282 46.704C622.281 44.8867 622.819 43.1099 623.828 41.5983C624.837 40.0868 626.271 38.9084 627.95 38.2124C629.629 37.5164 631.476 37.334 633.259 37.6882C635.041 38.0425 636.678 38.9175 637.963 40.2026C639.249 41.4876 640.124 43.1249 640.478 44.9074C640.832 46.6899 640.65 48.5374 639.954 50.2161C639.258 51.8949 638.079 53.3295 636.568 54.3384C635.056 55.3473 633.279 55.8852 631.462 55.884C629.027 55.884 626.692 54.9169 624.971 53.1953C623.249 51.4737 622.282 49.1387 622.282 46.704ZM619.798 46.704C619.798 49.0124 620.483 51.2689 621.765 53.1882C623.048 55.1074 624.871 56.6032 627.003 57.4863C629.136 58.3694 631.483 58.6001 633.747 58.1494C636.011 57.6986 638.09 56.5865 639.722 54.9538C641.354 53.3212 642.465 51.2412 642.914 48.9771C643.364 46.7129 643.132 44.3663 642.248 42.234C641.364 40.1016 639.867 38.2795 637.947 36.9979C636.027 35.7163 633.77 35.0328 631.462 35.034C628.369 35.0388 625.404 36.27 623.217 38.4577C621.031 40.6454 619.801 43.611 619.798 46.704ZM622.282 46.704C622.281 44.8867 622.819 43.1099 623.828 41.5983C624.837 40.0868 626.271 38.9084 627.95 38.2124C629.629 37.5164 631.476 37.334 633.259 37.6882C635.041 38.0425 636.678 38.9175 637.963 40.2026C639.249 41.4876 640.124 43.1249 640.478 44.9074C640.832 46.6899 640.65 48.5374 639.954 50.2161C639.258 51.8949 638.079 53.3295 636.568 54.3384C635.056 55.3473 633.279 55.8852 631.462 55.884C629.027 55.884 626.692 54.9169 624.971 53.1953C623.249 51.4737 622.282 49.1387 622.282 46.704ZM611.8 46.704C611.801 50.594 612.956 54.3962 615.118 57.63C617.28 60.8637 620.353 63.3837 623.947 64.8712C627.541 66.3587 631.496 66.747 635.311 65.9869C639.126 65.2269 642.63 63.3526 645.38 60.6012C648.129 57.8497 650.002 54.3446 650.759 50.5292C651.517 46.7137 651.126 42.7593 649.637 39.1659C648.147 35.5725 645.625 32.5015 642.39 30.3414C639.155 28.1812 635.352 27.0288 631.462 27.03C628.879 27.03 626.321 27.539 623.935 28.5279C621.549 29.5167 619.381 30.9661 617.555 32.7931C615.729 34.6202 614.281 36.7891 613.293 39.176C612.306 41.5629 611.798 44.121 611.8 46.704ZM618.682 46.704C618.682 44.1749 619.432 41.7027 620.837 39.5999C622.242 37.4971 624.24 35.8583 626.576 34.8907C628.913 33.9232 631.484 33.6703 633.965 34.1641C636.445 34.658 638.723 35.8763 640.511 37.6651C642.299 39.4538 643.516 41.7326 644.009 44.2133C644.502 46.6939 644.248 49.265 643.279 51.6012C642.31 53.9374 640.671 55.9339 638.567 57.3381C636.464 58.7423 633.991 59.4912 631.462 59.49C628.073 59.4837 624.826 58.1344 622.43 55.7377C620.035 53.3411 618.687 50.0926 618.682 46.704ZM619.798 46.704C619.798 49.0124 620.483 51.2689 621.765 53.1882C623.048 55.1074 624.871 56.6032 627.003 57.4863C629.136 58.3694 631.483 58.6001 633.747 58.1494C636.011 57.6986 638.09 56.5865 639.722 54.9538C641.354 53.3212 642.465 51.2412 642.914 48.9771C643.364 46.7129 643.132 44.3663 642.248 42.234C641.364 40.1016 639.867 38.2795 637.947 36.9979C636.027 35.7163 633.77 35.0328 631.462 35.034C628.369 35.0388 625.404 36.27 623.217 38.4577C621.031 40.6454 619.801 43.611 619.798 46.704ZM622.282 46.704C622.281 44.8867 622.819 43.1099 623.828 41.5983C624.837 40.0868 626.271 38.9084 627.95 38.2124C629.629 37.5164 631.476 37.334 633.259 37.6882C635.041 38.0425 636.678 38.9175 637.963 40.2026C639.249 41.4876 640.124 43.1249 640.478 44.9074C640.832 46.6899 640.65 48.5374 639.954 50.2161C639.258 51.8949 638.079 53.3295 636.568 54.3384C635.056 55.3473 633.279 55.8852 631.462 55.884C629.027 55.884 626.692 54.9169 624.971 53.1953C623.249 51.4737 622.282 49.1387 622.282 46.704Z" fill="#407BFF"/>
<path id="Vector_253" d="M629.158 27.39H633.658L633.208 22.896H629.602L629.158 27.39Z" fill="#407BFF"/>
<path id="Vector_254" d="M639.124 28.824L643.024 31.074L644.878 26.958L641.758 25.152L639.124 28.824Z" fill="#407BFF"/>
<path id="Vector_255" d="M647.038 35.046L649.288 38.946L652.954 36.306L651.154 33.186L647.038 35.046Z" fill="#407BFF"/>
<path id="Vector_256" d="M650.776 44.3879V48.8939L655.27 48.4439V44.8379L650.776 44.3879Z" fill="#407BFF"/>
<path id="Vector_257" d="M649.348 54.354L647.092 58.254L651.208 60.114L653.014 56.994L649.348 54.354Z" fill="#407BFF"/>
<path id="Vector_258" d="M643.12 62.2679L639.22 64.5239L641.86 68.1899L644.98 66.3839L643.12 62.2679Z" fill="#407BFF"/>
<path id="Vector_259" d="M633.778 66.012H629.272L629.722 70.506H633.328L633.778 66.012Z" fill="#407BFF"/>
<path id="Vector_260" d="M623.812 64.578L619.912 62.328L618.052 66.444L621.178 68.25L623.812 64.578Z" fill="#407BFF"/>
<path id="Vector_261" d="M615.898 58.3561L613.642 54.4561L609.976 57.0901L611.782 60.2161L615.898 58.3561Z" fill="#407BFF"/>
<path id="Vector_262" d="M612.154 49.0081V44.5081L607.66 44.9581V48.5641L612.154 49.0081Z" fill="#407BFF"/>
<path id="Vector_263" d="M613.588 39.048L615.838 35.148L611.722 33.288L609.916 36.408L613.588 39.048Z" fill="#407BFF"/>
<path id="Vector_264" d="M619.81 31.128L623.71 28.878L621.076 25.212L617.95 27.012L619.81 31.128Z" fill="#407BFF"/>
<path id="Vector_265" d="M582.382 28.836C582.322 31.0996 582.935 33.33 584.143 35.2453C585.351 37.1605 587.1 38.6745 589.168 39.5958C591.237 40.517 593.532 40.8042 595.764 40.4209C597.996 40.0376 600.063 39.0011 601.706 37.4424C603.349 35.8838 604.492 33.8731 604.992 31.6645C605.491 29.456 605.325 27.1488 604.513 25.0349C603.702 22.921 602.282 21.0952 600.432 19.7885C598.583 18.4818 596.388 17.7529 594.124 17.694C592.621 17.6541 591.125 17.9106 589.722 18.4491C588.318 18.9875 587.035 19.7972 585.944 20.8319C584.854 21.8667 583.978 23.1061 583.367 24.4795C582.755 25.8529 582.421 27.3332 582.382 28.836ZM588.478 28.998C588.506 27.9409 588.846 26.9158 589.457 26.0523C590.067 25.1887 590.92 24.5256 591.907 24.1468C592.894 23.7679 593.971 23.6903 595.003 23.9239C596.034 24.1574 596.973 24.6915 597.701 25.4587C598.428 26.2259 598.912 27.1917 599.091 28.2339C599.27 29.2761 599.136 30.3479 598.705 31.3138C598.275 32.2797 597.568 33.0962 596.673 33.6602C595.779 34.2241 594.737 34.5101 593.68 34.482C592.263 34.4443 590.919 33.8454 589.944 32.817C588.968 31.7886 588.441 30.4149 588.478 28.998Z" fill="#EBEBEB"/>
<path id="Vector_266" d="M591.916 18.108L596.314 18.228L596.152 15.108L592.24 15L591.916 18.108Z" fill="#EBEBEB"/>
<path id="Vector_267" d="M600.25 19.812L603.28 23.01L605.374 20.688L602.68 17.85L600.25 19.812Z" fill="#EBEBEB"/>
<path id="Vector_268" d="M604.942 26.916L604.822 31.314L607.942 31.152L608.05 27.24L604.942 26.916Z" fill="#EBEBEB"/>
<path id="Vector_269" d="M603.238 35.25L600.04 38.28L602.362 40.374L605.206 37.68L603.238 35.25Z" fill="#EBEBEB"/>
<path id="Vector_270" d="M596.134 39.942L591.736 39.822L591.898 42.948L595.81 43.05L596.134 39.942Z" fill="#EBEBEB"/>
<path id="Vector_271" d="M587.8 38.238L584.77 35.04L582.676 37.362L585.37 40.206L587.8 38.238Z" fill="#EBEBEB"/>
<path id="Vector_272" d="M583.108 31.134L583.228 26.736L580.108 26.898L580 30.81L583.108 31.134Z" fill="#EBEBEB"/>
<path id="Vector_273" d="M584.812 22.8L588.01 19.77L585.688 17.676L582.844 20.376L584.812 22.8Z" fill="#EBEBEB"/>
<path id="Vector_274" d="M596.866 26.334L593.11 25.218L590.272 27.912L591.196 31.716L594.946 32.832L597.796 30.138L596.866 26.334ZM593.992 30.264C593.746 30.2579 593.507 30.1789 593.306 30.0369C593.105 29.895 592.951 29.6965 592.863 29.4666C592.775 29.2368 592.757 28.986 592.812 28.7461C592.867 28.5061 592.991 28.2879 593.17 28.119C593.349 27.9501 593.575 27.8382 593.817 27.7975C594.06 27.7568 594.309 27.7891 594.534 27.8904C594.758 27.9916 594.947 28.1573 595.077 28.3662C595.207 28.5752 595.272 28.818 595.264 29.064C595.253 29.3913 595.113 29.7011 594.875 29.9258C594.637 30.1506 594.319 30.2721 593.992 30.264Z" fill="#EBEBEB"/>
<path id="Vector_275" d="M631.408 19.728V16.59H702.274V28.56" stroke="#263238" stroke-width="0.75" stroke-miterlimit="10" stroke-dasharray="2 2"/>
<path id="Vector_276" d="M701.374 28.302L702.274 29.856L703.168 28.302H701.374Z" fill="#263238"/>
</g>
<g id="freepik--Plant--inject-16">
<path id="Vector_277" d="M620.773 143.506C621.358 145.646 621.745 147.835 621.931 150.046C621.871 150.154 621.883 150.562 621.931 150.448C621.931 150.808 622.489 150.742 622.489 150.388C622.489 150.16 622.489 149.926 622.489 149.704C623.767 148.114 625.627 147.112 627.121 145.732C628.329 144.651 629.209 143.251 629.659 141.694C630.907 137.41 629.737 132.868 631.237 128.59C632.527 124.906 634.837 121.702 636.793 118.36C638.857 114.832 640.393 111.118 640.537 106.96C640.657 103.792 640.279 99.5738 637.867 97.1978C635.311 94.6838 632.143 96.5678 630.181 98.8118C624.505 105.328 621.877 113.56 620.815 121.978C620.215 126.64 619.615 131.326 619.765 136.03C619.852 138.549 620.19 141.053 620.773 143.506Z" fill="#407BFF"/>
<path id="Vector_278" d="M621.901 151.756C621.59 147.359 621.642 142.944 622.057 138.556C622.057 138.556 622.057 138.556 622.057 138.508C621.985 134.944 621.703 131.386 621.841 127.816C622.016 123.952 622.542 120.112 623.413 116.344C623.413 116.302 623.491 116.344 623.485 116.344C622.787 120.047 622.371 123.798 622.243 127.564C622.171 129.58 622.183 131.596 622.291 133.606C622.327 134.266 622.387 134.926 622.429 135.586C623.914 125.57 627.533 115.989 633.043 107.494C633.121 107.38 633.325 107.494 633.253 107.62C629.315 114.076 626.4 121.103 624.613 128.452C627.343 123.394 631.465 119.23 634.525 114.37C634.525 114.37 634.585 114.37 634.573 114.4C631.825 119.8 627.283 124.078 624.373 129.4C623.869 131.578 623.455 133.768 623.173 136C622.762 139.013 622.538 142.049 622.501 145.09C624.163 141.982 625.885 139.012 627.247 135.724C627.283 135.64 627.409 135.694 627.379 135.784C626.221 139.198 624.667 142.876 622.489 145.786C622.489 147.952 622.543 150.112 622.669 152.272C623.011 158.032 623.995 163.72 624.469 169.462C624.469 169.497 624.455 169.53 624.43 169.555C624.406 169.58 624.372 169.594 624.337 169.594C624.302 169.594 624.268 169.58 624.244 169.555C624.219 169.53 624.205 169.497 624.205 169.462C623.035 163.619 622.265 157.703 621.901 151.756Z" fill="#263238"/>
<path id="Vector_279" d="M628.027 107.29C628.027 107.248 628.105 107.29 628.087 107.29C627.037 110.2 626.443 113.152 625.687 116.134C625.682 116.162 625.666 116.188 625.643 116.205C625.619 116.222 625.59 116.229 625.561 116.224C625.532 116.219 625.507 116.203 625.49 116.179C625.473 116.156 625.466 116.126 625.471 116.098C625.771 113.122 626.857 110.104 628.027 107.29Z" fill="#263238"/>
<path id="Vector_280" d="M601.297 119.512C601.994 121.218 602.795 122.879 603.697 124.486C605.593 127.93 607.573 131.086 607.897 135.088C607.961 136.882 608.216 138.664 608.659 140.404C609.162 141.884 609.875 143.285 610.777 144.562C612.835 147.562 615.403 150.13 617.305 153.238C619.302 156.472 620.782 159.999 621.691 163.69C621.733 163.894 622.051 163.84 622.003 163.636C622.003 163.636 622.003 163.606 622.003 163.594C622.006 163.58 622.006 163.566 622.003 163.552C622.303 154.954 621.619 146.296 619.003 138.064C617.845 134.444 616.454 130.903 614.839 127.462C613.519 124.42 611.608 121.671 609.217 119.374C607.615 117.934 604.147 115.204 601.873 116.65C600.787 117.346 600.865 118.444 601.297 119.512Z" fill="#407BFF"/>
<path id="Vector_281" d="M609.931 138.994C611.446 141.495 613.115 143.9 614.929 146.194C615.757 147.28 616.603 148.354 617.437 149.446C617.827 149.956 618.265 150.472 618.637 151.024C618.409 150.118 618.193 149.224 617.959 148.312C616.849 143.968 615.787 139.588 614.131 135.412C612.442 131.368 610.449 127.459 608.167 123.718C608.107 123.616 608.269 123.544 608.329 123.64C610.129 126.64 611.989 129.61 613.513 132.76C614.356 134.513 615.091 136.317 615.715 138.16C615.015 134.243 614.036 130.381 612.787 126.604C612.787 126.568 612.823 126.544 612.835 126.604C614.473 130.419 615.5 134.469 615.877 138.604C616.249 139.72 616.593 140.846 616.909 141.982C618.265 146.782 619.453 151.648 620.557 156.52C620.575 153.317 620.298 150.12 619.729 146.968C619.729 146.89 619.819 146.878 619.837 146.968C620.677 150.256 620.959 153.661 620.671 157.042C621.085 158.896 621.493 160.756 621.871 162.61C622.711 166.57 623.749 170.602 624.271 174.61C624.266 174.628 624.256 174.643 624.241 174.654C624.226 174.666 624.208 174.672 624.19 174.672C624.172 174.672 624.154 174.666 624.139 174.654C624.124 174.643 624.114 174.628 624.109 174.61C623.509 172.444 623.167 170.194 622.681 168.01C622.195 165.826 621.703 163.612 621.187 161.41C620.443 158.21 619.669 155.01 618.865 151.81C618.331 150.64 617.305 149.602 616.531 148.624C615.685 147.55 614.839 146.476 614.017 145.384C612.471 143.363 611.089 141.222 609.883 138.982C609.835 138.982 609.901 138.952 609.931 138.994Z" fill="#263238"/>
<path id="Vector_282" d="M609.565 135.322C611.458 137.735 613.096 140.337 614.455 143.086C614.455 143.122 614.419 143.158 614.395 143.122C612.751 140.548 611.131 137.95 609.493 135.37C609.463 135.328 609.535 135.28 609.565 135.322Z" fill="#263238"/>
<path id="Vector_283" d="M646.147 127.69C645.037 129.61 643.747 131.89 644.245 134.218C644.545 135.676 645.613 136.858 645.805 138.346C646.237 141.628 642.967 143.794 640.597 145.348C634.699 149.218 626.605 152.668 625.531 160.576C625.489 160.858 625.009 160.786 625.045 160.51C625.045 160.51 625.045 160.51 625.045 160.462C625.045 160.414 625.045 160.462 625.045 160.414C624.268 156.422 624.304 152.313 625.153 148.336C626.035 144.262 627.811 140.602 629.911 137.02C633.463 130.96 637.225 124.756 642.595 120.118C644.083 118.834 647.125 116.518 648.307 119.422C649.489 122.326 647.515 125.326 646.147 127.69Z" fill="#407BFF"/>
<path id="Vector_284" d="M640.747 140.506C636.835 144.742 630.619 147.106 627.247 151.858C629.128 144.636 632.684 137.96 637.627 132.37C637.753 132.226 637.549 132.016 637.411 132.154C633.808 135.655 630.926 139.827 628.927 144.436C629.86 141.22 631.083 138.095 632.581 135.1C632.635 134.986 632.473 134.884 632.407 134.998C630.56 138.268 629.242 141.81 628.501 145.492C624.067 156.232 623.653 168.832 624.583 180.154C624.589 180.183 624.606 180.21 624.629 180.229C624.653 180.247 624.682 180.258 624.712 180.258C624.742 180.258 624.771 180.247 624.795 180.229C624.818 180.21 624.835 180.183 624.841 180.154C624.583 171.232 624.727 162.154 626.869 153.442C626.911 153.256 626.959 153.076 627.007 152.896C630.673 147.79 636.865 145.426 640.849 140.572C640.855 140.53 640.789 140.458 640.747 140.506Z" fill="#263238"/>
<path id="Vector_285" d="M641.653 136.87C639.601 138.754 637.579 140.68 635.521 142.564C635.521 142.564 635.521 142.618 635.521 142.6C637.851 141.032 639.948 139.144 641.749 136.99C641.754 136.975 641.756 136.96 641.753 136.944C641.751 136.929 641.744 136.915 641.735 136.903C641.725 136.891 641.713 136.881 641.698 136.876C641.684 136.87 641.668 136.868 641.653 136.87Z" fill="#263238"/>
<path id="Vector_286" d="M641.983 128.704C640.166 131.684 638.109 134.512 635.833 137.158C635.83 137.161 635.827 137.166 635.826 137.17C635.824 137.174 635.824 137.179 635.824 137.184C635.824 137.189 635.825 137.193 635.828 137.198C635.83 137.202 635.832 137.206 635.836 137.209C635.84 137.212 635.844 137.214 635.848 137.216C635.853 137.218 635.857 137.218 635.862 137.218C635.867 137.218 635.872 137.216 635.876 137.214C635.88 137.212 635.884 137.209 635.887 137.206C638.439 134.784 640.539 131.927 642.091 128.77C642.127 128.698 642.025 128.632 641.983 128.704Z" fill="#263238"/>
<path id="Vector_287" d="M632.731 188.14H614.743L617.167 163.936H629.965L632.731 188.14Z" fill="#455A64"/>
<path id="Vector_288" d="M630.415 167.872H616.771L617.167 163.936H629.965L630.415 167.872Z" fill="#263238"/>
<path id="Vector_289" d="M632.167 161.254H615.307V165.118H632.167V161.254Z" fill="#455A64"/>
</g>
<g id="Group 3">
<path id="elpwspc4j0h3g" d="M167.093 52H145.68C144.969 52 144.288 51.7177 143.785 51.215C143.282 50.7124 143 50.0307 143 49.3198V19.6993C143 18.9885 143.282 18.3068 143.785 17.8042C144.288 17.3015 144.969 17.0192 145.68 17.0192H159.258L169.768 27.8545V49.3533C169.76 50.0575 169.474 50.7299 168.973 51.2252C168.473 51.7205 167.797 51.9988 167.093 52Z" fill="#407BFF"/>
<g id="el9fo0pozn01w">
<g id="Group_2" opacity="0.2">
<path id="elnij0b5e94ke" d="M143 41.3795H169.754V48.068C169.754 49.1083 169.341 50.106 168.605 50.8415C167.87 51.5771 166.872 51.9904 165.832 51.9904H146.865C145.84 51.9904 144.857 51.5832 144.132 50.8583C143.407 50.1335 143 49.1504 143 48.1253V41.3795Z" fill="black"/>
</g>
</g>
<path id="elbvyuo7yddp" d="M152.488 48.2305L153.162 47.4232C153.262 47.5892 153.402 47.7282 153.569 47.8281C153.735 47.928 153.923 47.9858 154.117 47.9965C154.595 47.9965 154.863 47.705 154.863 47.1317V44.6379H153.033V43.6824H156.081V47.0792C156.081 48.3739 155.426 49.0141 154.194 49.0141C153.868 49.0234 153.545 48.9576 153.249 48.8217C152.954 48.6858 152.693 48.4835 152.488 48.2305Z" fill="#FAFAFA"/>
<path id="elcjtohg4ue39" d="M156.802 48.5267L157.194 47.6907C157.617 47.9455 158.1 48.0809 158.594 48.0824C159.134 48.0824 159.334 47.9391 159.334 47.7146C159.334 47.0553 156.903 47.7146 156.903 46.1189C156.903 45.3545 157.591 44.8146 158.766 44.8146C159.303 44.805 159.834 44.9263 160.314 45.1682L159.927 45.9994C159.573 45.7988 159.172 45.6949 158.766 45.6985C158.24 45.6985 158.016 45.8657 158.016 46.0759C158.016 46.7638 160.447 46.0759 160.447 47.6811C160.447 48.4312 159.755 48.9615 158.536 48.9615C157.93 48.9711 157.332 48.8211 156.802 48.5267Z" fill="#FAFAFA"/>
<path id="elk92agrjk9j" d="M148.671 35.8043L149.512 34.8201C149.735 35.18 150.046 35.4778 150.415 35.6857C150.784 35.8936 151.2 36.0051 151.623 36.0097C152.765 36.0097 153.362 35.3122 153.362 33.9554V28.2797H149.698V27.0184H154.791V33.898C154.791 36.153 153.692 37.2662 151.623 37.2662C151.049 37.2809 150.481 37.1555 149.966 36.9007C149.452 36.646 149.007 36.2696 148.671 35.8043Z" fill="#FAFAFA"/>
<path id="elmqfvxeoxxl" d="M156.573 36.3394L157.156 35.2406C157.956 35.7621 158.89 36.0394 159.845 36.0384C161.135 36.0384 161.67 35.6466 161.67 34.9969C161.67 33.2722 156.821 34.7628 156.821 31.71C156.821 30.3341 158.049 29.4072 160.017 29.4072C161.001 29.3878 161.971 29.6284 162.831 30.1047L162.239 31.2036C161.575 30.7888 160.805 30.5778 160.022 30.5968C158.809 30.5968 158.216 31.0459 158.216 31.6527C158.216 33.4633 163.08 31.9871 163.08 34.9682C163.08 36.3585 161.804 37.2376 159.764 37.2376C158.634 37.2727 157.519 36.9591 156.573 36.3394Z" fill="#FAFAFA"/>
<g id="el643jgy6fucf">
<g id="Group_3" opacity="0.3">
<path id="elpb66pz0yk7b" d="M159.258 17V25.3415C159.258 26.0029 159.521 26.6372 159.988 27.1049C160.456 27.5726 161.09 27.8354 161.752 27.8354H169.773L159.258 17Z" fill="white"/>
</g>
</g>
<g id="elsrhhdtm8pwo">
<g id="Group_4" opacity="0.2">
<path id="elxha5d9okwg8" d="M159.368 26.0725C159.373 26.7042 159.593 27.3153 159.993 27.8044C160.393 28.2936 160.947 28.6316 161.565 28.7622L161.828 28.8243C162.874 29.0107 169.773 30.2576 169.773 30.076V27.8354H161.752C161.752 27.8354 159.75 27.7685 159.368 26.0725Z" fill="black"/>
</g>
</g>
</g>
</g>
<defs>
<clipPath id="clip0_1407_1069">
<rect width="750" height="180" fill="white"/>
</clipPath>
</defs>
</svg>
