<svg width="1980" height="476" viewBox="0 0 1980 476" fill="none" xmlns="http://www.w3.org/2000/svg">
<g id="Frame 1" clip-path="url(#clip0_1407_1069)">
<rect width="1980" height="475.2" fill="#263238"/>
<g id="freepik--background-complete--inject-16">
<path id="Vector" d="M908.656 71.3644L887.874 71.8079L877.325 71.9821C873.793 72.0613 870.244 71.9822 866.712 72.0772H866.015V71.3644L865.92 53.5919V52.7999H866.712L887.684 52.895C894.685 52.895 901.671 53.0692 908.656 53.1484H909.1V53.5919C909.1 56.6015 908.973 59.5953 908.894 62.5574L908.656 71.3644ZM908.656 71.3644L908.435 62.4148C908.355 59.4686 908.26 56.554 908.229 53.6394L908.656 54.083C901.671 54.1622 894.685 54.3364 887.684 54.3364L866.712 54.4314L867.504 53.6394V71.3644L866.791 70.6674C870.244 70.6674 873.697 70.6674 877.166 70.7466L887.478 71.0159L908.656 71.3644Z" fill="#EBEBEB"/>
<path id="Vector_2" d="M887.441 81.8769L866.659 82.3204L856.094 82.4947C852.577 82.4947 849.029 82.4947 845.497 82.5897H844.8V81.8769V64.152V63.36H845.592L866.564 63.4708C873.55 63.4708 880.551 63.6451 887.536 63.7243H887.98V64.152C887.98 67.1616 887.853 70.1553 887.774 73.1174L887.441 81.8769ZM887.441 81.8769L887.22 72.9273C887.14 69.9811 887.045 67.0665 887.014 64.152L887.441 64.5955C880.456 64.6747 873.455 64.8489 866.469 64.8489L845.497 64.944L846.289 64.152V81.8769L845.576 81.18C849.029 81.18 852.482 81.18 855.951 81.2592L866.358 81.4492L887.441 81.8769Z" fill="#EBEBEB"/>
<path id="Vector_3" d="M636.736 31.7169L615.954 32.1604L605.405 32.3346C601.873 32.3346 598.324 32.3346 594.792 32.4297H594.095V31.7169L594 13.992V13.2H594.792L615.764 13.3108C622.766 13.3108 629.751 13.485 636.736 13.5642H637.18V13.992C637.18 17.0016 637.037 19.9953 636.974 22.9573L636.736 31.7169ZM636.736 31.7169L636.515 22.7673C636.515 19.821 636.34 16.9065 636.309 13.992L636.736 14.4355C629.751 14.5147 622.766 14.6889 615.764 14.6889L594.792 14.784L595.584 13.992V31.7169L594.871 31.02C598.34 31.02 601.778 31.0199 605.246 31.0991L615.669 31.2892L636.736 31.7169Z" fill="#EBEBEB"/>
<path id="Vector_4" d="M1874.9 258.852L1854.11 259.296L1843.56 259.47C1840.03 259.47 1836.48 259.47 1832.95 259.47H1832.25V258.757L1832.16 241.032V240.24H1832.95L1853.92 240.335C1860.93 240.335 1867.91 240.509 1874.9 240.588H1875.34V241.016C1875.34 244.026 1875.2 247.004 1875.12 249.966L1874.9 258.852ZM1874.9 258.852L1874.67 249.887C1874.67 246.94 1874.5 244.026 1874.47 241.127L1874.9 241.555C1867.91 241.555 1860.93 241.808 1853.92 241.808L1832.95 241.919L1833.74 241.127L1833.66 258.852L1832.95 258.139C1836.41 258.139 1839.86 258.139 1843.33 258.234L1853.75 258.408L1874.9 258.852Z" fill="#EBEBEB"/>
<path id="Vector_5" d="M1663.73 221.781L1642.95 222.225L1632.38 222.399C1628.86 222.399 1625.32 222.399 1621.78 222.478H1621.09V221.765L1620.96 204.072V203.28H1621.75L1642.72 203.375C1649.71 203.375 1656.71 203.549 1663.7 203.628H1664.14V204.072C1664.14 207.082 1664.01 210.059 1663.93 213.021L1663.73 221.781ZM1663.73 221.781L1663.51 212.816C1663.43 209.869 1663.33 206.955 1663.3 204.056L1663.73 204.484C1656.74 204.563 1649.74 204.737 1642.76 204.737L1621.78 204.848L1622.58 204.056L1622.54 221.781L1621.83 221.068C1625.28 221.068 1628.74 221.068 1632.21 221.163L1642.61 221.337L1663.73 221.781Z" fill="#EBEBEB"/>
<path id="Vector_6" d="M1803.62 372.261L1782.83 372.705L1772.28 372.879C1768.75 372.879 1765.22 372.879 1761.67 372.958H1760.98V372.245L1760.88 354.552V353.76H1761.67L1782.64 353.855C1789.65 353.855 1796.63 354.029 1803.62 354.108H1804.06V354.552C1804.06 357.562 1803.92 360.54 1803.85 363.502L1803.62 372.261ZM1803.62 372.261L1803.39 363.296C1803.39 360.349 1803.22 357.435 1803.19 354.536L1803.62 354.964C1796.63 355.043 1789.65 355.217 1782.64 355.217L1761.67 355.328L1762.46 354.536L1762.38 372.261L1761.67 371.548C1765.14 371.548 1768.58 371.548 1772.05 371.643L1782.47 371.818L1803.62 372.261Z" fill="#EBEBEB"/>
<path id="Vector_7" d="M198.338 293.093L177.556 293.536L166.991 293.71C163.474 293.71 159.926 293.71 156.394 293.79H155.76V293.077V275.352V274.56H156.552L177.524 274.655C184.51 274.655 191.511 274.829 198.496 274.908H198.94V275.336C198.94 278.346 198.813 281.324 198.734 284.286L198.338 293.093ZM198.338 293.093L198.116 284.127C198.116 281.181 197.942 278.266 197.91 275.368L198.338 275.795C191.352 275.875 184.351 276.049 177.366 276.049L156.394 276.16L157.186 275.368L157.106 293.093L156.394 292.38C159.847 292.38 163.3 292.38 166.769 292.475L177.176 292.649L198.338 293.093Z" fill="#EBEBEB"/>
<path id="Vector_8" d="M1460.42 50.2127L1439.63 50.6562L1429.08 50.8305C1425.55 50.9097 1422 50.8305 1418.47 50.9097H1417.77V50.1969L1417.68 32.4719V31.6799H1418.47L1439.44 31.775C1446.45 31.775 1453.43 31.965 1460.42 32.0442H1460.86V32.4719C1460.86 35.4815 1460.73 38.4753 1460.65 41.4215L1460.42 50.2127ZM1460.42 50.2127L1460.19 41.2631C1460.12 38.3011 1460.02 35.3865 1459.99 32.4878L1460.42 32.9154C1453.43 32.9946 1446.45 33.1689 1439.44 33.1847L1418.47 33.2798L1419.26 32.4878L1419.18 50.2127L1418.47 49.4999C1421.93 49.4999 1425.38 49.4999 1428.85 49.595L1439.27 49.7692L1460.42 50.2127Z" fill="#EBEBEB"/>
<path id="Vector_9" d="M1869.52 68.6769L1848.74 69.1204L1838.17 69.2946C1834.66 69.2946 1831.11 69.2946 1827.58 69.3897H1826.88V68.6769V50.9519V50.1599H1827.67L1848.64 50.255C1855.63 50.255 1862.63 50.445 1869.62 50.5242H1870.06V50.9519C1870.06 53.9615 1869.93 56.9553 1869.85 59.9015L1869.52 68.6769ZM1869.52 68.6769L1869.3 59.7273C1869.22 56.7652 1869.13 53.8506 1869.09 50.9519L1869.52 51.3796C1862.54 51.3796 1855.53 51.633 1848.55 51.6489L1827.58 51.7439L1828.37 50.9519L1828.29 68.6769L1827.58 67.9641C1831.03 67.9641 1834.48 67.9641 1837.95 68.0591L1848.36 68.2334L1869.52 68.6769Z" fill="#EBEBEB"/>
<path id="Vector_10" d="M1892.92 93.667L1872.14 94.1105L1861.59 94.2847C1858.05 94.3639 1854.51 94.2847 1850.97 94.3798H1850.28V93.667L1850.18 75.942V75.15H1850.97L1871.94 75.2451C1878.95 75.2451 1885.93 75.4351 1892.92 75.5143H1893.36V75.942C1893.36 78.9516 1893.22 81.9454 1893.14 84.8916L1892.92 93.667ZM1892.92 93.667L1892.7 84.7174C1892.7 81.7553 1892.52 78.8407 1892.49 75.942L1892.92 76.3697C1885.93 76.4489 1878.95 76.6231 1871.94 76.639L1850.97 76.734L1851.76 75.942V93.667L1851.05 92.9542C1854.51 92.9542 1857.96 92.9542 1861.43 93.0492L1871.85 93.2235L1892.92 93.667Z" fill="#EBEBEB"/>
<path id="Vector_11" d="M103.377 50.2128L82.5792 50.6563L72.0298 50.8305C68.5133 50.8305 64.9651 50.8305 61.4328 50.9256H60.72V50.2128V32.4878V31.6958H61.5278L82.5 31.8067C89.4854 31.8067 96.4709 31.9809 103.472 32.0601H103.9V32.4878C103.9 35.4974 103.757 38.4912 103.694 41.4532L103.377 50.2128ZM103.377 50.2128L103.14 41.2632C103.14 38.3169 102.965 35.3865 102.934 32.4878L103.377 32.9155C96.3758 33.0105 89.3904 33.1689 82.405 33.1848L61.4328 33.2798L62.2248 32.4878L62.1298 50.2128L61.4328 49.595C64.8859 49.595 68.3232 49.595 71.7922 49.595L82.2149 49.7692L103.377 50.2128Z" fill="#EBEBEB"/>
<path id="Vector_12" d="M1089.07 236.222L1098.4 221.19L1093.79 218.339C1093.13 217.923 1092.6 217.333 1092.25 216.634C1091.91 215.935 1091.77 215.154 1091.84 214.379C1091.89 213.497 1091.89 212.614 1091.84 211.733C1091.82 210.955 1092.01 210.186 1092.4 209.512C1092.79 208.838 1093.36 208.285 1094.04 207.916L1098.79 205.35L1090.43 189.763L1085.68 192.313C1084.99 192.681 1084.21 192.849 1083.44 192.799C1082.66 192.749 1081.91 192.482 1081.28 192.028C1080.56 191.537 1079.8 191.062 1079.03 190.634C1078.34 190.268 1077.77 189.719 1077.38 189.048C1076.99 188.376 1076.79 187.61 1076.81 186.833L1076.98 181.415L1059.31 180.861L1059.15 186.294C1059.11 187.073 1058.87 187.827 1058.43 188.473C1057.99 189.119 1057.39 189.632 1056.68 189.953L1055.52 190.539C1055.12 190.745 1054.74 190.967 1054.38 191.189C1053.72 191.597 1052.96 191.813 1052.19 191.813C1051.41 191.813 1050.65 191.597 1049.99 191.189L1045.35 188.322L1036.02 203.354L1040.65 206.205C1041.3 206.623 1041.83 207.214 1042.18 207.912C1042.52 208.61 1042.66 209.39 1042.59 210.165C1042.52 211.045 1042.48 211.928 1042.5 212.81C1042.52 213.584 1042.33 214.349 1041.94 215.021C1041.56 215.692 1040.99 216.243 1040.31 216.612L1035.56 219.178L1043.92 234.78L1048.68 232.214C1049.36 231.853 1050.14 231.689 1050.91 231.739C1051.68 231.79 1052.43 232.053 1053.06 232.499C1053.78 232.998 1054.53 233.458 1055.3 233.878C1055.99 234.241 1056.56 234.792 1056.96 235.467C1057.35 236.142 1057.54 236.915 1057.52 237.695L1057.36 243.112L1075.03 243.667L1075.21 238.234C1075.24 237.458 1075.49 236.707 1075.92 236.064C1076.35 235.42 1076.96 234.91 1077.66 234.59L1078.84 234.004L1079.98 233.355C1080.64 232.947 1081.4 232.731 1082.18 232.731C1082.96 232.731 1083.72 232.947 1084.38 233.355L1089.07 236.222ZM1074.1 225.134C1071.57 226.488 1068.7 227.063 1065.85 226.785C1063 226.508 1060.29 225.391 1058.07 223.575C1055.85 221.76 1054.22 219.327 1053.39 216.586C1052.55 213.844 1052.55 210.916 1053.38 208.172C1054.21 205.428 1055.83 202.991 1058.04 201.169C1060.26 199.348 1062.96 198.223 1065.81 197.938C1068.66 197.653 1071.54 198.22 1074.07 199.568C1076.6 200.915 1078.67 202.982 1080.02 205.508C1081.82 208.888 1082.21 212.841 1081.1 216.504C1079.99 220.167 1077.47 223.241 1074.1 225.055V225.134Z" fill="#EBEBEB"/>
<g id="Group 2">
<path id="Vector_13" d="M142.233 138.299C142.233 136.319 142.502 131.044 142.502 128.795C142.502 119.164 139.065 114.808 130.099 114.539C125.87 114.286 123.367 111.783 123.367 108.203C123.367 104.623 125.87 102.136 130.099 101.867C139.065 101.519 142.439 97.3052 142.439 87.6111C142.439 85.3776 142.169 80.1029 142.169 78.1071C142.169 65.3084 147.571 57.1349 168.02 52.6522C172.107 51.7176 175.275 54.2362 175.275 58.0536C175.315 59.2295 174.978 60.3874 174.314 61.3589C173.65 62.3303 172.694 63.0647 171.584 63.4551C158.785 67.4151 156.932 71.5018 156.932 80.4831C156.932 83.1125 157.201 87.4685 157.201 90.2405C157.201 100.521 152.196 105.542 143.484 108.314C152.323 111.213 157.201 116.091 157.201 126.387C157.201 129.144 156.932 133.5 156.932 136.145C156.932 145.11 158.785 149.197 171.584 153.157C172.694 153.547 173.65 154.282 174.314 155.253C174.978 156.225 175.315 157.383 175.275 158.558C175.275 162.392 172.107 164.894 168.02 163.976C147.634 159.43 142.233 151.24 142.233 138.299Z" fill="#EBEBEB"/>
<path id="Vector_14" d="M219.532 78.1069C219.532 80.0869 219.263 85.3616 219.263 87.6109C219.263 97.3842 222.827 101.598 231.792 101.994C235.879 102.263 238.381 104.766 238.381 108.33C238.381 111.894 235.879 114.396 231.792 114.666C222.827 114.935 219.263 119.291 219.263 128.922C219.263 131.155 219.532 136.43 219.532 138.426C219.532 151.351 214.115 159.54 193.665 164.023C189.578 164.942 186.426 162.439 186.426 158.606C186.385 157.412 186.736 156.237 187.425 155.262C188.114 154.286 189.104 153.564 190.244 153.204C202.916 149.244 204.753 145.158 204.753 136.192C204.753 133.547 204.484 129.191 204.484 126.435C204.484 116.139 209.505 111.133 218.201 108.361C209.363 105.463 204.484 100.568 204.484 90.2879C204.484 87.5159 204.753 83.1599 204.753 80.5304C204.753 71.5492 202.9 67.4624 190.244 63.5024C189.104 63.1431 188.114 62.4203 187.425 61.4448C186.736 60.4693 186.385 59.2948 186.426 58.101C186.426 54.2836 189.594 51.765 193.665 52.6996C214.115 57.0714 219.532 65.2448 219.532 78.1069Z" fill="#EBEBEB"/>
</g>
</g>
<g id="Group 1">
<path id="Vector_15" d="M120.469 314.736C110.919 314.732 101.583 317.561 93.6411 322.865C85.6993 328.168 79.5087 335.707 75.852 344.529C72.1954 353.351 71.237 363.059 73.0981 372.425C74.9592 381.792 79.5562 390.396 86.3077 397.15C93.0592 403.903 101.662 408.503 111.028 410.367C120.394 412.232 130.102 411.276 138.925 407.623C147.748 403.969 155.289 397.781 160.595 389.841C165.901 381.901 168.733 372.566 168.733 363.016C168.735 356.676 167.488 350.399 165.064 344.541C162.639 338.683 159.084 333.361 154.602 328.878C150.12 324.394 144.799 320.838 138.942 318.411C133.085 315.985 126.808 314.736 120.469 314.736ZM120.469 385.54C116.01 385.54 111.651 384.218 107.944 381.741C104.237 379.263 101.348 375.742 99.6425 371.622C97.9369 367.503 97.4914 362.97 98.3624 358.597C99.2335 354.224 101.382 350.208 104.536 347.056C107.69 343.904 111.707 341.759 116.081 340.891C120.454 340.023 124.987 340.472 129.105 342.18C133.224 343.889 136.743 346.78 139.218 350.489C141.693 354.198 143.012 358.557 143.009 363.016C143.005 368.991 140.628 374.72 136.401 378.944C132.175 383.168 126.444 385.54 120.469 385.54Z" fill="#EBEBEB"/>
<path id="Vector_16" d="M129.751 316.747H111.186L112.216 303.6H128.721L129.751 316.747Z" fill="#EBEBEB"/>
<path id="Vector_17" d="M94.4117 322.988L81.2962 336.12L72.7267 326.109L84.4008 314.435L94.4117 322.988Z" fill="#EBEBEB"/>
<path id="Vector_18" d="M73.8514 352.403V370.968L60.72 369.938V353.433L73.8514 352.403Z" fill="#EBEBEB"/>
<path id="Vector_19" d="M80.1082 387.726L93.2395 400.857L83.2286 409.411L71.5546 397.737L80.1082 387.726Z" fill="#EBEBEB"/>
<path id="Vector_20" d="M109.507 408.287H128.072L127.058 421.434H110.537L109.507 408.287Z" fill="#EBEBEB"/>
<path id="Vector_21" d="M144.846 402.03L157.978 388.914L166.531 398.925L154.857 410.599L144.846 402.03Z" fill="#EBEBEB"/>
<path id="Vector_22" d="M165.407 372.631V354.066L178.538 355.096V371.601L165.407 372.631Z" fill="#EBEBEB"/>
<path id="Vector_23" d="M159.15 337.308L146.018 324.176L156.045 315.607L167.719 327.281L159.15 337.308Z" fill="#EBEBEB"/>
</g>
<g id="freepik--Device--inject-16">
<path id="Vector_24" d="M1158.38 102.96H467.507V565.108H1158.38V102.96Z" fill="#DBDBDB"/>
<path id="Vector_25" d="M1153.38 108.599H472.528V559.469H1153.38V108.599Z" fill="#263238"/>
<path id="Vector_26" d="M1123.22 137.57H502.672V530.482H1123.22V137.57Z" fill="#455A64"/>
<path id="Vector_27" d="M635.728 152.698H502.672V530.497H635.728V152.698Z" fill="#37474F"/>
<path id="Vector_28" d="M516.912 152.698H502.672V530.497H516.912V152.698Z" fill="#455A64"/>
<path id="Vector_29" d="M635.744 281.904H516.912V287.528H635.744V281.904Z" fill="#407BFF"/>
<path id="Vector_30" d="M576.36 171.452H530.154V173.971H576.36V171.452Z" fill="white"/>
<path id="Vector_31" d="M524.246 171.911H527.224L525.735 173.495L524.246 171.911Z" fill="white"/>
<path id="Vector_32" d="M539.991 180.782H533.861V183.3H539.991V180.782Z" fill="white"/>
<path id="Vector_33" d="M530.154 183.522V180.544L531.738 182.033L530.154 183.522Z" fill="white"/>
<path id="Vector_34" d="M539.991 190.112H533.861V192.63H539.991V190.112Z" fill="white"/>
<path id="Vector_35" d="M529.457 190.571H532.435L530.946 192.155L529.457 190.571Z" fill="white"/>
<path id="Vector_36" d="M539.991 199.441H533.861V201.96H539.991V199.441Z" fill="white"/>
<path id="Vector_37" d="M529.457 199.901H532.435L530.946 201.501L529.457 199.901Z" fill="white"/>
<path id="Vector_38" d="M543.713 208.771H537.583V211.29H543.713V208.771Z" fill="white"/>
<path id="Vector_39" d="M533.861 211.511V208.534L535.461 210.023L533.861 211.511Z" fill="white"/>
<path id="Vector_40" d="M547.436 218.117H541.306V220.635H547.436V218.117Z" fill="white"/>
<path id="Vector_41" d="M537.583 220.857V217.879L539.183 219.368L537.583 220.857Z" fill="white"/>
<path id="Vector_42" d="M547.436 311.414H541.306V313.933H547.436V311.414Z" fill="white"/>
<path id="Vector_43" d="M537.583 314.155V311.177L539.183 312.666L537.583 314.155Z" fill="white"/>
<path id="Vector_44" d="M551.158 227.431H545.028V229.949H551.158V227.431Z" fill="white"/>
<path id="Vector_45" d="M541.306 230.171V227.193L542.905 228.682L541.306 230.171Z" fill="white"/>
<path id="Vector_46" d="M551.158 302.085H545.028V304.603H551.158V302.085Z" fill="white"/>
<path id="Vector_47" d="M541.306 304.825V301.847L542.905 303.336L541.306 304.825Z" fill="white"/>
<path id="Vector_48" d="M554.88 236.76H548.75V239.279H554.88V236.76Z" fill="white"/>
<path id="Vector_49" d="M545.028 239.501V236.523L546.628 238.012L545.028 239.501Z" fill="white"/>
<path id="Vector_50" d="M554.88 292.739H548.75V295.258H554.88V292.739Z" fill="white"/>
<path id="Vector_51" d="M545.028 295.495V292.517L546.628 294.006L545.028 295.495Z" fill="white"/>
<path id="Vector_52" d="M558.603 246.106H552.473V248.625H558.603V246.106Z" fill="white"/>
<path id="Vector_53" d="M548.75 248.846V245.868L550.35 247.357L548.75 248.846Z" fill="white"/>
<path id="Vector_54" d="M559.3 255.42H553.17V257.938H559.3V255.42Z" fill="white"/>
<path id="Vector_55" d="M548.75 255.879H551.728L550.239 257.479L548.75 255.879Z" fill="white"/>
<path id="Vector_56" d="M559.3 264.75H553.17V267.268H559.3V264.75Z" fill="white"/>
<path id="Vector_57" d="M548.75 265.209H551.728L550.239 266.809L548.75 265.209Z" fill="white"/>
<path id="Vector_58" d="M559.3 274.079H553.17V276.598H559.3V274.079Z" fill="white"/>
<path id="Vector_59" d="M548.75 274.539H551.728L550.239 276.139L548.75 274.539Z" fill="white"/>
<path id="Vector_60" d="M559.3 283.409H553.17V285.928H559.3V283.409Z" fill="white"/>
<path id="Vector_61" d="M548.75 283.869H551.728L550.239 285.469L548.75 283.869Z" fill="white"/>
<path id="Vector_62" d="M539.991 320.744H533.861V323.263H539.991V320.744Z" fill="white"/>
<path id="Vector_63" d="M530.154 323.485V320.507L531.738 321.996L530.154 323.485Z" fill="white"/>
<path id="Vector_64" d="M539.991 330.074H533.861V332.593H539.991V330.074Z" fill="white"/>
<path id="Vector_65" d="M529.457 330.533H532.435L530.946 332.133L529.457 330.533Z" fill="white"/>
<path id="Vector_66" d="M539.991 339.404H533.861V341.922H539.991V339.404Z" fill="white"/>
<path id="Vector_67" d="M529.457 339.863H532.435L530.946 341.463L529.457 339.863Z" fill="white"/>
<path id="Vector_68" d="M543.713 348.733H537.583V351.252H543.713V348.733Z" fill="white"/>
<path id="Vector_69" d="M533.861 351.49V348.512L535.461 350.001L533.861 351.49Z" fill="white"/>
<path id="Vector_70" d="M547.436 358.079H541.306V360.598H547.436V358.079Z" fill="white"/>
<path id="Vector_71" d="M537.583 360.819V357.841L539.183 359.33L537.583 360.819Z" fill="white"/>
<path id="Vector_72" d="M547.436 367.409H541.306V369.927H547.436V367.409Z" fill="white"/>
<path id="Vector_73" d="M537.583 370.165V367.187L539.183 368.676L537.583 370.165Z" fill="white"/>
<path id="Vector_74" d="M548.133 376.739H542.003V379.257H548.133V376.739Z" fill="white"/>
<path id="Vector_75" d="M537.583 377.198H540.561L539.072 378.798L537.583 377.198Z" fill="white"/>
<path id="Vector_76" d="M548.133 386.068H542.003V388.587H548.133V386.068Z" fill="white"/>
<path id="Vector_77" d="M537.583 386.528H540.561L539.072 388.127L537.583 386.528Z" fill="white"/>
<path id="Vector_78" d="M548.133 395.398H542.003V397.917H548.133V395.398Z" fill="white"/>
<path id="Vector_79" d="M537.583 395.857H540.561L539.072 397.457L537.583 395.857Z" fill="white"/>
<path id="Vector_80" d="M548.133 404.728H542.003V407.246H548.133V404.728Z" fill="white"/>
<path id="Vector_81" d="M537.583 405.187H540.561L539.072 406.787L537.583 405.187Z" fill="white"/>
<path id="Vector_82" d="M1123.22 137.57H502.672V152.682H1123.22V137.57Z" fill="#407BFF"/>
<path id="Vector_83" d="M516.912 145.142C516.912 145.709 516.744 146.263 516.429 146.735C516.114 147.206 515.666 147.574 515.142 147.791C514.618 148.008 514.042 148.065 513.486 147.954C512.929 147.843 512.419 147.57 512.018 147.169C511.617 146.768 511.344 146.257 511.233 145.701C511.122 145.145 511.179 144.569 511.396 144.045C511.613 143.521 511.981 143.073 512.452 142.758C512.924 142.443 513.478 142.275 514.045 142.275C514.805 142.275 515.535 142.577 516.072 143.115C516.61 143.652 516.912 144.382 516.912 145.142Z" fill="#C7C7C7"/>
<path id="Vector_84" d="M528.586 145.142C528.586 145.709 528.418 146.263 528.103 146.735C527.788 147.206 527.34 147.574 526.816 147.791C526.292 148.008 525.716 148.065 525.16 147.954C524.604 147.843 524.093 147.57 523.692 147.169C523.291 146.768 523.018 146.257 522.907 145.701C522.796 145.145 522.853 144.569 523.07 144.045C523.287 143.521 523.655 143.073 524.126 142.758C524.598 142.443 525.152 142.275 525.719 142.275C526.479 142.275 527.209 142.577 527.746 143.115C528.284 143.652 528.586 144.382 528.586 145.142Z" fill="white"/>
<path id="Vector_85" d="M540.276 145.142C540.276 145.709 540.108 146.263 539.793 146.735C539.478 147.206 539.03 147.574 538.506 147.791C537.982 148.008 537.406 148.065 536.85 147.954C536.293 147.843 535.783 147.57 535.382 147.169C534.981 146.768 534.708 146.257 534.597 145.701C534.486 145.145 534.543 144.569 534.76 144.045C534.977 143.521 535.345 143.073 535.816 142.758C536.288 142.443 536.842 142.275 537.409 142.275C538.169 142.275 538.899 142.577 539.436 143.115C539.974 143.652 540.276 144.382 540.276 145.142Z" fill="#455A64"/>
<path id="Vector_86" d="M678.195 219.875H666.996V222.615H678.195V219.875Z" fill="#EBEBEB"/>
<path id="Vector_87" d="M939.555 219.875H691.39V222.615H939.555V219.875Z" fill="#EBEBEB"/>
<path id="Vector_88" d="M967.703 219.875H946.445V222.615H967.703V219.875Z" fill="#407BFF"/>
<path id="Vector_89" d="M1052.24 284.787H980.47V287.528H1052.24V284.787Z" fill="#EBEBEB"/>
<path id="Vector_90" d="M1077.7 219.875H972.328V222.615H1077.7V219.875Z" fill="#A6A6A6"/>
<path id="Vector_91" d="M678.195 232.848H666.996V235.588H678.195V232.848Z" fill="#EBEBEB"/>
<path id="Vector_92" d="M786.588 232.848H702.303V235.588H786.588V232.848Z" fill="#A6A6A6"/>
<path id="Vector_93" d="M975.433 284.787H943.547V287.528H975.433V284.787Z" fill="#A6A6A6"/>
<path id="Vector_94" d="M771.888 271.799H691.39V274.539H771.888V271.799Z" fill="#A6A6A6"/>
<path id="Vector_95" d="M758.773 245.837H702.303V248.577H758.773V245.837Z" fill="#407BFF"/>
<path id="Vector_96" d="M1067.65 258.81H960.67V261.55H1067.65V258.81Z" fill="#A6A6A6"/>
<path id="Vector_97" d="M939.571 322.534H832.587V325.274H939.571V322.534Z" fill="#A6A6A6"/>
<path id="Vector_98" d="M974.973 245.837H765.046V248.577H974.973V245.837Z" fill="#A6A6A6"/>
<path id="Vector_99" d="M936.244 284.787H691.39V287.528H936.244V284.787Z" fill="#407BFF"/>
<path id="Vector_100" d="M965.342 232.848H791.879V235.588H965.342V232.848Z" fill="#EBEBEB"/>
<path id="Vector_101" d="M1020.26 245.837H983.954V248.577H1020.26V245.837Z" fill="#EBEBEB"/>
<path id="Vector_102" d="M678.195 245.837H666.996V248.577H678.195V245.837Z" fill="#EBEBEB"/>
<path id="Vector_103" d="M678.195 258.81H666.996V261.55H678.195V258.81Z" fill="#A6A6A6"/>
<path id="Vector_104" d="M757.553 258.81H691.39V261.55H757.553V258.81Z" fill="#EBEBEB"/>
<path id="Vector_105" d="M768.467 297.76H702.303V300.501H768.467V297.76Z" fill="#EBEBEB"/>
<path id="Vector_106" d="M1037.81 310.749H945.432V313.489H1037.81V310.749Z" fill="#407BFF"/>
<path id="Vector_107" d="M939.65 310.749H762.147V313.489H939.65V310.749Z" fill="#EBEBEB"/>
<path id="Vector_108" d="M752.041 310.749H702.303V313.489H752.041V310.749Z" fill="#A6A6A6"/>
<path id="Vector_109" d="M967.703 271.799H776.45V274.539H967.703V271.799Z" fill="#EBEBEB"/>
<path id="Vector_110" d="M1086.44 271.799H972.328V274.539H1086.44V271.799Z" fill="#407BFF"/>
<path id="Vector_111" d="M955.458 258.81H764.285V261.55H955.458V258.81Z" fill="#407BFF"/>
<path id="Vector_112" d="M678.195 271.799H666.996V274.539H678.195V271.799Z" fill="#EBEBEB"/>
<path id="Vector_113" d="M678.195 284.787H666.996V287.528H678.195V284.787Z" fill="#EBEBEB"/>
<path id="Vector_114" d="M678.195 297.76H666.996V300.501H678.195V297.76Z" fill="#A6A6A6"/>
<path id="Vector_115" d="M678.195 310.749H666.996V313.489H678.195V310.749Z" fill="#EBEBEB"/>
<path id="Vector_116" d="M678.195 322.534H666.996V325.274H678.195V322.534Z" fill="#EBEBEB"/>
<path id="Vector_117" d="M822.656 322.534H691.39V325.274H822.656V322.534Z" fill="#EBEBEB"/>
<path id="Vector_118" d="M678.195 335.523H666.996V338.263H678.195V335.523Z" fill="#EBEBEB"/>
<path id="Vector_119" d="M786.588 335.523H702.303V338.263H786.588V335.523Z" fill="#A6A6A6"/>
<path id="Vector_120" d="M771.888 374.458H691.39V377.198H771.888V374.458Z" fill="#A6A6A6"/>
<path id="Vector_121" d="M758.773 348.496H702.303V351.236H758.773V348.496Z" fill="#407BFF"/>
<path id="Vector_122" d="M888.107 400.435H831.637V403.176H888.107V400.435Z" fill="#407BFF"/>
<path id="Vector_123" d="M758.773 426.397H702.303V429.137H758.773V426.397Z" fill="#407BFF"/>
<path id="Vector_124" d="M974.973 348.496H765.046V351.236H974.973V348.496Z" fill="#A6A6A6"/>
<path id="Vector_125" d="M936.244 387.446H691.39V390.187H936.244V387.446Z" fill="#407BFF"/>
<path id="Vector_126" d="M965.342 335.523H791.879V338.263H965.342V335.523Z" fill="#EBEBEB"/>
<path id="Vector_127" d="M1002.06 361.485H965.818V364.225H1002.06V361.485Z" fill="#EBEBEB"/>
<path id="Vector_128" d="M678.195 348.496H666.996V351.236H678.195V348.496Z" fill="#EBEBEB"/>
<path id="Vector_129" d="M678.195 361.485H666.996V364.225H678.195V361.485Z" fill="#A6A6A6"/>
<path id="Vector_130" d="M757.553 361.485H691.39V364.225H757.553V361.485Z" fill="#EBEBEB"/>
<path id="Vector_131" d="M967.703 374.458H776.45V377.198H967.703V374.458Z" fill="#EBEBEB"/>
<path id="Vector_132" d="M955.458 361.485H764.285V364.225H955.458V361.485Z" fill="#407BFF"/>
<path id="Vector_133" d="M678.195 374.458H666.996V377.198H678.195V374.458Z" fill="#EBEBEB"/>
<path id="Vector_134" d="M678.195 400.435H666.996V403.176H678.195V400.435Z" fill="#EBEBEB"/>
<path id="Vector_135" d="M822.656 400.435H691.39V403.176H822.656V400.435Z" fill="#EBEBEB"/>
<path id="Vector_136" d="M678.195 413.408H666.996V416.148H678.195V413.408Z" fill="#EBEBEB"/>
<path id="Vector_137" d="M786.588 413.408H702.303V416.148H786.588V413.408Z" fill="#A6A6A6"/>
<path id="Vector_138" d="M771.888 452.359H691.39V455.099H771.888V452.359Z" fill="#A6A6A6"/>
<path id="Vector_139" d="M974.973 426.397H765.046V429.137H974.973V426.397Z" fill="#A6A6A6"/>
<path id="Vector_140" d="M1002.06 439.37H965.818V442.11H1002.06V439.37Z" fill="#EBEBEB"/>
<path id="Vector_141" d="M678.195 426.397H666.996V429.137H678.195V426.397Z" fill="#EBEBEB"/>
<path id="Vector_142" d="M678.195 439.37H666.996V442.11H678.195V439.37Z" fill="#A6A6A6"/>
<path id="Vector_143" d="M757.553 439.37H691.39V442.11H757.553V439.37Z" fill="#EBEBEB"/>
<path id="Vector_144" d="M967.703 452.359H776.45V455.099H967.703V452.359Z" fill="#EBEBEB"/>
<path id="Vector_145" d="M955.458 439.37H764.285V442.11H955.458V439.37Z" fill="#407BFF"/>
<path id="Vector_146" d="M678.195 452.359H666.996V455.099H678.195V452.359Z" fill="#EBEBEB"/>
<path id="Vector_147" d="M673.902 194.785C673.996 194.873 674.07 194.98 674.121 195.099C674.172 195.217 674.198 195.345 674.198 195.474C674.198 195.602 674.172 195.73 674.121 195.848C674.07 195.967 673.996 196.074 673.902 196.163C673.816 196.252 673.713 196.323 673.598 196.372C673.484 196.421 673.361 196.447 673.237 196.448C672.971 196.45 672.715 196.347 672.524 196.163L668.2 191.791C668.2 191.791 668.2 191.791 668.2 191.696C668.193 191.654 668.193 191.611 668.2 191.569C668.2 191.569 668.2 191.49 668.2 191.474C668.2 191.458 668.2 191.474 668.2 191.395V191.284C668.2 191.284 668.2 191.284 668.2 191.189C668.2 191.094 668.2 191.189 668.2 191.11V190.92C668.2 190.92 668.2 190.84 668.2 190.793C668.223 190.744 668.249 190.696 668.279 190.65C668.279 190.65 668.279 190.65 668.358 190.555L672.683 186.168C672.868 185.99 673.115 185.891 673.372 185.891C673.628 185.891 673.875 185.99 674.061 186.168C674.154 186.256 674.229 186.363 674.279 186.482C674.33 186.6 674.356 186.728 674.356 186.857C674.356 186.985 674.33 187.113 674.279 187.232C674.229 187.35 674.154 187.457 674.061 187.546L670.417 191.221L673.902 194.785Z" fill="#407BFF"/>
<path id="Vector_148" d="M677.815 195.275L681.585 186.326C681.628 186.222 681.691 186.127 681.772 186.047C681.852 185.968 681.947 185.905 682.051 185.862C682.156 185.819 682.268 185.798 682.381 185.798C682.494 185.799 682.605 185.822 682.709 185.866C682.81 185.91 682.901 185.972 682.977 186.051C683.053 186.129 683.112 186.222 683.152 186.323C683.192 186.425 683.211 186.534 683.208 186.643C683.206 186.752 683.181 186.86 683.137 186.959L679.367 195.941C679.302 196.092 679.193 196.221 679.055 196.311C678.917 196.401 678.756 196.449 678.591 196.448C678.486 196.47 678.379 196.47 678.274 196.448C678.162 196.407 678.06 196.343 677.975 196.26C677.89 196.176 677.823 196.076 677.78 195.965C677.736 195.854 677.717 195.735 677.723 195.617C677.729 195.498 677.76 195.381 677.815 195.275Z" fill="#407BFF"/>
<path id="Vector_149" d="M690.566 191.664C690.566 191.664 690.566 191.743 690.471 191.775L686.147 196.147C686.055 196.238 685.946 196.31 685.826 196.359C685.707 196.408 685.579 196.432 685.45 196.432C685.259 196.427 685.074 196.366 684.918 196.258C684.761 196.15 684.639 195.998 684.567 195.822C684.495 195.646 684.475 195.452 684.511 195.265C684.547 195.078 684.636 194.906 684.768 194.769L688.412 191.094L684.768 187.419C684.675 187.33 684.601 187.223 684.55 187.105C684.499 186.986 684.473 186.859 684.473 186.73C684.473 186.601 684.499 186.473 684.55 186.355C684.601 186.236 684.675 186.13 684.768 186.041C684.954 185.864 685.201 185.765 685.458 185.765C685.714 185.765 685.961 185.864 686.147 186.041L690.471 190.428C690.471 190.428 690.471 190.428 690.566 190.523C690.595 190.569 690.621 190.617 690.645 190.666C690.641 190.713 690.641 190.761 690.645 190.809V190.904C690.645 190.904 690.645 190.904 690.645 190.983V191.189C690.643 191.236 690.643 191.284 690.645 191.331L690.566 191.664Z" fill="#407BFF"/>
</g>
<g id="freepik--Icons--inject-16">
<path id="Vector_150" d="M402.716 324.039H321.948V218.544H382.837L402.716 238.424V324.039Z" fill="#407BFF"/>
<path id="Vector_151" opacity="0.6" d="M402.716 324.039H321.948V218.544H382.837L402.716 238.424V324.039Z" fill="white"/>
<path id="Vector_152" d="M402.716 238.424H382.837V218.544L402.716 238.424Z" fill="#407BFF"/>
<path id="Vector_153" d="M340.623 255.721C340.627 256.911 340.983 258.074 341.647 259.062C342.311 260.05 343.253 260.819 344.354 261.272C345.455 261.725 346.665 261.841 347.832 261.606C348.999 261.37 350.07 260.794 350.91 259.95C351.75 259.106 352.32 258.032 352.549 256.864C352.778 255.696 352.656 254.486 352.197 253.387C351.739 252.288 350.965 251.35 349.973 250.692C348.982 250.033 347.817 249.683 346.627 249.686C345.836 249.686 345.052 249.842 344.322 250.146C343.592 250.45 342.928 250.895 342.37 251.455C341.813 252.016 341.371 252.682 341.071 253.414C340.771 254.146 340.619 254.93 340.623 255.721Z" fill="#407BFF"/>
<path id="Vector_154" d="M349.906 282.475H390.757L370.339 257.543L349.906 282.475Z" fill="#407BFF"/>
<path id="Vector_155" d="M333.891 282.475H367.615L350.761 266.239L333.891 282.475Z" fill="#407BFF"/>
<path id="Vector_156" opacity="0.1" d="M333.891 282.475H367.615L350.761 266.239L333.891 282.475Z" fill="black"/>
<path id="Vector_157" d="M390.741 242.574H333.891V282.475H390.741V242.574Z" stroke="#407BFF" stroke-width="2" stroke-miterlimit="10"/>
<path id="Vector_158" d="M360.344 286.783H302.322V310.797H360.344V286.783Z" fill="#455A64"/>
<path id="Vector_159" d="M319.366 293.325V304.968H317.117V299.994H311.826V304.968H309.561V293.325H311.826V298.077H317.117V293.325H319.366Z" fill="white"/>
<path id="Vector_160" d="M330.486 295.305H326.763V304.968H324.53V295.305H320.808V293.325H330.486V295.305Z" fill="white"/>
<path id="Vector_161" d="M341.431 304.968V297.254L338.422 303.003H337.202L334.208 297.254V304.968H331.959V293.325H334.382L337.82 299.946L341.304 293.325H343.712V304.968H341.431Z" fill="white"/>
<path id="Vector_162" d="M346.12 304.968V293.325H348.464V302.988H354.404V304.968H346.12Z" fill="white"/>
<path id="Vector_163" d="M402.716 452.184H321.853V346.579H382.821L402.716 366.474V452.184Z" fill="#407BFF"/>
<path id="Vector_164" opacity="0.6" d="M402.716 452.184H321.853V346.579H382.821L402.716 366.474V452.184Z" fill="white"/>
<path id="Vector_165" d="M402.716 366.474H382.821V346.579L402.716 366.474Z" fill="#407BFF"/>
<path id="Vector_166" d="M340.544 383.787C340.547 384.981 340.904 386.147 341.57 387.138C342.236 388.128 343.18 388.899 344.284 389.353C345.388 389.807 346.602 389.923 347.772 389.687C348.942 389.452 350.016 388.874 350.858 388.028C351.7 387.181 352.272 386.105 352.501 384.933C352.731 383.762 352.608 382.549 352.149 381.447C351.689 380.346 350.913 379.405 349.919 378.745C348.925 378.084 347.757 377.733 346.563 377.736C344.964 377.745 343.433 378.386 342.305 379.52C341.177 380.654 340.544 382.188 340.544 383.787Z" fill="#407BFF"/>
<path id="Vector_167" d="M349.858 410.573H390.741L370.292 385.609L349.858 410.573Z" fill="#407BFF"/>
<path id="Vector_168" d="M333.828 410.573H367.583L350.698 394.321L333.828 410.573Z" fill="#407BFF"/>
<path id="Vector_169" opacity="0.1" d="M333.828 410.573H367.583L350.698 394.321L333.828 410.573Z" fill="black"/>
<path id="Vector_170" d="M390.741 370.64H333.828V410.573H390.741V370.64Z" stroke="#407BFF" stroke-width="2" stroke-miterlimit="10"/>
<path id="Vector_171" d="M360.297 414.881H302.227V438.911H360.297V414.881Z" fill="#455A64"/>
<path id="Vector_172" d="M315.945 427.173C315.946 426.454 316.075 425.741 316.325 425.066C316.578 424.378 316.959 423.743 317.449 423.197C317.961 422.643 318.574 422.192 319.255 421.867C320.016 421.521 320.843 421.348 321.679 421.36C322.656 421.333 323.622 421.58 324.467 422.073C325.211 422.506 325.815 423.144 326.209 423.91L324.467 425.114C324.22 424.529 323.778 424.047 323.215 423.752C322.967 423.615 322.7 423.513 322.423 423.451C322.157 423.401 321.886 423.374 321.615 423.372C321.099 423.36 320.588 423.474 320.126 423.704C319.723 423.935 319.368 424.241 319.081 424.607C318.793 424.981 318.578 425.405 318.447 425.858C318.152 426.791 318.152 427.793 318.447 428.726C318.602 429.181 318.838 429.605 319.144 429.977C319.445 430.339 319.817 430.635 320.237 430.848C320.662 431.073 321.135 431.187 321.615 431.181C321.893 431.18 322.169 431.148 322.439 431.086C322.722 431.02 322.995 430.914 323.247 430.769C323.517 430.631 323.759 430.443 323.96 430.214C324.187 429.98 324.369 429.707 324.498 429.407L326.352 430.468C326.164 430.905 325.889 431.298 325.544 431.624C325.204 431.966 324.814 432.255 324.387 432.48C323.944 432.705 323.476 432.881 322.993 433.002C322.522 433.122 322.038 433.18 321.552 433.177C320.761 433.184 319.98 433.005 319.271 432.654C318.6 432.314 317.998 431.852 317.497 431.292C316.994 430.723 316.597 430.068 316.325 429.359C316.059 428.662 315.93 427.92 315.945 427.173Z" fill="white"/>
<path id="Vector_173" d="M334.842 424.48C334.717 424.36 334.579 424.254 334.43 424.164C333.907 423.852 333.341 423.617 332.751 423.467C332.41 423.377 332.058 423.334 331.705 423.34C331.218 423.307 330.732 423.423 330.312 423.672C330.162 423.787 330.041 423.936 329.961 424.107C329.881 424.278 329.844 424.466 329.852 424.655C329.846 424.863 329.907 425.069 330.026 425.241C330.166 425.415 330.338 425.56 330.533 425.668C330.797 425.799 331.073 425.905 331.357 425.985C331.69 426.096 332.086 426.191 332.513 426.302C332.941 426.413 333.606 426.619 334.097 426.793C334.528 426.946 334.929 427.171 335.285 427.458C335.601 427.709 335.856 428.029 336.03 428.393C336.219 428.821 336.311 429.287 336.299 429.755C336.309 430.305 336.184 430.849 335.935 431.339C335.705 431.766 335.379 432.135 334.984 432.416C334.565 432.698 334.098 432.902 333.606 433.018C333.086 433.13 332.555 433.188 332.022 433.192C331.143 433.191 330.268 433.063 329.424 432.812C328.603 432.564 327.827 432.184 327.128 431.688L328.126 429.739C328.296 429.879 328.476 430.006 328.664 430.119C329.313 430.507 330.011 430.806 330.739 431.006C331.169 431.115 331.611 431.168 332.054 431.165C333.305 431.165 333.923 430.769 333.923 429.961C333.933 429.732 333.86 429.507 333.717 429.327C333.548 429.13 333.337 428.973 333.099 428.868C332.794 428.719 332.476 428.597 332.149 428.504L330.898 428.139C330.406 428.012 329.924 427.848 329.456 427.648C329.08 427.488 328.733 427.269 328.427 426.999C328.159 426.764 327.948 426.471 327.809 426.144C327.669 425.774 327.599 425.382 327.603 424.987C327.591 424.441 327.705 423.899 327.936 423.403C328.149 422.957 328.457 422.562 328.838 422.247C329.247 421.934 329.708 421.698 330.201 421.55C330.714 421.395 331.248 421.315 331.785 421.312C332.558 421.305 333.325 421.439 334.05 421.708C334.667 421.973 335.252 422.308 335.792 422.706L334.842 424.48Z" fill="white"/>
<path id="Vector_174" d="M344.916 424.48C344.781 424.365 344.638 424.259 344.488 424.164C343.969 423.843 343.402 423.608 342.809 423.467C342.474 423.377 342.127 423.334 341.78 423.34C341.292 423.303 340.804 423.419 340.386 423.672C340.234 423.785 340.112 423.934 340.032 424.105C339.952 424.277 339.915 424.466 339.926 424.655C339.916 424.862 339.971 425.067 340.085 425.241C340.225 425.415 340.397 425.56 340.592 425.668C340.856 425.799 341.132 425.905 341.415 425.985C341.748 426.096 342.144 426.191 342.572 426.302C342.999 426.413 343.665 426.619 344.156 426.793C344.588 426.943 344.99 427.168 345.344 427.458C345.659 427.709 345.914 428.029 346.088 428.393C346.278 428.821 346.37 429.287 346.357 429.755C346.368 430.305 346.242 430.849 345.993 431.339C345.775 431.774 345.447 432.145 345.043 432.416C344.624 432.698 344.157 432.902 343.665 433.018C343.144 433.131 342.613 433.189 342.081 433.192C341.201 433.192 340.326 433.063 339.483 432.812C338.663 432.56 337.888 432.181 337.186 431.688L338.2 429.739C338.361 429.883 338.536 430.011 338.723 430.119C339.02 430.294 339.327 430.453 339.641 430.595C340.014 430.765 340.401 430.903 340.798 431.006C341.227 431.115 341.669 431.168 342.112 431.165C343.364 431.165 343.981 430.769 343.981 429.961C343.992 429.732 343.918 429.507 343.776 429.327C343.609 429.134 343.404 428.978 343.174 428.868C342.862 428.721 342.539 428.6 342.207 428.504L340.972 428.139C340.474 428.014 339.987 427.85 339.515 427.648C339.139 427.488 338.791 427.269 338.485 426.999C338.218 426.764 338.006 426.471 337.867 426.144C337.727 425.774 337.657 425.382 337.661 424.987C337.649 424.441 337.763 423.899 337.994 423.403C338.208 422.953 338.522 422.557 338.913 422.247C339.315 421.934 339.772 421.698 340.259 421.55C340.773 421.397 341.307 421.317 341.843 421.312C342.616 421.302 343.384 421.436 344.108 421.708C344.743 421.938 345.349 422.241 345.914 422.611L344.916 424.48Z" fill="white"/>
<path id="Vector_175" d="M314.234 398.297H312.65" stroke="white" stroke-width="0.75" stroke-miterlimit="10"/>
<path id="Vector_176" d="M309.751 398.297H299.614" stroke="white" stroke-width="0.75" stroke-miterlimit="10" stroke-dasharray="1.83 1.83"/>
<path id="Vector_177" d="M298.172 398.297H296.588V396.713" stroke="white" stroke-width="0.75" stroke-miterlimit="10"/>
<path id="Vector_178" d="M296.588 393.576V257.115" stroke="white" stroke-width="0.75" stroke-miterlimit="10" stroke-dasharray="1.98 1.98"/>
<path id="Vector_179" d="M296.588 255.547V253.963H298.172" stroke="white" stroke-width="0.75" stroke-miterlimit="10"/>
<path id="Vector_180" d="M300.722 253.963H309.704" stroke="white" stroke-width="0.75" stroke-miterlimit="10" stroke-dasharray="1.62 1.62"/>
<path id="Vector_181" d="M310.971 253.963H312.555" stroke="white" stroke-width="0.75" stroke-miterlimit="10"/>
<path id="Vector_182" d="M314.155 396.507C314.509 396.507 314.855 396.612 315.149 396.809C315.443 397.005 315.673 397.285 315.808 397.612C315.944 397.939 315.979 398.299 315.91 398.646C315.841 398.993 315.671 399.312 315.42 399.562C315.17 399.813 314.851 399.983 314.504 400.052C314.157 400.121 313.797 400.086 313.47 399.95C313.143 399.815 312.863 399.586 312.666 399.291C312.47 398.997 312.365 398.651 312.365 398.297C312.369 397.823 312.559 397.37 312.894 397.036C313.228 396.701 313.681 396.511 314.155 396.507Z" fill="white"/>
<path id="Vector_183" d="M312.476 255.753C313.464 255.753 314.266 254.951 314.266 253.963C314.266 252.974 313.464 252.173 312.476 252.173C311.487 252.173 310.686 252.974 310.686 253.963C310.686 254.951 311.487 255.753 312.476 255.753Z" fill="white"/>
<path id="Vector_184" d="M296.588 326.035H277.2V160.776H484.419" stroke="white" stroke-width="0.75" stroke-miterlimit="10" stroke-dasharray="2 2"/>
<path id="Vector_185" d="M483.722 163.136L487.824 160.776L483.722 158.4V163.136Z" fill="white"/>
</g>
<g id="freepik--Window--inject-16">
<path id="Vector_186" d="M1555.83 71.4067H955.918V451.25H1555.83V71.4067Z" fill="white"/>
<path id="Vector_187" d="M1556.02 451.44H955.68V71.28H1556.02V451.44ZM956.108 451.044H1555.62V71.5968H956.108V451.044Z" fill="#263238"/>
<path id="Vector_188" d="M1555.83 71.4067H955.918V86.0271H1555.83V71.4067Z" fill="#407BFF"/>
<path id="Vector_189" d="M969.667 78.7089C969.67 79.2612 969.508 79.8017 969.201 80.2612C968.895 80.7207 968.458 81.0783 967.947 81.288C967.437 81.4977 966.875 81.5501 966.334 81.4383C965.793 81.3266 965.298 81.0559 964.912 80.6608C964.526 80.2658 964.267 79.7645 964.168 79.2213C964.069 78.678 964.134 78.1175 964.356 77.6116C964.577 77.1058 964.945 76.6776 965.411 76.382C965.878 76.0865 966.422 75.937 966.974 75.9528C967.694 75.9693 968.379 76.267 968.882 76.7821C969.385 77.2972 969.667 77.9888 969.667 78.7089Z" fill="#C7C7C7"/>
<path id="Vector_190" d="M980.961 78.709C980.964 79.2585 980.803 79.7967 980.5 80.2549C980.197 80.7132 979.764 81.071 979.257 81.2827C978.75 81.4945 978.191 81.5507 977.652 81.4443C977.113 81.3378 976.617 81.0735 976.229 80.6849C975.84 80.2962 975.576 79.8009 975.469 79.2617C975.363 78.7225 975.419 78.1638 975.631 77.6567C975.842 77.1495 976.2 76.7167 976.658 76.4134C977.117 76.11 977.655 75.9497 978.204 75.9528C978.935 75.9528 979.636 76.2432 980.153 76.7601C980.67 77.2769 980.961 77.978 980.961 78.709Z" fill="white"/>
<path id="Vector_191" d="M992.318 78.709C992.321 79.2585 992.161 79.7967 991.857 80.2549C991.554 80.7132 991.121 81.071 990.614 81.2827C990.107 81.4945 989.548 81.5507 989.009 81.4443C988.47 81.3378 987.974 81.0735 987.586 80.6849C987.197 80.2962 986.933 79.8009 986.826 79.2617C986.72 78.7225 986.776 78.1638 986.988 77.6567C987.2 77.1495 987.557 76.7167 988.016 76.4134C988.474 76.11 989.012 75.9497 989.562 75.9528C990.293 75.9528 990.994 76.2432 991.511 76.7601C992.027 77.2769 992.318 77.978 992.318 78.709Z" fill="#455A64"/>
<path id="Vector_192" d="M1017.33 86.0112H972.977V283.045H1017.33V86.0112Z" fill="#EBEBEB"/>
<path id="Vector_193" d="M1518.62 110.31H993.126V158.036H1518.62V110.31Z" fill="#407BFF"/>
<path id="Vector_194" d="M1029.43 128.779H1017.33V130.743H1029.43V128.779Z" fill="white"/>
<path id="Vector_195" d="M1029.43 137.602H1017.33V139.566H1029.43V137.602Z" fill="white"/>
<path id="Vector_196" d="M1029.43 133.246H1017.33V135.21H1029.43V133.246Z" fill="white"/>
<path id="Vector_197" d="M1172.99 127.005H1056.5V141.356H1172.99V127.005Z" fill="white"/>
<path id="Vector_198" d="M1173.13 141.467H1056.36V126.815H1173.13V141.467Z" fill="white"/>
<path id="Vector_199" d="M1173.13 126.847H1158.48V141.499H1173.13V126.847Z" fill="#455A64"/>
<path id="Vector_200" d="M1170.36 138.204L1169.03 139.202L1166.57 136.034L1165.69 134.846C1165.87 134.767 1166.04 134.666 1166.19 134.545C1166.49 134.32 1166.73 134.019 1166.87 133.674L1167.83 134.925L1170.36 138.204Z" fill="white"/>
<path id="Vector_201" d="M1167.75 130.569C1167.33 130.025 1166.76 129.612 1166.11 129.379C1165.46 129.146 1164.76 129.102 1164.09 129.254C1163.42 129.405 1162.81 129.745 1162.32 130.234C1161.84 130.722 1161.5 131.339 1161.36 132.011C1161.21 132.683 1161.26 133.383 1161.5 134.028C1161.74 134.674 1162.16 135.237 1162.7 135.653C1163.25 136.069 1163.91 136.32 1164.59 136.376C1165.28 136.432 1165.97 136.292 1166.57 135.971C1166.75 135.875 1166.92 135.763 1167.08 135.638C1167.37 135.42 1167.62 135.158 1167.83 134.862C1168.28 134.233 1168.51 133.476 1168.5 132.702C1168.48 131.929 1168.22 131.181 1167.75 130.569ZM1166.16 134.482C1166.01 134.603 1165.84 134.704 1165.65 134.783C1165.17 134.976 1164.63 134.987 1164.13 134.813C1163.64 134.639 1163.23 134.293 1162.97 133.837C1162.71 133.382 1162.62 132.848 1162.73 132.335C1162.83 131.822 1163.12 131.363 1163.53 131.044C1163.91 130.758 1164.37 130.602 1164.84 130.6C1165.31 130.598 1165.77 130.75 1166.15 131.033C1166.53 131.316 1166.8 131.714 1166.93 132.168C1167.06 132.622 1167.04 133.106 1166.87 133.547C1166.74 133.916 1166.5 134.239 1166.19 134.482H1166.16Z" fill="white"/>
<path id="Vector_202" d="M1060.29 129.825H1059.51V138.537H1060.29V129.825Z" fill="#C7C7C7"/>
<path id="Vector_203" d="M1494.34 131.995H1444V136.367H1494.34V131.995Z" fill="white"/>
<path id="Vector_204" d="M1417.08 131.995H1366.74V136.367H1417.08V131.995Z" fill="white"/>
<path id="Vector_205" opacity="0.1" d="M1339.83 131.995H1289.49V136.367H1339.83V131.995Z" fill="black"/>
<path id="Vector_206" d="M1262.58 131.995H1212.24V136.367H1262.58V131.995Z" fill="white"/>
<path id="Vector_207" d="M1555.83 306.742H955.918V354.468H1555.83V306.742Z" fill="#407BFF"/>
<path id="Vector_208" d="M1109.23 377.008H993.126V382.378H1109.23V377.008Z" fill="#455A64"/>
<path id="Vector_209" d="M993.126 395.414L1011.75 395.129L1030.38 394.955L1067.64 394.812L1104.89 394.955L1123.52 395.113L1142.15 395.414L1123.52 395.699L1104.89 395.873L1067.64 396L1030.38 395.873L1011.75 395.699L993.126 395.414Z" fill="#A6A6A6"/>
<path id="Vector_210" d="M993.126 402.732L1011.75 402.447L1030.38 402.289L1067.64 402.146L1104.89 402.273L1123.52 402.447L1142.15 402.732L1123.52 403.033L1104.89 403.191L1067.64 403.334L1030.38 403.191L1011.75 403.033L993.126 402.732Z" fill="#A6A6A6"/>
<path id="Vector_211" d="M993.126 410.066L1011.75 409.781L1030.38 409.607L1067.64 409.464L1104.89 409.607L1123.52 409.781L1142.15 410.066L1123.52 410.351L1104.89 410.525L1067.64 410.652L1030.38 410.525L1011.75 410.351L993.126 410.066Z" fill="#A6A6A6"/>
<path id="Vector_212" d="M993.126 417.384L1011.75 417.099L1030.38 416.941L1067.64 416.798L1104.89 416.941L1123.52 417.099L1142.15 417.384L1123.52 417.685L1104.89 417.843L1067.64 417.986L1030.38 417.843L1011.75 417.685L993.126 417.384Z" fill="#A6A6A6"/>
<path id="Vector_213" d="M993.126 424.718C999.335 424.48 1005.54 424.354 1011.75 424.259L1030.38 424.132L1049.01 424.259C1055.22 424.354 1061.43 424.464 1067.64 424.718C1061.43 424.971 1055.22 425.082 1049.01 425.177L1030.33 425.32L1011.71 425.177C1005.54 425.082 999.335 425.003 993.126 424.718Z" fill="#A6A6A6"/>
<path id="Vector_214" d="M1297.46 377.008H1181.35V382.378H1297.46V377.008Z" fill="#455A64"/>
<path id="Vector_215" d="M1181.35 395.414L1199.98 395.129L1218.61 394.955L1255.86 394.812L1293.12 394.955L1311.75 395.113L1330.38 395.414L1311.75 395.699L1293.12 395.873L1255.86 396L1218.61 395.873L1199.98 395.699L1181.35 395.414Z" fill="#A6A6A6"/>
<path id="Vector_216" d="M1181.35 402.732L1199.98 402.447L1218.61 402.289L1255.86 402.146L1293.12 402.273L1311.75 402.447L1330.38 402.732L1311.75 403.033L1293.12 403.191L1255.86 403.334L1218.61 403.191L1199.98 403.033L1181.35 402.732Z" fill="#A6A6A6"/>
<path id="Vector_217" d="M1181.35 410.066L1199.98 409.781L1218.61 409.607L1255.86 409.464L1293.12 409.607L1311.75 409.781L1330.38 410.066L1311.75 410.351L1293.12 410.525L1255.86 410.652L1218.61 410.525L1199.98 410.351L1181.35 410.066Z" fill="#A6A6A6"/>
<path id="Vector_218" d="M1181.35 417.384L1199.98 417.099L1218.61 416.941L1255.86 416.798L1293.12 416.941L1311.75 417.099L1330.38 417.384L1311.75 417.685L1293.12 417.843L1255.86 417.986L1218.61 417.843L1199.98 417.685L1181.35 417.384Z" fill="#A6A6A6"/>
<path id="Vector_219" d="M1181.35 424.718C1187.56 424.48 1193.77 424.354 1199.98 424.259L1218.61 424.132L1237.24 424.259C1243.45 424.354 1249.65 424.464 1255.86 424.718C1249.65 424.971 1243.45 425.082 1237.24 425.177L1218.61 425.32L1199.98 425.177C1193.77 425.082 1187.56 425.003 1181.35 424.718Z" fill="#A6A6A6"/>
<path id="Vector_220" d="M1485.69 377.008H1369.58V382.378H1485.69V377.008Z" fill="#455A64"/>
<path id="Vector_221" d="M1369.58 395.414L1388.21 395.129L1406.83 394.955L1444.09 394.812L1481.36 394.955L1499.99 395.113L1518.62 395.414L1499.99 395.699L1481.36 395.873L1444.09 396L1406.83 395.873L1388.21 395.699L1369.58 395.414Z" fill="#A6A6A6"/>
<path id="Vector_222" d="M1369.58 402.732L1388.21 402.447L1406.83 402.289L1444.09 402.146L1481.36 402.273L1499.99 402.447L1518.62 402.732L1499.99 403.033L1481.36 403.191L1444.09 403.334L1406.83 403.191L1388.21 403.033L1369.58 402.732Z" fill="#A6A6A6"/>
<path id="Vector_223" d="M1369.58 410.066L1388.21 409.781L1406.83 409.607L1444.09 409.464L1481.36 409.607L1499.99 409.781L1518.62 410.066L1499.99 410.351L1481.36 410.525L1444.09 410.652L1406.83 410.525L1388.21 410.351L1369.58 410.066Z" fill="#A6A6A6"/>
<path id="Vector_224" d="M1369.58 417.384L1388.21 417.099L1406.83 416.941L1444.09 416.798L1481.36 416.941L1499.99 417.099L1518.62 417.384L1499.99 417.685L1481.36 417.843L1444.09 417.986L1406.83 417.843L1388.21 417.685L1369.58 417.384Z" fill="#A6A6A6"/>
<path id="Vector_225" d="M1369.58 424.718C1375.79 424.48 1382 424.354 1388.21 424.259L1406.83 424.132L1425.46 424.259C1431.67 424.354 1437.88 424.464 1444.09 424.718C1437.88 424.971 1431.67 425.082 1425.46 425.177L1406.83 425.32L1388.21 425.177C1381.98 425.082 1375.79 425.003 1369.58 424.718Z" fill="#A6A6A6"/>
<path id="Vector_226" d="M1059.19 289.017H1160.73V187.482H1059.19V289.017Z" fill="#EBEBEB"/>
<path id="Vector_227" d="M1065.17 283.045H1154.76V193.454H1065.17V283.045Z" fill="#455A64"/>
<path id="Vector_228" d="M1079.6 214.822C1079.24 216.602 1079.47 218.45 1080.24 220.091C1081.02 221.733 1082.3 223.081 1083.9 223.938C1085.5 224.794 1087.33 225.113 1089.13 224.847C1090.93 224.581 1092.59 223.744 1093.87 222.461C1095.16 221.177 1095.99 219.515 1096.26 217.719C1096.52 215.923 1096.21 214.09 1095.35 212.489C1094.49 210.888 1093.14 209.606 1091.5 208.831C1089.86 208.056 1088.01 207.829 1086.23 208.185C1084.6 208.512 1083.09 209.317 1081.91 210.499C1080.73 211.68 1079.92 213.184 1079.6 214.822Z" fill="#37474F"/>
<path id="Vector_229" d="M1090 259.792H1154.76L1122.38 223.487L1090 259.792Z" fill="#37474F"/>
<path id="Vector_230" d="M1065.17 259.792H1118.63L1091.89 236.143L1065.17 259.792Z" fill="#263238"/>
<path id="Vector_231" d="M1154.76 259.792H1065.17V283.045H1154.76V259.792Z" fill="#263238"/>
<path id="Vector_232" d="M1351.01 289.017H1452.55V187.482H1351.01V289.017Z" fill="#EBEBEB"/>
<path id="Vector_233" d="M1356.99 283.045H1446.58V193.454H1356.99V283.045Z" fill="#455A64"/>
<path id="Vector_234" d="M1371.42 214.822C1371.06 216.598 1371.29 218.441 1372.07 220.078C1372.84 221.715 1374.12 223.059 1375.72 223.913C1377.32 224.766 1379.15 225.083 1380.94 224.817C1382.73 224.552 1384.39 223.717 1385.67 222.436C1386.95 221.156 1387.78 219.497 1388.05 217.706C1388.31 215.914 1388 214.085 1387.14 212.488C1386.29 210.89 1384.95 209.61 1383.31 208.835C1381.67 208.06 1379.83 207.832 1378.05 208.185C1376.41 208.51 1374.91 209.315 1373.73 210.496C1372.55 211.678 1371.74 213.183 1371.42 214.822Z" fill="#37474F"/>
<path id="Vector_235" d="M1381.82 259.792H1446.58L1414.2 223.487L1381.82 259.792Z" fill="#37474F"/>
<path id="Vector_236" d="M1356.97 259.792H1410.43L1383.71 236.143L1356.97 259.792Z" fill="#263238"/>
<path id="Vector_237" d="M1446.56 259.792H1356.97V283.045H1446.56V259.792Z" fill="#263238"/>
<path id="Vector_238" d="M1205.08 289.017H1306.63V187.482H1205.08V289.017Z" fill="#EBEBEB"/>
<path id="Vector_239" d="M1211.07 283.045H1300.66V193.454H1211.07V283.045Z" fill="#407BFF"/>
<path id="Vector_240" opacity="0.1" d="M1225.5 214.822C1225.14 216.602 1225.37 218.45 1226.14 220.091C1226.92 221.733 1228.2 223.081 1229.8 223.938C1231.4 224.794 1233.24 225.113 1235.03 224.847C1236.83 224.581 1238.49 223.744 1239.77 222.461C1241.06 221.177 1241.89 219.515 1242.16 217.719C1242.43 215.923 1242.11 214.09 1241.25 212.489C1240.39 210.888 1239.05 209.606 1237.4 208.831C1235.76 208.056 1233.92 207.829 1232.14 208.185C1230.5 208.512 1228.99 209.317 1227.81 210.499C1226.63 211.68 1225.83 213.184 1225.5 214.822Z" fill="black"/>
<path id="Vector_241" opacity="0.1" d="M1235.91 259.792H1300.66L1268.28 223.487L1235.91 259.792Z" fill="black"/>
<path id="Vector_242" d="M1211.07 259.792H1264.53L1237.81 236.143L1211.07 259.792Z" fill="#407BFF"/>
<g id="Group" opacity="0.2">
<path id="Vector_243" d="M1211.07 259.792H1264.53L1237.81 236.143L1211.07 259.792Z" fill="black"/>
</g>
<path id="Vector_244" d="M1300.66 259.792H1211.07V283.045H1300.66V259.792Z" fill="#407BFF"/>
<path id="Vector_245" opacity="0.2" d="M1300.66 259.792H1211.07V283.045H1300.66V259.792Z" fill="black"/>
<path id="Vector_246" d="M1065.17 319.62L1089.96 319.334L1114.75 319.16L1164.34 319.018L1213.92 319.16L1238.71 319.319L1263.51 319.62L1238.71 319.905L1213.92 320.079L1164.34 320.206L1114.75 320.079L1089.96 319.905L1065.17 319.62Z" fill="white"/>
<path id="Vector_247" d="M1065.17 326.938L1089.96 326.653L1114.75 326.494L1164.34 326.352L1213.92 326.494L1238.71 326.653L1263.51 326.938L1238.71 327.239L1213.92 327.397L1164.34 327.54L1114.75 327.397L1089.96 327.239L1065.17 326.938Z" fill="white"/>
<path id="Vector_248" d="M1065.17 334.272L1089.96 333.986L1114.75 333.812L1164.34 333.686L1213.92 333.812L1238.71 333.986L1263.51 334.272L1238.71 334.557L1213.92 334.731L1164.34 334.858L1114.75 334.731L1089.96 334.557L1065.17 334.272Z" fill="white"/>
<path id="Vector_249" d="M1065.18 341.605C1073.43 341.352 1081.7 341.241 1089.97 341.146L1114.76 341.004L1139.55 341.146C1147.82 341.241 1156.09 341.352 1164.36 341.605C1156.09 341.843 1147.82 341.954 1139.55 342.049L1114.76 342.192L1089.97 342.049C1081.69 341.954 1073.42 341.843 1065.18 341.605Z" fill="white"/>
<path id="Vector_250" d="M1000.36 337.883V323.342L993.3 330.09L1000.36 337.883Z" fill="white"/>
<path id="Vector_251" d="M1511.74 323.342V337.883L1518.81 331.135L1511.74 323.342Z" fill="white"/>
</g>
<g id="freepik--Gears--inject-16">
<path id="Vector_252" d="M1636.27 123.298C1636.27 129.393 1638.07 135.35 1641.46 140.417C1644.85 145.483 1649.66 149.432 1655.29 151.764C1660.92 154.095 1667.12 154.704 1673.09 153.514C1679.07 152.324 1684.56 149.388 1688.87 145.078C1693.17 140.768 1696.11 135.277 1697.29 129.299C1698.48 123.322 1697.87 117.127 1695.53 111.497C1693.2 105.868 1689.25 101.058 1684.18 97.6742C1679.11 94.2908 1673.15 92.4866 1667.06 92.4897C1658.89 92.5023 1651.07 95.7527 1645.29 101.528C1639.52 107.304 1636.28 115.133 1636.27 123.298ZM1642.82 123.298C1642.82 118.501 1644.24 113.81 1646.9 109.819C1649.57 105.829 1653.36 102.718 1657.79 100.881C1662.22 99.0432 1667.1 98.5616 1671.8 99.4968C1676.51 100.432 1680.83 102.742 1684.22 106.135C1687.62 109.527 1689.93 113.85 1690.86 118.555C1691.8 123.261 1691.31 128.138 1689.48 132.57C1687.64 137.002 1684.53 140.79 1680.54 143.453C1676.55 146.117 1671.86 147.537 1667.06 147.534C1660.63 147.534 1654.47 144.98 1649.92 140.435C1645.38 135.89 1642.82 129.726 1642.82 123.298ZM1636.27 123.298C1636.27 129.393 1638.07 135.35 1641.46 140.417C1644.85 145.483 1649.66 149.432 1655.29 151.764C1660.92 154.095 1667.12 154.704 1673.09 153.514C1679.07 152.324 1684.56 149.388 1688.87 145.078C1693.17 140.768 1696.11 135.277 1697.29 129.299C1698.48 123.322 1697.87 117.127 1695.53 111.497C1693.2 105.868 1689.25 101.058 1684.18 97.6742C1679.11 94.2908 1673.15 92.4866 1667.06 92.4897C1658.89 92.5023 1651.07 95.7527 1645.29 101.528C1639.52 107.304 1636.28 115.133 1636.27 123.298ZM1642.82 123.298C1642.82 118.501 1644.24 113.81 1646.9 109.819C1649.57 105.829 1653.36 102.718 1657.79 100.881C1662.22 99.0432 1667.1 98.5616 1671.8 99.4968C1676.51 100.432 1680.83 102.742 1684.22 106.135C1687.62 109.527 1689.93 113.85 1690.86 118.555C1691.8 123.261 1691.31 128.138 1689.48 132.57C1687.64 137.002 1684.53 140.79 1680.54 143.453C1676.55 146.117 1671.86 147.537 1667.06 147.534C1660.63 147.534 1654.47 144.98 1649.92 140.435C1645.38 135.89 1642.82 129.726 1642.82 123.298ZM1615.15 123.298C1615.16 133.568 1618.2 143.606 1623.91 152.143C1629.62 160.68 1637.73 167.333 1647.22 171.26C1656.71 175.187 1667.15 176.212 1677.22 174.205C1687.29 172.199 1696.54 167.251 1703.8 159.987C1711.06 152.723 1716 143.47 1718 133.397C1720 123.324 1718.97 112.884 1715.04 103.398C1711.11 93.9112 1704.45 85.8039 1695.91 80.101C1687.37 74.3982 1677.33 71.356 1667.06 71.3591C1660.24 71.3591 1653.49 72.7028 1647.19 75.3134C1640.89 77.924 1635.16 81.7503 1630.34 86.5737C1625.52 91.3972 1621.7 97.1232 1619.09 103.425C1616.49 109.726 1615.15 116.479 1615.15 123.298ZM1633.32 123.298C1633.32 116.622 1635.3 110.095 1639.01 104.544C1642.72 98.9922 1647.99 94.6658 1654.16 92.1114C1660.33 89.557 1667.12 88.8895 1673.67 90.1932C1680.21 91.4969 1686.23 94.7134 1690.95 99.4357C1695.67 104.158 1698.88 110.174 1700.18 116.723C1701.48 123.272 1700.81 130.059 1698.26 136.227C1695.7 142.395 1691.37 147.665 1685.82 151.372C1680.26 155.08 1673.74 157.057 1667.06 157.054C1658.11 157.037 1649.54 153.475 1643.22 147.147C1636.89 140.82 1633.33 132.244 1633.32 123.298ZM1636.27 123.298C1636.27 129.393 1638.07 135.35 1641.46 140.417C1644.85 145.483 1649.66 149.432 1655.29 151.764C1660.92 154.095 1667.12 154.704 1673.09 153.514C1679.07 152.324 1684.56 149.388 1688.87 145.078C1693.17 140.768 1696.11 135.277 1697.29 129.299C1698.48 123.322 1697.87 117.127 1695.53 111.497C1693.2 105.868 1689.25 101.058 1684.18 97.6742C1679.11 94.2908 1673.15 92.4866 1667.06 92.4897C1658.89 92.5023 1651.07 95.7527 1645.29 101.528C1639.52 107.304 1636.28 115.133 1636.27 123.298ZM1642.82 123.298C1642.82 118.501 1644.24 113.81 1646.9 109.819C1649.57 105.829 1653.36 102.718 1657.79 100.881C1662.22 99.0432 1667.1 98.5616 1671.8 99.4968C1676.51 100.432 1680.83 102.742 1684.22 106.135C1687.62 109.527 1689.93 113.85 1690.86 118.555C1691.8 123.261 1691.31 128.138 1689.48 132.57C1687.64 137.002 1684.53 140.79 1680.54 143.453C1676.55 146.117 1671.86 147.537 1667.06 147.534C1660.63 147.534 1654.47 144.98 1649.92 140.435C1645.38 135.89 1642.82 129.726 1642.82 123.298Z" fill="#407BFF"/>
<path id="Vector_253" d="M1660.98 72.3096H1672.86L1671.67 60.4454H1662.15L1660.98 72.3096Z" fill="#407BFF"/>
<path id="Vector_254" d="M1687.29 76.0953L1697.58 82.0353L1702.48 71.1691L1694.24 66.4012L1687.29 76.0953Z" fill="#407BFF"/>
<path id="Vector_255" d="M1708.18 92.5214L1714.12 102.817L1723.8 95.8478L1719.05 87.611L1708.18 92.5214Z" fill="#407BFF"/>
<path id="Vector_256" d="M1718.05 117.184V129.08L1729.91 127.892V118.372L1718.05 117.184Z" fill="#407BFF"/>
<path id="Vector_257" d="M1714.28 143.495L1708.32 153.791L1719.19 158.701L1723.96 150.464L1714.28 143.495Z" fill="#407BFF"/>
<path id="Vector_258" d="M1697.84 164.387L1687.54 170.343L1694.51 180.022L1702.75 175.254L1697.84 164.387Z" fill="#407BFF"/>
<path id="Vector_259" d="M1673.17 174.272H1661.28L1662.47 186.136H1671.99L1673.17 174.272Z" fill="#407BFF"/>
<path id="Vector_260" d="M1646.86 170.486L1636.57 164.546L1631.66 175.412L1639.91 180.18L1646.86 170.486Z" fill="#407BFF"/>
<path id="Vector_261" d="M1625.97 154.06L1620.01 143.764L1610.34 150.718L1615.1 158.97L1625.97 154.06Z" fill="#407BFF"/>
<path id="Vector_262" d="M1616.09 129.381V117.501L1604.22 118.689V128.209L1616.09 129.381Z" fill="#407BFF"/>
<path id="Vector_263" d="M1619.87 103.087L1625.81 92.7906L1614.95 87.8802L1610.18 96.117L1619.87 103.087Z" fill="#407BFF"/>
<path id="Vector_264" d="M1636.3 82.1779L1646.59 76.2379L1639.64 66.5597L1631.39 71.3117L1636.3 82.1779Z" fill="#407BFF"/>
<path id="Vector_265" d="M1537.49 76.1271C1537.33 82.1029 1538.95 87.9914 1542.14 93.0476C1545.33 98.1039 1549.94 102.101 1555.4 104.533C1560.87 106.965 1566.92 107.723 1572.82 106.711C1578.71 105.699 1584.17 102.963 1588.5 98.8482C1592.84 94.7333 1595.86 89.425 1597.18 83.5944C1598.5 77.7638 1598.06 71.673 1595.92 66.0922C1593.77 60.5114 1590.02 55.6914 1585.14 52.2418C1580.26 48.7921 1574.46 46.8678 1568.49 46.7122C1564.52 46.6068 1560.57 47.2842 1556.87 48.7056C1553.16 50.1271 1549.77 52.2647 1546.89 54.9964C1544.01 57.7281 1541.7 61.0003 1540.09 64.626C1538.47 68.2517 1537.59 72.1598 1537.49 76.1271ZM1553.58 76.5547C1553.65 73.7641 1554.55 71.0577 1556.17 68.778C1557.78 66.4984 1560.03 64.7477 1562.63 63.7475C1565.24 62.7474 1568.08 62.5426 1570.81 63.1591C1573.53 63.7756 1576.01 65.1857 1577.93 67.2111C1579.85 69.2365 1581.13 71.7861 1581.6 74.5375C1582.07 77.289 1581.72 80.1186 1580.58 82.6685C1579.45 85.2184 1577.58 87.3741 1575.22 88.8629C1572.86 90.3517 1570.11 91.1067 1567.32 91.0325C1563.57 90.933 1560.03 89.352 1557.45 86.637C1554.88 83.9221 1553.48 80.2955 1553.58 76.5547Z" fill="#EBEBEB"/>
<path id="Vector_266" d="M1562.66 47.8051L1574.27 48.1219L1573.84 39.8851L1563.51 39.6L1562.66 47.8051Z" fill="#EBEBEB"/>
<path id="Vector_267" d="M1584.66 52.3037L1592.66 60.7464L1598.19 54.6163L1591.08 47.124L1584.66 52.3037Z" fill="#EBEBEB"/>
<path id="Vector_268" d="M1597.05 71.0582L1596.73 82.669L1604.97 82.2413L1605.25 71.9136L1597.05 71.0582Z" fill="#EBEBEB"/>
<path id="Vector_269" d="M1592.55 93.0599L1584.11 101.059L1590.24 106.587L1597.74 99.4751L1592.55 93.0599Z" fill="#EBEBEB"/>
<path id="Vector_270" d="M1573.79 105.447L1562.18 105.13L1562.61 113.383L1572.94 113.652L1573.79 105.447Z" fill="#EBEBEB"/>
<path id="Vector_271" d="M1551.79 100.948L1543.79 92.5056L1538.26 98.6357L1545.38 106.144L1551.79 100.948Z" fill="#EBEBEB"/>
<path id="Vector_272" d="M1539.41 82.1937L1539.72 70.583L1531.49 71.0107L1531.2 81.3384L1539.41 82.1937Z" fill="#EBEBEB"/>
<path id="Vector_273" d="M1543.9 60.1919L1552.35 52.1927L1546.22 46.6646L1538.71 53.7926L1543.9 60.1919Z" fill="#EBEBEB"/>
<path id="Vector_274" d="M1575.73 69.5217L1565.81 66.5754L1558.32 73.6876L1560.76 83.7302L1570.66 86.6764L1578.18 79.5642L1575.73 69.5217ZM1568.14 79.8969C1567.49 79.8808 1566.86 79.6721 1566.33 79.2974C1565.8 78.9226 1565.39 78.3985 1565.16 77.7918C1564.93 77.185 1564.88 76.5229 1565.02 75.8895C1565.17 75.256 1565.5 74.6798 1565.97 74.234C1566.44 73.7881 1567.04 73.4927 1567.68 73.3853C1568.32 73.2778 1568.98 73.3632 1569.57 73.6305C1570.16 73.8978 1570.66 74.335 1571 74.8867C1571.35 75.4383 1571.52 76.0795 1571.5 76.7289C1571.47 77.593 1571.1 78.4107 1570.47 79.004C1569.84 79.5974 1569 79.9182 1568.14 79.8969Z" fill="#EBEBEB"/>
<path id="Vector_275" d="M1666.92 52.0819V43.7976H1854V75.3984" stroke="#263238" stroke-width="0.75" stroke-miterlimit="10" stroke-dasharray="2 2"/>
<path id="Vector_276" d="M1851.63 74.7173L1854 78.8198L1856.36 74.7173H1851.63Z" fill="#263238"/>
</g>
<g id="freepik--Plant--inject-16">
<path id="Vector_277" d="M1638.84 378.855C1640.38 384.505 1641.41 390.284 1641.9 396.121C1641.74 396.406 1641.77 397.483 1641.9 397.182C1641.9 398.133 1643.37 397.958 1643.37 397.024C1643.37 396.422 1643.37 395.804 1643.37 395.218C1646.74 391.02 1651.66 388.375 1655.6 384.732C1658.79 381.878 1661.11 378.184 1662.3 374.072C1665.59 362.762 1662.51 350.771 1666.47 339.477C1669.87 329.751 1675.97 321.293 1681.13 312.47C1686.58 303.156 1690.64 293.351 1691.02 282.374C1691.33 274.01 1690.34 262.875 1683.97 256.602C1677.22 249.965 1668.86 254.939 1663.68 260.863C1648.69 278.065 1641.76 299.798 1638.95 322.021C1637.37 334.329 1635.78 346.7 1636.18 359.119C1636.41 365.769 1637.3 372.381 1638.84 378.855Z" fill="#407BFF"/>
<path id="Vector_278" d="M1641.82 400.635C1641 389.028 1641.14 377.372 1642.23 365.787C1642.23 365.787 1642.23 365.787 1642.23 365.661C1642.04 356.252 1641.3 346.858 1641.66 337.434C1642.12 327.233 1643.51 317.096 1645.81 307.148C1645.81 307.037 1646.02 307.148 1646 307.148C1644.16 316.923 1643.06 326.826 1642.72 336.768C1642.53 342.091 1642.56 347.413 1642.85 352.719C1642.94 354.462 1643.1 356.204 1643.21 357.946C1647.13 331.504 1656.69 306.212 1671.23 283.784C1671.44 283.483 1671.98 283.784 1671.79 284.116C1661.39 301.161 1653.7 319.713 1648.98 339.113C1656.19 325.76 1667.07 314.767 1675.15 301.936C1675.15 301.936 1675.3 301.936 1675.27 302.015C1668.02 316.271 1656.03 327.565 1648.34 341.615C1647.01 347.365 1645.92 353.147 1645.18 359.039C1644.09 366.994 1643.5 375.009 1643.4 383.037C1647.79 374.832 1652.34 366.991 1655.93 358.311C1656.03 358.089 1656.36 358.232 1656.28 358.469C1653.22 367.482 1649.12 377.192 1643.37 384.874C1643.37 390.593 1643.51 396.295 1643.85 401.997C1644.75 417.204 1647.35 432.22 1648.6 447.379C1648.6 447.471 1648.56 447.56 1648.5 447.626C1648.43 447.691 1648.34 447.728 1648.25 447.728C1648.16 447.728 1648.07 447.691 1648 447.626C1647.94 447.56 1647.9 447.471 1647.9 447.379C1644.81 431.954 1642.78 416.337 1641.82 400.635Z" fill="#263238"/>
<path id="Vector_279" d="M1657.99 283.245C1657.99 283.134 1658.2 283.245 1658.15 283.245C1655.38 290.927 1653.81 298.721 1651.81 306.593C1651.8 306.669 1651.76 306.736 1651.7 306.781C1651.63 306.825 1651.56 306.843 1651.48 306.831C1651.41 306.818 1651.34 306.776 1651.29 306.714C1651.25 306.651 1651.23 306.574 1651.24 306.498C1652.04 298.641 1654.9 290.674 1657.99 283.245Z" fill="#263238"/>
<path id="Vector_280" d="M1587.42 315.511C1589.26 320.014 1591.38 324.4 1593.76 328.642C1598.77 337.735 1603.99 346.066 1604.85 356.632C1605.02 361.368 1605.69 366.073 1606.86 370.666C1608.19 374.574 1610.07 378.271 1612.45 381.643C1617.88 389.563 1624.66 396.343 1629.69 404.548C1634.96 413.087 1638.86 422.397 1641.26 432.141C1641.38 432.68 1642.21 432.537 1642.09 431.998C1642.09 431.998 1642.09 431.919 1642.09 431.888C1642.1 431.851 1642.1 431.813 1642.09 431.777C1642.88 409.078 1641.07 386.221 1634.17 364.488C1631.11 354.932 1627.44 345.583 1623.18 336.499C1619.69 328.47 1614.64 321.212 1608.33 315.147C1604.1 311.345 1594.95 304.138 1588.94 307.955C1586.08 309.793 1586.28 312.692 1587.42 315.511Z" fill="#407BFF"/>
<path id="Vector_281" d="M1610.22 366.944C1614.22 373.547 1618.62 379.896 1623.41 385.952C1625.6 388.819 1627.83 391.654 1630.03 394.537C1631.06 395.883 1632.22 397.246 1633.2 398.703C1632.6 396.311 1632.03 393.951 1631.41 391.543C1628.48 380.075 1625.68 368.512 1621.31 357.487C1616.85 346.812 1611.58 336.492 1605.56 326.615C1605.4 326.346 1605.83 326.156 1605.99 326.409C1610.74 334.329 1615.65 342.17 1619.67 350.486C1621.9 355.115 1623.84 359.876 1625.49 364.742C1623.64 354.402 1621.06 344.207 1617.76 334.234C1617.76 334.139 1617.85 334.076 1617.88 334.234C1622.21 344.307 1624.92 354.998 1625.92 365.914C1626.9 368.86 1627.81 371.833 1628.64 374.832C1632.22 387.504 1635.36 400.35 1638.27 413.212C1638.32 404.757 1637.59 396.316 1636.08 387.995C1636.08 387.789 1636.32 387.757 1636.37 387.995C1638.59 396.674 1639.33 405.664 1638.57 414.59C1639.66 419.485 1640.74 424.395 1641.74 429.29C1643.96 439.744 1646.7 450.389 1648.08 460.97C1648.06 461.017 1648.03 461.058 1648 461.087C1647.96 461.117 1647.91 461.133 1647.86 461.133C1647.81 461.133 1647.77 461.117 1647.73 461.087C1647.69 461.058 1647.66 461.017 1647.65 460.97C1646.06 455.252 1645.16 449.312 1643.88 443.546C1642.59 437.78 1641.3 431.935 1639.93 426.122C1637.97 417.674 1635.93 409.226 1633.8 400.778C1632.39 397.689 1629.69 394.949 1627.64 392.367C1625.41 389.531 1623.18 386.696 1621 383.813C1616.92 378.478 1613.27 372.826 1610.09 366.912C1609.96 366.912 1610.14 366.833 1610.22 366.944Z" fill="#263238"/>
<path id="Vector_282" d="M1609.25 357.25C1614.25 363.62 1618.57 370.488 1622.16 377.746C1622.16 377.842 1622.07 377.937 1622 377.842C1617.66 371.046 1613.39 364.187 1609.06 357.376C1608.98 357.265 1609.17 357.139 1609.25 357.25Z" fill="#263238"/>
<path id="Vector_283" d="M1705.83 337.101C1702.9 342.17 1699.49 348.189 1700.81 354.335C1701.6 358.184 1704.42 361.305 1704.93 365.233C1706.07 373.897 1697.43 379.616 1691.18 383.718C1675.61 393.935 1654.24 403.043 1651.4 423.92C1651.29 424.665 1650.02 424.474 1650.12 423.746C1650.12 423.746 1650.12 423.746 1650.12 423.619C1650.12 423.492 1650.12 423.619 1650.12 423.492C1648.07 412.953 1648.16 402.108 1650.4 391.606C1652.73 380.851 1657.42 371.189 1662.97 361.732C1672.34 345.734 1682.27 329.355 1696.45 317.111C1700.38 313.721 1708.41 307.607 1711.53 315.273C1714.65 322.94 1709.44 330.86 1705.83 337.101Z" fill="#407BFF"/>
<path id="Vector_284" d="M1691.57 370.935C1681.24 382.118 1664.83 388.359 1655.93 400.905C1660.9 381.84 1670.29 364.214 1683.34 349.456C1683.67 349.076 1683.13 348.522 1682.77 348.886C1673.25 358.128 1665.64 369.143 1660.37 381.31C1662.83 372.82 1666.06 364.57 1670.01 356.663C1670.16 356.362 1669.73 356.093 1669.55 356.394C1664.68 365.027 1661.2 374.378 1659.24 384.098C1647.54 412.452 1646.44 445.716 1648.9 475.606C1648.92 475.684 1648.96 475.753 1649.02 475.803C1649.08 475.853 1649.16 475.881 1649.24 475.881C1649.32 475.881 1649.4 475.853 1649.46 475.803C1649.52 475.753 1649.56 475.684 1649.58 475.606C1648.9 452.052 1649.28 428.086 1654.93 405.086C1655.05 404.595 1655.17 404.12 1655.3 403.645C1664.98 390.165 1681.32 383.924 1691.84 371.109C1691.86 370.999 1691.68 370.809 1691.57 370.935Z" fill="#263238"/>
<path id="Vector_285" d="M1693.96 361.336C1688.55 366.31 1683.21 371.395 1677.78 376.368C1677.78 376.368 1677.78 376.511 1677.78 376.463C1683.93 372.326 1689.46 367.34 1694.22 361.653C1694.23 361.615 1694.24 361.573 1694.23 361.533C1694.22 361.493 1694.21 361.455 1694.18 361.423C1694.15 361.392 1694.12 361.367 1694.08 361.352C1694.05 361.336 1694 361.331 1693.96 361.336Z" fill="#263238"/>
<path id="Vector_286" d="M1694.84 339.778C1690.04 347.646 1684.61 355.11 1678.6 362.096C1678.59 362.106 1678.58 362.117 1678.58 362.129C1678.58 362.14 1678.57 362.153 1678.58 362.165C1678.58 362.178 1678.58 362.19 1678.58 362.201C1678.59 362.213 1678.6 362.223 1678.61 362.231C1678.62 362.239 1678.63 362.246 1678.64 362.25C1678.65 362.254 1678.66 362.256 1678.68 362.255C1678.69 362.254 1678.7 362.251 1678.71 362.246C1678.72 362.24 1678.73 362.233 1678.74 362.223C1685.48 355.829 1691.02 348.288 1695.12 339.952C1695.22 339.762 1694.95 339.588 1694.84 339.778Z" fill="#263238"/>
<path id="Vector_287" d="M1670.41 496.689H1622.92L1629.32 432.79H1663.11L1670.41 496.689Z" fill="#455A64"/>
<path id="Vector_288" d="M1664.3 443.181H1628.28L1629.32 432.79H1663.11L1664.3 443.181Z" fill="#263238"/>
<path id="Vector_289" d="M1668.92 425.71H1624.41V435.911H1668.92V425.71Z" fill="#455A64"/>
</g>
<g id="Group 3">
<path id="elpwspc4j0h3g" d="M441.125 137.28H384.596C382.719 137.28 380.919 136.534 379.592 135.208C378.265 133.881 377.52 132.081 377.52 130.204V52.0061C377.52 50.1295 378.265 48.3298 379.592 47.0028C380.919 45.6759 382.719 44.9304 384.596 44.9304H420.441L448.188 73.5358V130.293C448.165 132.152 447.411 133.927 446.09 135.234C444.768 136.542 442.985 137.277 441.125 137.28Z" fill="#407BFF"/>
<g id="el9fo0pozn01w">
<g id="Group_2" opacity="0.2">
<path id="elnij0b5e94ke" d="M377.52 109.242H448.151V126.9C448.151 129.646 447.06 132.28 445.118 134.222C443.176 136.164 440.542 137.255 437.796 137.255H387.724C385.017 137.255 382.422 136.18 380.509 134.266C378.595 132.352 377.52 129.757 377.52 127.051V109.242Z" fill="black"/>
</g>
</g>
<path id="elbvyuo7yddp" d="M402.569 127.329L404.347 125.197C404.613 125.636 404.981 126.002 405.421 126.266C405.861 126.53 406.358 126.682 406.87 126.711C408.131 126.711 408.837 125.941 408.837 124.428V117.844H404.007V115.322H412.053V124.289C412.053 127.707 410.325 129.397 407.071 129.397C406.212 129.422 405.359 129.248 404.578 128.889C403.797 128.531 403.11 127.997 402.569 127.329Z" fill="#FAFAFA"/>
<path id="elcjtohg4ue39" d="M413.958 128.111L414.992 125.903C416.108 126.576 417.385 126.933 418.688 126.938C420.113 126.938 420.643 126.559 420.643 125.966C420.643 124.226 414.223 125.966 414.223 121.754C414.223 119.736 416.039 118.31 419.142 118.31C420.559 118.285 421.962 118.605 423.228 119.244L422.206 121.438C421.273 120.909 420.215 120.635 419.142 120.644C417.754 120.644 417.161 121.085 417.161 121.64C417.161 123.456 423.581 121.64 423.581 125.878C423.581 127.858 421.752 129.258 418.536 129.258C416.936 129.283 415.357 128.888 413.958 128.111Z" fill="#FAFAFA"/>
<path id="elk92agrjk9j" d="M392.491 94.5231L394.711 91.9249C395.301 92.8751 396.121 93.6611 397.096 94.2101C398.07 94.7591 399.167 95.0533 400.286 95.0654C403.3 95.0654 404.877 93.224 404.877 89.642V74.6582H395.203V71.3285H408.648V89.4906C408.648 95.4438 405.747 98.3825 400.286 98.3825C398.771 98.4214 397.269 98.0903 395.911 97.4177C394.552 96.7452 393.379 95.7516 392.491 94.5231Z" fill="#FAFAFA"/>
<path id="elmqfvxeoxxl" d="M413.352 95.9361L414.891 93.0352C417.003 94.4122 419.471 95.1441 421.992 95.1415C425.397 95.1415 426.81 94.1073 426.81 92.392C426.81 87.8388 414.008 91.774 414.008 83.7145C414.008 80.0821 417.25 77.6352 422.446 77.6352C425.041 77.5838 427.604 78.2191 429.875 79.4767L428.311 82.3776C426.559 81.2825 424.524 80.7255 422.459 80.7758C419.255 80.7758 417.691 81.9614 417.691 83.5632C417.691 88.3433 430.531 84.446 430.531 92.3163C430.531 95.9866 427.163 98.3073 421.778 98.3073C418.793 98.4 415.851 97.5722 413.352 95.9361Z" fill="#FAFAFA"/>
<g id="el643jgy6fucf">
<g id="Group_3" opacity="0.3">
<path id="elpb66pz0yk7b" d="M420.441 44.88V66.9016C420.441 68.6478 421.134 70.3223 422.369 71.557C423.604 72.7917 425.278 73.4854 427.025 73.4854H448.201L420.441 44.88Z" fill="white"/>
</g>
</g>
<g id="elsrhhdtm8pwo">
<g id="Group_4" opacity="0.2">
<path id="elxha5d9okwg8" d="M420.731 68.8313C420.744 70.499 421.326 72.1122 422.381 73.4036C423.436 74.695 424.901 75.5872 426.533 75.9322L427.226 76.0961C429.988 76.588 448.201 79.8799 448.201 79.4006V73.4854H427.025C427.025 73.4854 421.74 73.3088 420.731 68.8313Z" fill="black"/>
</g>
</g>
</g>
</g>
<defs>
<clipPath id="clip0_1407_1069">
<rect width="1980" height="475.2" fill="white"/>
</clipPath>
</defs>
</svg>
