<svg width="48" height="35" viewBox="0 0 48 35" fill="none" xmlns="http://www.w3.org/2000/svg">
<path fill-rule="evenodd" clip-rule="evenodd" d="M47.2865 1.4236C47.2865 0.64126 46.6453 0 45.8629 0H1.43642C0.654078 0 0.0128174 0.64126 0.0128174 1.4236V5.36094H47.2865V1.4236ZM4.8351 3.64236C4.30926 3.64236 3.87321 3.21913 3.87321 2.68047C3.87321 2.15463 4.29644 1.71858 4.8351 1.71858C5.36093 1.71858 5.79699 2.14181 5.79699 2.68047C5.78416 3.2063 5.36093 3.64236 4.8351 3.64236ZM8.83656 3.64236C8.31073 3.64236 7.87467 3.21913 7.87467 2.68047C7.87467 2.15463 8.2979 1.71858 8.83656 1.71858C9.37522 1.71858 9.79845 2.14181 9.79845 2.68047C9.79845 3.2063 9.37522 3.64236 8.83656 3.64236ZM12.8509 3.64236C12.325 3.64236 11.889 3.21913 11.889 2.68047C11.889 2.15463 12.3122 1.71858 12.8509 1.71858C13.3767 1.71858 13.8127 2.14181 13.8127 2.68047C13.8127 3.2063 13.3767 3.64236 12.8509 3.64236ZM43.4133 3.19348H24.0344C23.7523 3.19348 23.5086 2.96262 23.5086 2.66764C23.5086 2.38549 23.7395 2.14181 24.0344 2.14181H43.4262C43.7083 2.14181 43.952 2.37266 43.952 2.66764C43.9392 2.96262 43.7083 3.19348 43.4133 3.19348Z" fill="#D94D38"/>
<path fill-rule="evenodd" clip-rule="evenodd" d="M0 33.5764C0 34.3587 0.641261 35 1.4236 35H45.8501C46.6325 35 47.2737 34.3587 47.2737 33.5764V6.39978H0V33.5764ZM28.9337 16.0956C28.7028 15.9161 28.6643 15.5955 28.8311 15.3646C29.0106 15.1337 29.3313 15.0953 29.5621 15.262L36.1286 20.2767C36.2569 20.3793 36.3338 20.5332 36.3338 20.6871C36.3338 20.8538 36.2569 21.0077 36.1286 21.0975L29.5621 26.1121C29.4723 26.1891 29.3569 26.2147 29.2415 26.2147C29.0876 26.2147 28.9337 26.1506 28.8311 26.0095C28.6515 25.7787 28.7028 25.458 28.9337 25.2785L34.9615 20.6742L28.9337 16.0956ZM20.9949 28.2411L25.2913 12.8765C25.3683 12.5944 25.6504 12.4405 25.9326 12.5174C26.2147 12.5944 26.3686 12.8765 26.2917 13.1587L21.9952 28.5233C21.9311 28.7541 21.7259 28.908 21.4951 28.908C21.4438 28.908 21.4053 28.908 21.354 28.8824C21.0846 28.8054 20.9179 28.5233 20.9949 28.2411ZM11.1579 20.2895L17.7244 15.2748C17.9553 15.0953 18.2759 15.1466 18.4555 15.3774C18.635 15.6083 18.5837 15.9289 18.3529 16.1085L12.325 20.7127L18.3529 25.317C18.5837 25.4965 18.6222 25.8171 18.4555 26.048C18.3529 26.1763 18.199 26.2532 18.0451 26.2532C17.9296 26.2532 17.827 26.2147 17.7244 26.1506L11.1579 21.1231C11.0297 21.0205 10.9527 20.8666 10.9527 20.7127C10.9527 20.546 11.0297 20.3921 11.1579 20.2895Z" fill="#D3D5DB"/>
</svg>
