<svg width="48" height="35" viewBox="0 0 48 35" fill="none" xmlns="http://www.w3.org/2000/svg">
<path fill-rule="evenodd" clip-rule="evenodd" d="M23.6497 29.7032C28.613 29.7032 32.6402 25.6633 32.6402 20.7128C32.6402 15.7494 28.6002 11.7223 23.6497 11.7223C18.6992 11.7223 14.6592 15.7622 14.6592 20.7128C14.6464 25.6633 18.6863 29.7032 23.6497 29.7032ZM20.1997 21.8286C20.4177 21.649 20.7512 21.6747 20.9307 21.8927L23.1238 24.4962V15.4801C23.1238 15.1979 23.3547 14.9542 23.6497 14.9542C23.9318 14.9542 24.1755 15.1851 24.1755 15.4801V24.4962L26.3686 21.8927C26.5482 21.6747 26.8816 21.649 27.0997 21.8286C27.3177 22.0081 27.3433 22.3416 27.1638 22.5596L24.1114 26.1763C24.0216 26.3174 23.8805 26.42 23.7138 26.4328H23.5984C23.4317 26.42 23.2778 26.3174 23.2008 26.1763L20.1484 22.5596C19.9432 22.3416 19.9817 22.0209 20.1997 21.8286Z" fill="#86D1DA"/>
<path fill-rule="evenodd" clip-rule="evenodd" d="M0 33.5764C0 34.3587 0.641261 35 1.4236 35H45.8501C46.6325 35 47.2737 34.3587 47.2737 33.5764V6.39978H0V33.5764ZM16.5445 13.6075C18.4427 11.7094 20.9564 10.6706 23.6369 10.6706C26.3173 10.6706 28.8311 11.7094 30.7292 13.6075C32.6273 15.5057 33.6662 18.0194 33.6662 20.6999C33.6662 23.3804 32.6273 25.8941 30.7292 27.7922C28.8311 29.6904 26.3173 30.7292 23.6369 30.7292C20.9564 30.7292 18.4427 29.6904 16.5445 27.7922C14.6464 25.8941 13.6075 23.3804 13.6075 20.6999C13.6075 18.0194 14.6592 15.5057 16.5445 13.6075ZM47.2866 1.4236C47.2866 0.64126 46.6453 0 45.863 0H1.43642C0.654086 0 0.0128253 0.64126 0.0128253 1.4236V5.36094H47.2866V1.4236ZM4.8351 3.64236C4.30927 3.64236 3.87321 3.21913 3.87321 2.68047C3.87321 2.15463 4.29645 1.71858 4.8351 1.71858C5.36094 1.71858 5.79699 2.14181 5.79699 2.68047C5.78417 3.2063 5.36094 3.64236 4.8351 3.64236ZM8.83657 3.64236C8.31074 3.64236 7.87468 3.21913 7.87468 2.68047C7.87468 2.15463 8.29791 1.71858 8.83657 1.71858C9.37523 1.71858 9.79846 2.14181 9.79846 2.68047C9.79846 3.2063 9.37523 3.64236 8.83657 3.64236ZM12.8509 3.64236C12.325 3.64236 11.889 3.21913 11.889 2.68047C11.889 2.15463 12.3122 1.71858 12.8509 1.71858C13.3767 1.71858 13.8128 2.14181 13.8128 2.68047C13.8128 3.2063 13.3767 3.64236 12.8509 3.64236ZM43.4133 3.19348H24.0344C23.7523 3.19348 23.5086 2.96262 23.5086 2.66764C23.5086 2.38549 23.7395 2.14181 24.0344 2.14181H43.4262C43.7083 2.14181 43.952 2.37266 43.952 2.66764C43.9392 2.96262 43.7083 3.19348 43.4133 3.19348Z" fill="#3A394C"/>
</svg>
